<svg xmlns="http://www.w3.org/2000/svg" width="796.764" height="488" viewBox="0 0 796.764 488"><g fill-rule="evenodd"><path d="M172.3 321.055h-66.037a64.819 64.819 0 0 0-64.623 64.624 64.811 64.811 0 0 0 64.623 64.621h558.382c57.547 0 104.639-47.092 104.639-104.639s-47.092-104.639-104.639-104.639a44.367 44.367 0 0 1-44.237-44.249 44.377 44.377 0 0 1 44.249-44.249h53.253a46.129 46.129 0 0 0 45.99-45.994 46.129 46.129 0 0 0-45.99-45.994h-67.331a17.969 17.969 0 0 1-17.91-17.91 17.969 17.969 0 0 1 17.91-17.91h11.871a12.4 12.4 0 0 0 12.359-12.359 12.4 12.4 0 0 0-12.36-12.357h-77.885c-16.409 0-18.227 19.374-59.658 19.374h-119.377a16.177 16.177 0 0 0-16.129 16.126 16.177 16.177 0 0 0 16.129 16.13h15.482a23.428 23.428 0 0 1 23.363 23.363 23.436 23.436 0 0 1-23.363 23.363h-23.3c-62.94 0-71.834 16.446-82.85 49.166l-68.271 35.356h-78.29a35.31 35.31 0 0 0-35.209 35.209 35.31 35.31 0 0 0 35.209 35.213h4.026a33.964 33.964 0 0 1 33.867 33.867 34.013 34.013 0 0 1-33.893 33.888zm524.822-296.338a12.359 12.359 0 1 1 12.358-12.358 12.358 12.358 0 0 1-12.358 12.358z" transform="translate(9.161)" fill="#e2e8f5"/><g fill="#bfcce8"><path d="M153.29 417.322h5.661v-34.355l21.449 21.447-12.908 12.908h5.331l10.248-10.236 10.248 10.236h5.331l-12.908-12.908 21.448-21.448v34.355h5.661v-267.411h-5.661v6.515l-6.515-6.515h-5.331l11.846 11.846v.329l-24.12 24.12-24.119-24.119v-.329l11.849-11.847h-5.331l-6.515 6.515v-6.515h-5.664v70.89a34.122 34.122 0 0 1 5.661 1.464v-.964l1.562 1.549a34.248 34.248 0 0 1 18.581 18.581l1.318 1.318-.6.6a34.875 34.875 0 0 1 1.135 4.2l2.123-2.123 24.119 24.119v.329l-24.119 24.119-13.725-13.725a32.545 32.545 0 0 1-3.062 2.269l14.128 14.128-21.448 21.448v-31.928a33.514 33.514 0 0 1-5.661 1.464v129.674zm5.661-45.347v-42.9l21.449 21.452-21.448 21.448zm0-161.662v-42.9l21.449 21.452-21.448 21.448zm48.226-42.913v42.9l-21.447-21.448 21.447-21.452zm0 53.9v42.9l-21.447-21.448 21.447-21.452zm0 53.887v42.9l-21.447-21.448 21.448-21.448zm0 53.887v42.9l-21.447-21.447 21.448-21.448zm-48.226-113.43l24.119-24.119 24.119 24.119v.329l-24.119 24.119-24.119-24.119v-.329zm0 107.775l24.119-24.119 24.119 24.119v.329l-24.119 24.119-24.119-24.119v-.329zm0 53.887l24.119-24.119 24.119 24.119v.329l-24.119 24.12-24.119-24.119z" transform="translate(79.251) translate(-45.527 32.98)"/><path d="M477.61 450.3h5.661v-34.353l21.448 21.448-12.908 12.905h5.331l10.248-10.236 10.248 10.236h5.331l-12.908-12.908 21.448-21.448v34.356h5.661v-222.611a45.388 45.388 0 0 1-5.661-7.088v22.692l-21.448-21.448 15.494-15.494c-.329-1.5-.586-3.026-.769-4.563l-17.4 17.4-24.119-24.119v-.329l24.119-24.119 17.9 17.9a41.369 41.369 0 0 1 1.049-4.282l-16.275-16.275 21.45-21.454v26.462a44.688 44.688 0 0 1 5.661-7.088v-119.439a17.87 17.87 0 0 1-.415-3.819 17.949 17.949 0 0 1 .415-3.819v-38.807h-5.661v27.731l-21.46-21.448 6.283-6.283h-5.333l-3.623 3.623-3.61-3.623h-5.331l6.283 6.283-21.448 21.448v-26.962a24.273 24.273 0 0 0-5.661 2.623v446.908zm5.661-45.347v-42.9l21.448 21.448-21.448 21.448zm0-53.887v-42.9l21.448 21.448-21.448 21.448zm0-53.887v-42.9l21.448 21.448-21.448 21.453zm0-53.887v-42.892l21.448 21.448-21.448 21.448zm0-53.887v-42.9l21.448 21.448-21.448 21.447zm0-53.887v-42.908l21.448 21.448-21.448 21.46zm0-53.9v-42.9l21.447 21.452-21.447 21.448zm48.227-42.9v42.9l-21.448-21.448 21.45-21.447zm0 53.887v42.9l-21.448-21.447 21.45-21.448zm0 161.674v42.9l-21.448-21.447 21.45-21.447zm0 53.887v42.9l-21.448-21.446 21.45-21.448zm0 53.887v42.9l-21.448-21.446 21.45-21.448zm-48.227-328.979l24.119-24.119 24.12 24.119v.326l-24.12 24.123-24.119-24.123v-.329zm0 53.887l24.119-24.119 24.12 24.12v.329l-24.12 24.119-24.119-24.119v-.329zm0 53.887l24.119-24.118 24.119 24.119v.329l-24.119 24.122-24.119-24.119v-.329zm0 107.775l24.119-24.123 24.119 24.119v.329l-24.119 24.125-24.119-24.119v-.329zm0 53.887l24.119-24.119 24.119 24.119v.329l-24.119 24.121-24.119-24.119v-.329zm0 53.887l24.119-24.119 24.12 24.122v.329l-24.12 24.118-24.119-24.119v-.328zm0 53.887l24.119-24.119 24.119 24.119v.329l-24.119 24.122-24.119-24.119z" transform="translate(79.251) translate(25.823)"/><path d="M152.7 287.789h-8.33v10.224l-10.224-10.224h-7.857l18.08 18.08v.476l-35.539 35.539-35.537-35.539v-.476l17.19-17.19a63.742 63.742 0 0 0-10.578 2.721l-6.612 6.612v-3.88a63.388 63.388 0 0 0-8.333 4.807v106.946a66.251 66.251 0 0 0 8.333 4.807v-17.08l23.253 23.265c1.513.11 3.038.159 4.575.159h3.453l-31.281-31.281v-.476l35.539-35.539 35.539 35.539v.476l-31.293 31.281h7.857l23.424-23.424v23.424h8.333v-129.247zm0-136.579a35.485 35.485 0 0 0-19.835 15.69l11.492-11.492v59.192a35.042 35.042 0 0 0 8.333 3.867v-67.257zm-79.41 226.2v-63.21l31.61 31.6-31.61 31.61zm71.068-63.21v63.21l-31.61-31.61z" transform="translate(79.251) translate(-64.96 33.266)"/><path d="M542.832 450.3h8.333v-23.422l21.765 21.765c2.184-.39 4.331-.866 6.466-1.391l-28.231-28.231v-.476l35.535-35.538 35.539 35.539v.476l-19.2 19.2a105.715 105.715 0 0 0 27.536-21.022v-143.078a106.541 106.541 0 0 0-11.6-10.651l-32.275 32.269-35.535-35.54v-.476l17.7-17.7c-2.342-.329-4.721-.586-7.113-.744l-10.59 10.59v-10.97a43.576 43.576 0 0 1-8.333-1.427v210.827zm0-296.228a43.74 43.74 0 0 1 8.333-1.427v-43.382l31.6 31.61-11.665 11.664h7.857l7.735-7.735 7.735 7.735h7.857l-11.664-11.664 31.6-31.61v40.882a45.885 45.885 0 0 0 8.333-3.782v-79.653a45.885 45.885 0 0 0-8.333-3.782v30.146l-31.6-31.6.927-.927h-9.723l.927.927-31.6 31.6v-32.538h-8.331v93.537zm0-129.357h9.333a11.64 11.64 0 0 0 1.61-.11l-2.61-2.605v-.476l12.81-12.81a12.488 12.488 0 0 0-2.928-4.929l-9.882 9.882v-13.667h-8.333v24.717zm8.345 385.959v-63.206l31.6 31.6-31.6 31.61zm0-79.4v-63.203l31.6 31.6-31.6 31.61zm71.065-63.208v63.208l-31.6-31.61 31.6-31.6zm0 79.4v63.208l-31.6-31.61 31.6-31.6zm-71.065-246.535l35.539-35.539 35.539 35.539v.476l-35.539 35.539-35.539-35.539v-.476zm0 238.205l35.539-35.536 35.539 35.539v.476l-35.539 35.535-35.539-35.539z" transform="translate(79.251) translate(40.169)"/></g><path d="M184.442 284.79h-56.827a4.191 4.191 0 0 0-4.185 4.185v40.077a4.191 4.191 0 0 0 4.185 4.185h56.828a4.191 4.191 0 0 0 4.185-4.185v-40.077a4.2 4.2 0 0 0-4.186-4.185z" transform="translate(27.154 62.654)" fill="#90a9d5"/><path d="M215 284.79h-56.84a4.191 4.191 0 0 0-4.185 4.185v40.077a4.191 4.191 0 0 0 4.185 4.185h56.84a4.191 4.191 0 0 0 4.185-4.185v-40.077a4.191 4.191 0 0 0-4.185-4.185z" transform="translate(33.875 62.654)" fill="#b6c7e6"/><path d="M205.969 297.91h-42.078a2.4 2.4 0 0 0-2.391 2.39v11.663a2.4 2.4 0 0 0 2.391 2.391h42.078a2.4 2.4 0 0 0 2.391-2.391v-11.663a2.4 2.4 0 0 0-2.391-2.39z" transform="translate(35.529 65.54)" fill="#90a9d5"/><path d="M186.726 300.2h-20.691a.521.521 0 0 0-.525.525v2.55a.528.528 0 0 0 .525.525h20.691a.528.528 0 0 0 .525-.525v-2.55a.537.537 0 0 0-.525-.525z" transform="translate(36.412 66.044)" fill="#e6e4eb"/><path d="M176.248 304.86h-10.223a.521.521 0 0 0-.525.525v2.55a.521.521 0 0 0 .525.525h10.224a.529.529 0 0 0 .525-.525v-2.55a.521.521 0 0 0-.526-.525z" transform="translate(36.409 67.069)" fill="#e6e4eb"/><path d="M158.254 324.51h68.1a5.03 5.03 0 0 1 5.014 5.014v48.031a5.03 5.03 0 0 1-5.014 5.014h-68.1a5.03 5.03 0 0 1-5.014-5.014v-48.031a5.03 5.03 0 0 1 5.014-5.014z" transform="translate(33.713 71.392)" fill="#90a9d5"/><path d="M121.624 324.51h68.1a5.03 5.03 0 0 1 5.014 5.014v48.031a5.03 5.03 0 0 1-5.014 5.014h-68.1a5.03 5.03 0 0 1-5.014-5.014v-48.031a5.03 5.03 0 0 1 5.014-5.014z" transform="translate(25.654 71.392)" fill="#b6c7e6"/><path d="M128.487 340.23h50.423a2.879 2.879 0 0 1 2.867 2.867v13.981a2.879 2.879 0 0 1-2.867 2.867h-50.423a2.879 2.879 0 0 1-2.867-2.867v-13.978a2.879 2.879 0 0 1 2.867-2.87z" transform="translate(27.636 74.85)" fill="#90a9d5"/><path d="M146.122 342.97h24.79a.625.625 0 0 1 .622.622v3.05a.625.625 0 0 1-.622.622h-24.79a.625.625 0 0 1-.622-.622v-3.05a.625.625 0 0 1 .622-.622z" transform="translate(32.01 75.453)" fill="#e6e4eb"/><path d="M156.412 348.55h12.249a.625.625 0 0 1 .622.622v3.05a.625.625 0 0 1-.622.622h-12.249a.625.625 0 0 1-.622-.622v-3.05a.61.61 0 0 1 .622-.622z" transform="translate(34.274 76.681)" fill="#e6e4eb"/><path d="M417.74 116.32a18.361 18.361 0 0 1 20-3.989 18.107 18.107 0 0 1 5.966 3.989 18.489 18.489 0 0 1 3.989 5.966 18.216 18.216 0 0 1 1.391 7.015 18.388 18.388 0 0 1-11.346 16.982 18.351 18.351 0 0 1-20.008-3.989 18.49 18.49 0 0 1-3.989-5.966 18.417 18.417 0 0 1 0-14.042 18.592 18.592 0 0 1 4-5.966zm6.612-2.416a16.675 16.675 0 0 0 12.748 30.817 16.712 16.712 0 0 0 9.04-21.789 16.718 16.718 0 0 0-21.789-9.028zm-2.037-13.518a27.854 27.854 0 0 0-3.379 1.208 31.145 31.145 0 0 0-3.257 1.623 30.208 30.208 0 0 0-3.062 2.025 29.15 29.15 0 0 0-2.794 2.391 1.891 1.891 0 0 1-1.1.525 1.97 1.97 0 0 1-1.2-.244c-2.7-1.562-5.539-3.1-8.174-4.721a.913.913 0 0 0-.4-.122 1.387 1.387 0 0 0-.451.037 1.107 1.107 0 0 0-.415.207.993.993 0 0 0-.293.342c-1.964 2.977-3.941 6.82-5.758 9.98a1.364 1.364 0 0 0-.146.427 1.014 1.014 0 0 0 .037.464 1.294 1.294 0 0 0 .2.415.993.993 0 0 0 .342.293c2.428 1.6 5.551 3.209 8.125 4.7a1.912 1.912 0 0 1 .817.915 1.693 1.693 0 0 1 .122.4l.171.061-.183.756c-.146.6-.281 1.2-.39 1.781s-.2 1.183-.268 1.818c-.073.61-.134 1.22-.171 1.83-.037.586-.049 1.208-.049 1.842s.012 1.257.049 1.842.1 1.22.171 1.83c.073.634.171 1.232.268 1.806.11.6.244 1.2.39 1.781a1.924 1.924 0 0 1-.988 2.172l-7.2 4.16-.854.488a1.144 1.144 0 0 0-.342.293 1.081 1.081 0 0 0-.2.415 1.52 1.52 0 0 0-.037.464 1.113 1.113 0 0 0 .146.427l5.331 9.235.427.744a1.154 1.154 0 0 0 .708.549 1.491 1.491 0 0 0 .464.037 1.113 1.113 0 0 0 .427-.146c2.574-1.623 5.49-3.16 8.137-4.7a1.9 1.9 0 0 1 1.2-.244 1.931 1.931 0 0 1 1.1.525 30.712 30.712 0 0 0 2.794 2.391 30.2 30.2 0 0 0 3.062 2.025 29.749 29.749 0 0 0 6.71 2.855 1.929 1.929 0 0 1 1.013.7 1.949 1.949 0 0 1 .39 1.159v9.394a1.279 1.279 0 0 0 .085.439 1.3 1.3 0 0 0 .256.378 1.153 1.153 0 0 0 .378.256 1.046 1.046 0 0 0 .439.085h11.517a1.278 1.278 0 0 0 .439-.085 1.153 1.153 0 0 0 .378-.256 1.3 1.3 0 0 0 .256-.378 1.046 1.046 0 0 0 .085-.439v-9.394a1.945 1.945 0 0 1 .415-1.2 1.879 1.879 0 0 1 1.061-.683 27.85 27.85 0 0 0 3.379-1.208 31.153 31.153 0 0 0 3.257-1.623 30.208 30.208 0 0 0 3.062-2.025 29.145 29.145 0 0 0 2.794-2.391 1.878 1.878 0 0 1 1.159-.525 1.925 1.925 0 0 1 1.232.3l8.04 4.636a1.364 1.364 0 0 0 .427.146 1.014 1.014 0 0 0 .464-.037 1.107 1.107 0 0 0 .415-.207.994.994 0 0 0 .293-.342c1.915-3.331 3.855-6.649 5.758-9.98a1.364 1.364 0 0 0 .146-.427 1.014 1.014 0 0 0-.037-.464 1.294 1.294 0 0 0-.2-.415.952.952 0 0 0-.329-.293l-8.137-4.7a1.912 1.912 0 0 1-.817-.915 1.478 1.478 0 0 1-.1-.3l-.207-.049.207-.866c.146-.6.281-1.2.39-1.781s.2-1.183.281-1.818c.073-.61.134-1.22.171-1.83.037-.586.049-1.208.049-1.842s-.012-1.257-.049-1.842-.1-1.208-.171-1.83-.171-1.244-.281-1.818-.244-1.183-.39-1.781a1.953 1.953 0 0 1 .122-1.269 2 2 0 0 1 .866-.9l8.052-4.648a.952.952 0 0 0 .329-.293 1 1 0 0 0 .2-.415 1.49 1.49 0 0 0 .037-.464 1.112 1.112 0 0 0-.146-.427c-1.964-2.928-3.941-6.832-5.758-9.98a1.154 1.154 0 0 0-.708-.549 1.49 1.49 0 0 0-.464-.037.941.941 0 0 0-.427.146l-8.137 4.7a1.9 1.9 0 0 1-1.22.244 1.967 1.967 0 0 1-1.1-.549 30.149 30.149 0 0 0-2.782-2.379 28.649 28.649 0 0 0-3.05-2.013 29.749 29.749 0 0 0-6.71-2.855 1.929 1.929 0 0 1-1.013-.7 1.949 1.949 0 0 1-.39-1.159v-9.39a1.279 1.279 0 0 0-.085-.439 1.3 1.3 0 0 0-.256-.378 1.153 1.153 0 0 0-.378-.256 1.046 1.046 0 0 0-.439-.085h-11.513a1.045 1.045 0 0 0-.439.085 1.18 1.18 0 0 0-.72 1.074v9.399a1.945 1.945 0 0 1-.415 1.2 1.8 1.8 0 0 1-1.062.7zm-4.05-.354a31.53 31.53 0 0 0-6.673 3.867 33.975 33.975 0 0 0-2.952 2.525.271.271 0 0 1-.134.061.309.309 0 0 1-.146-.024c-2.733-1.574-5.478-3.148-8.211-4.734a2.849 2.849 0 0 0-2.1-.232 3.054 3.054 0 0 0-1 .488 2.577 2.577 0 0 0-.732.842c-1.989 3.209-3.867 6.686-5.758 9.967a2.8 2.8 0 0 0-.354 1.061 2.9 2.9 0 0 0 .073 1.122 2.665 2.665 0 0 0 .5 1 2.576 2.576 0 0 0 .842.732c2.611 1.61 5.453 3.148 8.125 4.7a.215.215 0 0 1 .1.11.2.2 0 0 1 .012.146l-.183.756h.012c-.085.366-.159.744-.232 1.122-.122.647-.22 1.293-.293 1.915s-.134 1.269-.171 1.928-.061 1.318-.061 1.952.024 1.281.061 1.94.1 1.305.171 1.928.171 1.269.293 1.915.256 1.281.4 1.891a.2.2 0 0 1-.012.146.288.288 0 0 1-.1.11c-2.989 1.6-6.027 3.477-8.979 5.185l.11.134-.085.11a2.728 2.728 0 0 0-.488 1 2.867 2.867 0 0 0-.073 1.122 2.8 2.8 0 0 0 .354 1.061l6.185 10.724.11-.073a1.232 1.232 0 0 0 .2.159 2.966 2.966 0 0 0 1 .5 2.821 2.821 0 0 0 1.11.073 2.966 2.966 0 0 0 1.037-.342c2.708-1.44 5.49-3.172 8.174-4.721a.241.241 0 0 1 .134-.024.2.2 0 0 1 .134.061 28.939 28.939 0 0 0 2.952 2.513 32.193 32.193 0 0 0 3.233 2.135 31.511 31.511 0 0 0 7.113 3.026.279.279 0 0 1 .122.085.184.184 0 0 1 .049.134v9.394a2.8 2.8 0 0 0 .22 1.1 2.881 2.881 0 0 0 .622.927 2.819 2.819 0 0 0 .927.622 2.758 2.758 0 0 0 1.1.22h11.517a2.859 2.859 0 0 0 2.025-.842 2.882 2.882 0 0 0 .622-.927 2.758 2.758 0 0 0 .22-1.1v-9.392a.2.2 0 0 1 .049-.146.208.208 0 0 1 .122-.073l.037-.012a33.394 33.394 0 0 0 3.623-1.281 31.536 31.536 0 0 0 6.673-3.867 32.252 32.252 0 0 0 2.952-2.525.2.2 0 0 1 .134-.061.325.325 0 0 1 .146.037l8.125 4.7a2.9 2.9 0 0 0 2.172.281 2.859 2.859 0 0 0 1-.5 2.919 2.919 0 0 0 .72-.817c2.135-3.44 4.16-7.2 6.2-10.724l-.11-.061a2.068 2.068 0 0 0 .049-.268 2.822 2.822 0 0 0-.073-1.11 2.857 2.857 0 0 0-.5-1 2.662 2.662 0 0 0-.83-.732l-8.137-4.7a.287.287 0 0 1-.1-.11.2.2 0 0 1-.012-.146l.207-.854h-.012c.073-.329.146-.671.207-1.025.122-.647.22-1.293.293-1.915s.134-1.269.171-1.928.061-1.318.061-1.94-.024-1.281-.061-1.94-.1-1.305-.171-1.928-.171-1.257-.293-1.915-.256-1.269-.4-1.879a.3.3 0 0 1 .012-.146.288.288 0 0 1 .1-.11l8.125-4.685a2.845 2.845 0 0 0 .83-.732 2.967 2.967 0 0 0 .5-1 2.821 2.821 0 0 0 .073-1.11 2.965 2.965 0 0 0-.342-1.037c-1.94-3.587-4.16-7.2-6.2-10.748l-.11.073a1.231 1.231 0 0 0-.2-.159 2.728 2.728 0 0 0-1-.488 2.9 2.9 0 0 0-2.172.281l-.6.342v.012l-7.54 4.355a.21.21 0 0 1-.146.024.271.271 0 0 1-.134-.061l-.024-.024a32.242 32.242 0 0 0-2.94-2.513 32.132 32.132 0 0 0-6.673-3.867 31.56 31.56 0 0 0-3.648-1.293.279.279 0 0 1-.122-.085.183.183 0 0 1-.049-.134v-9.399a2.8 2.8 0 0 0-.22-1.1 2.882 2.882 0 0 0-.622-.927 2.819 2.819 0 0 0-.927-.622 2.758 2.758 0 0 0-1.1-.22h-11.513a2.758 2.758 0 0 0-1.1.22 2.819 2.819 0 0 0-.927.622 2.89 2.89 0 0 0-.842 2.025v9.394a.234.234 0 0 1-.049.146.207.207 0 0 1-.122.073l-.037.012a21.337 21.337 0 0 0-3.646 1.223z" transform="translate(85.84 18.99)" fill="#bfcce8"/><path d="M27.56 191.8a18.623 18.623 0 0 1 5.966-3.989 18.351 18.351 0 0 1 20.008 3.989 18.623 18.623 0 0 1 3.989 5.966 18.34 18.34 0 0 1-3.989 20 18.491 18.491 0 0 1-5.966 3.989 18.351 18.351 0 0 1-20.008-3.989 18.491 18.491 0 0 1-3.989-5.966 18.417 18.417 0 0 1 0-14.042 18.441 18.441 0 0 1 3.989-5.958zm6.612-2.416a16.675 16.675 0 0 0 12.749 30.816 16.712 16.712 0 0 0 9.04-21.789 16.718 16.718 0 0 0-21.789-9.028zm-2.037-13.518a27.856 27.856 0 0 0-3.379 1.208 29.813 29.813 0 0 0-3.245 1.623 30.206 30.206 0 0 0-3.062 2.025 29.143 29.143 0 0 0-2.794 2.391 1.891 1.891 0 0 1-1.1.525 1.97 1.97 0 0 1-1.2-.244c-2.7-1.562-5.539-3.1-8.174-4.721a.914.914 0 0 0-.4-.122 1.387 1.387 0 0 0-.451.037 1.107 1.107 0 0 0-.415.207.993.993 0 0 0-.293.342c-1.964 2.977-3.941 6.82-5.758 9.98a1.364 1.364 0 0 0-.146.427 1.014 1.014 0 0 0 .037.464 1.107 1.107 0 0 0 .207.415.994.994 0 0 0 .342.293c2.428 1.6 5.551 3.209 8.125 4.7a1.828 1.828 0 0 1 .805.915 1.69 1.69 0 0 1 .122.4l.171.061-.183.756c-.146.6-.281 1.2-.39 1.781s-.2 1.183-.268 1.818c-.073.61-.134 1.22-.171 1.83-.037.586-.049 1.208-.049 1.842s.024 1.257.049 1.842.1 1.208.171 1.83.171 1.232.281 1.806c.11.6.244 1.2.39 1.781a1.924 1.924 0 0 1-.988 2.172l-7.2 4.16-.854.488a1.143 1.143 0 0 0-.342.293 1.081 1.081 0 0 0-.2.415 1.52 1.52 0 0 0-.037.464 1.113 1.113 0 0 0 .146.427l5.331 9.223.427.744a1.154 1.154 0 0 0 .708.549 1.491 1.491 0 0 0 .464.037 1.113 1.113 0 0 0 .427-.146c2.574-1.623 5.49-3.16 8.15-4.7a1.9 1.9 0 0 1 2.281.281 30.722 30.722 0 0 0 2.794 2.391 30.211 30.211 0 0 0 3.062 2.025 29.748 29.748 0 0 0 6.71 2.855 1.929 1.929 0 0 1 1.013.7 1.949 1.949 0 0 1 .39 1.159v9.385a1.279 1.279 0 0 0 .085.439 1.3 1.3 0 0 0 .256.378 1.153 1.153 0 0 0 .378.256 1.279 1.279 0 0 0 .439.085h11.526a1.278 1.278 0 0 0 .439-.085 1.153 1.153 0 0 0 .378-.256 1.3 1.3 0 0 0 .256-.378 1.046 1.046 0 0 0 .085-.439v-9.394a1.945 1.945 0 0 1 .415-1.2 1.88 1.88 0 0 1 1.061-.683 27.856 27.856 0 0 0 3.379-1.208 31.148 31.148 0 0 0 3.264-1.615 30.212 30.212 0 0 0 3.062-2.025 29.146 29.146 0 0 0 2.794-2.391 1.878 1.878 0 0 1 1.159-.525 1.925 1.925 0 0 1 1.232.3l8.04 4.636a1.365 1.365 0 0 0 .427.146 1.014 1.014 0 0 0 .464-.037 1.107 1.107 0 0 0 .415-.207.993.993 0 0 0 .293-.342c1.915-3.331 3.855-6.649 5.758-9.98a1.365 1.365 0 0 0 .146-.427 1.014 1.014 0 0 0-.037-.464 1.294 1.294 0 0 0-.2-.415.953.953 0 0 0-.329-.293l-8.137-4.7a1.828 1.828 0 0 1-.805-.915 1.474 1.474 0 0 1-.1-.305l-.207-.049.207-.866c.146-.6.281-1.2.39-1.781s.2-1.183.281-1.818c.073-.61.134-1.22.171-1.83.037-.586.049-1.208.049-1.842s-.024-1.257-.049-1.842-.1-1.208-.171-1.83-.171-1.244-.281-1.818-.232-1.183-.39-1.781a1.877 1.877 0 0 1 .122-1.269 2 2 0 0 1 .866-.9l8.052-4.648a1.317 1.317 0 0 0 .342-.293 1.184 1.184 0 0 0 .2-.415 1.491 1.491 0 0 0 .037-.464 1.113 1.113 0 0 0-.146-.427c-1.964-2.928-3.941-6.832-5.758-9.98a1.154 1.154 0 0 0-.708-.549 1.52 1.52 0 0 0-.464-.037.941.941 0 0 0-.427.146l-8.137 4.7a1.925 1.925 0 0 1-2.318-.293 30.157 30.157 0 0 0-2.782-2.379 28.639 28.639 0 0 0-3.05-2.013 29.748 29.748 0 0 0-6.71-2.855 1.929 1.929 0 0 1-1.013-.7 1.949 1.949 0 0 1-.39-1.159v-9.394a1.279 1.279 0 0 0-.085-.439 1.3 1.3 0 0 0-.256-.378 1.153 1.153 0 0 0-.378-.256 1.046 1.046 0 0 0-.439-.085h-11.521a1.278 1.278 0 0 0-.439.085 1.18 1.18 0 0 0-.72 1.074v9.394a1.945 1.945 0 0 1-.415 1.2 2.081 2.081 0 0 1-1.11.7zm-4.05-.354a31.532 31.532 0 0 0-6.673 3.867 32.249 32.249 0 0 0-2.952 2.525.271.271 0 0 1-.134.061.309.309 0 0 1-.146-.024c-2.733-1.574-5.478-3.148-8.211-4.734a2.849 2.849 0 0 0-2.1-.232 3.054 3.054 0 0 0-1 .488 2.576 2.576 0 0 0-.732.842c-1.989 3.209-3.867 6.686-5.758 9.967a2.8 2.8 0 0 0-.354 1.061 2.9 2.9 0 0 0 .075 1.123 2.858 2.858 0 0 0 .5 1 2.576 2.576 0 0 0 .842.732c2.611 1.61 5.453 3.148 8.137 4.7a.288.288 0 0 1 .1.11.2.2 0 0 1 .012.146l-.191.756h.012c-.085.366-.159.744-.232 1.122-.122.647-.22 1.293-.293 1.915s-.134 1.269-.171 1.928-.061 1.318-.061 1.952.024 1.281.061 1.94.1 1.305.171 1.928.171 1.269.293 1.915.256 1.269.4 1.891a.2.2 0 0 1-.012.146.288.288 0 0 1-.1.11c-2.989 1.6-6.027 3.477-8.979 5.185l.11.134-.085.11a2.728 2.728 0 0 0-.488 1 2.867 2.867 0 0 0-.065 1.124 2.8 2.8 0 0 0 .354 1.061l6.185 10.721.11-.073a1.233 1.233 0 0 0 .2.159 2.727 2.727 0 0 0 1 .488 2.821 2.821 0 0 0 1.11.073 2.966 2.966 0 0 0 1.037-.342c2.708-1.44 5.49-3.172 8.174-4.721a.241.241 0 0 1 .134-.024.2.2 0 0 1 .134.061 28.935 28.935 0 0 0 2.952 2.513 32.186 32.186 0 0 0 3.233 2.135 31.512 31.512 0 0 0 7.113 3.026.279.279 0 0 1 .122.085.2.2 0 0 1 .049.134v9.394a2.8 2.8 0 0 0 .22 1.1 2.882 2.882 0 0 0 .622.927 2.819 2.819 0 0 0 .927.622 2.758 2.758 0 0 0 1.1.22h11.511a2.859 2.859 0 0 0 2.025-.842 2.882 2.882 0 0 0 .622-.927 2.758 2.758 0 0 0 .22-1.1v-9.39a.194.194 0 0 1 .049-.146.208.208 0 0 1 .122-.073l.037-.012a34.334 34.334 0 0 0 3.623-1.281 30.162 30.162 0 0 0 3.44-1.72 31.314 31.314 0 0 0 6.185-4.66.2.2 0 0 1 .134-.061.325.325 0 0 1 .146.037l8.137 4.7a2.9 2.9 0 0 0 2.172.281 3.054 3.054 0 0 0 1-.488 2.739 2.739 0 0 0 .72-.817c2.135-3.44 4.16-7.2 6.2-10.724l-.11-.061a2.069 2.069 0 0 0 .049-.268 2.821 2.821 0 0 0-.073-1.11 2.859 2.859 0 0 0-.5-1 2.577 2.577 0 0 0-.842-.732l-8.137-4.7a.288.288 0 0 1-.1-.11.2.2 0 0 1-.012-.146l.207-.854h-.012c.073-.329.146-.671.207-1.025.122-.647.22-1.293.293-1.915s.134-1.269.171-1.928.061-1.318.061-1.94-.024-1.281-.061-1.94-.1-1.305-.171-1.928-.171-1.257-.293-1.915-.256-1.269-.4-1.879a.3.3 0 0 1 .012-.146.288.288 0 0 1 .1-.11l8.125-4.685a2.844 2.844 0 0 0 .83-.732 2.728 2.728 0 0 0 .488-1 2.821 2.821 0 0 0 .073-1.11 2.966 2.966 0 0 0-.342-1.037c-1.94-3.587-4.16-7.2-6.2-10.748l-.11.073a1.231 1.231 0 0 0-.2-.159 2.727 2.727 0 0 0-1-.488 2.9 2.9 0 0 0-2.172.281l-.6.342v.012l-7.54 4.355a.21.21 0 0 1-.146.024.271.271 0 0 1-.134-.061l-.024-.024a32.243 32.243 0 0 0-2.94-2.513 32.131 32.131 0 0 0-6.673-3.867 31.556 31.556 0 0 0-3.648-1.293.279.279 0 0 1-.122-.085.184.184 0 0 1-.049-.134v-9.394a2.8 2.8 0 0 0-.22-1.1 2.882 2.882 0 0 0-.622-.927 2.819 2.819 0 0 0-.927-.622 2.758 2.758 0 0 0-1.1-.22h-11.509a2.859 2.859 0 0 0-2.025.842 2.839 2.839 0 0 0-.842 2.025v9.394a.347.347 0 0 1-.049.146.207.207 0 0 1-.122.073l-.037.012a21.314 21.314 0 0 0-3.648 1.202z" transform="translate(0 35.598)" fill="#bfcce8"/><path d="M82.642 236.04zm4.05-15.433a7.805 7.805 0 1 1-2.281 5.514 7.752 7.752 0 0 1 2.281-5.514zm1.684-7.723a13.836 13.836 0 0 0-5.734 3.331.5.5 0 0 1-.573.073l-3.624-2.088-.024-.012a.888.888 0 0 0-.659-.073.931.931 0 0 0-.549.415l-.012.024-2.55 4.416a.9.9 0 0 0-.085.683.931.931 0 0 0 .415.549l.024.012 3.6 2.074a.491.491 0 0 1 .232.525 14.528 14.528 0 0 0-.305 1.647 14.57 14.57 0 0 0 0 3.367 14.527 14.527 0 0 0 .305 1.647.5.5 0 0 1-.256.549l-3.588 2.077a.915.915 0 0 0-.329 1.232l2.562 4.441a.915.915 0 0 0 1.232.329l.024-.012 3.6-2.074a.481.481 0 0 1 .573.073 13.721 13.721 0 0 0 5.758 3.331.494.494 0 0 1 .354.464v4.172a.866.866 0 0 0 .268.634.915.915 0 0 0 .634.268h5.124a.866.866 0 0 0 .634-.268.915.915 0 0 0 .268-.634v-4.172a.473.473 0 0 1 .366-.464 13.836 13.836 0 0 0 5.734-3.331.478.478 0 0 1 .6-.049l3.6 2.074a.9.9 0 0 0 .683.085.931.931 0 0 0 .549-.415l.012-.024 2.55-4.416a.9.9 0 0 0 .085-.683.931.931 0 0 0-.415-.549l-3.623-2.086a.466.466 0 0 1-.22-.525 14.528 14.528 0 0 0 .305-1.647 14.57 14.57 0 0 0 0-3.367 14.527 14.527 0 0 0-.305-1.647.476.476 0 0 1 .256-.537l3.6-2.074a.915.915 0 0 0 .328-1.229l-.012-.024-2.55-4.416a.915.915 0 0 0-1.232-.329l-3.623 2.086a.482.482 0 0 1-.586-.085 13.947 13.947 0 0 0-2.672-2.013 13.473 13.473 0 0 0-3.074-1.305.494.494 0 0 1-.354-.464v-4.172a.866.866 0 0 0-.268-.634.915.915 0 0 0-.634-.268h-5.126a.866.866 0 0 0-.634.268.915.915 0 0 0-.268.634v4.172a.535.535 0 0 1-.391.434z" transform="translate(16.397 45.621)" fill="#bfcce8"/><path d="M219.884 124.182a1.342 1.342 0 0 0-2.684 0v3.148h-3.148a1.342 1.342 0 1 0 0 2.684h3.148v3.148a1.342 1.342 0 1 0 2.684 0v-3.148h3.148a1.342 1.342 0 1 0 0-2.684h-3.148z" transform="translate(46.796 27.025)" fill="#bfcce8"/><path d="M287.332 57.883zm4.05-15.433a7.805 7.805 0 1 1-2.281 5.514 7.752 7.752 0 0 1 2.281-5.514zm1.684-7.723a13.846 13.846 0 0 0-3.05 1.305 13.6 13.6 0 0 0-2.684 2.025.5.5 0 0 1-.573.073l-3.623-2.086-.024-.012a.888.888 0 0 0-.659-.073.931.931 0 0 0-.549.415l-.012.024-2.55 4.416a.9.9 0 0 0-.085.683.931.931 0 0 0 .415.549l.024.012 3.6 2.074a.466.466 0 0 1 .22.525 14.534 14.534 0 0 0-.3 1.647 14.571 14.571 0 0 0 0 3.367 14.534 14.534 0 0 0 .3 1.647.476.476 0 0 1-.256.537l-3.587 2.074a.915.915 0 0 0-.329 1.232l2.556 4.439a.915.915 0 0 0 1.232.329l.024-.012 3.6-2.074a.481.481 0 0 1 .573.073 14.089 14.089 0 0 0 2.684 2.025 13.475 13.475 0 0 0 3.074 1.305.494.494 0 0 1 .354.464v4.19a.865.865 0 0 0 .268.634.915.915 0 0 0 .634.268h5.124a.865.865 0 0 0 .634-.268.915.915 0 0 0 .268-.634v-4.235a.473.473 0 0 1 .366-.464 13.064 13.064 0 0 0 3.05-1.305 13.6 13.6 0 0 0 2.684-2.025.479.479 0 0 1 .6-.049l3.6 2.074a.9.9 0 0 0 .683.085.931.931 0 0 0 .549-.415l.012-.024 2.55-4.416a.9.9 0 0 0 .085-.683.932.932 0 0 0-.415-.549l-3.623-2.086a.491.491 0 0 1-.232-.525 14.534 14.534 0 0 0 .305-1.647 12.743 12.743 0 0 0 .1-1.684 15.231 15.231 0 0 0-.1-1.684 14.534 14.534 0 0 0-.305-1.647.5.5 0 0 1 .256-.549l3.6-2.074a.915.915 0 0 0 .329-1.232l-.012-.024-2.55-4.416a.915.915 0 0 0-1.23-.326l-3.623 2.086a.5.5 0 0 1-.586-.073 13.947 13.947 0 0 0-2.672-2.013 13.474 13.474 0 0 0-3.074-1.305.494.494 0 0 1-.354-.464v-4.188a.865.865 0 0 0-.268-.634.915.915 0 0 0-.634-.268h-5.124a.865.865 0 0 0-.634.268.915.915 0 0 0-.268.634v4.185a.5.5 0 0 1-.368.5z" transform="translate(61.429 6.411)" fill="#bfcce8"/><path d="M646.574 24.062a1.342 1.342 0 1 0-2.684 0v3.148h-3.148a1.342 1.342 0 0 0 0 2.684h3.148v3.148a1.342 1.342 0 1 0 2.684 0v-3.148h3.148a1.342 1.342 0 0 0 0-2.684h-3.148z" transform="translate(140.668 4.998)" fill="#bfcce8"/><path d="M7.711 309.982a1.342 1.342 0 0 0-2.684 0v3.148h-3.135a1.342 1.342 0 1 0 0 2.684h3.148v3.148a1.342 1.342 0 1 0 2.684 0v-3.148h3.135a1.342 1.342 0 1 0 0-2.684h-3.148z" transform="translate(.121 67.901)" fill="#bfcce8"/><path d="M357.292 115.844zm4.05-15.433a7.805 7.805 0 1 1-2.281 5.514 7.752 7.752 0 0 1 2.281-5.514zm1.684-7.723a13.836 13.836 0 0 0-5.734 3.331.5.5 0 0 1-.573.073l-3.619-2.086-.024-.012a.888.888 0 0 0-.659-.073.931.931 0 0 0-.549.415l-.012.024-2.55 4.416a.9.9 0 0 0-.085.683.931.931 0 0 0 .415.549l.024.012 3.6 2.074a.483.483 0 0 1 .22.525 14.528 14.528 0 0 0-.3 1.647 14.571 14.571 0 0 0 0 3.367 14.527 14.527 0 0 0 .3 1.647.476.476 0 0 1-.256.537l-3.587 2.074a.931.931 0 0 0-.415.549.9.9 0 0 0 .085.683l2.562 4.441a.915.915 0 0 0 1.232.329l.024-.012 3.6-2.074a.481.481 0 0 1 .573.073 14.089 14.089 0 0 0 2.684 2.025 13.475 13.475 0 0 0 3.074 1.305.51.51 0 0 1 .354.464v4.185a.866.866 0 0 0 .268.634.915.915 0 0 0 .634.268h5.124a.865.865 0 0 0 .634-.268.915.915 0 0 0 .268-.634v-4.185a.473.473 0 0 1 .366-.464 13.066 13.066 0 0 0 3.05-1.305 13.6 13.6 0 0 0 2.684-2.025.479.479 0 0 1 .6-.049l3.6 2.074a.9.9 0 0 0 .683.085.931.931 0 0 0 .549-.415l.012-.024 2.55-4.416a.9.9 0 0 0 .085-.683.931.931 0 0 0-.415-.549l-3.623-2.086a.483.483 0 0 1-.22-.525 14.534 14.534 0 0 0 .305-1.647 14.575 14.575 0 0 0 0-3.367 14.534 14.534 0 0 0-.305-1.647.484.484 0 0 1 .256-.549l3.587-2.074a.915.915 0 0 0 .329-1.232l-.012-.024-2.55-4.416a.931.931 0 0 0-.549-.415.9.9 0 0 0-.683.085l-3.623 2.086a.5.5 0 0 1-.586-.073 13.948 13.948 0 0 0-2.672-2.013 13.474 13.474 0 0 0-3.074-1.305.494.494 0 0 1-.354-.464v-4.184a.865.865 0 0 0-.268-.634.915.915 0 0 0-.634-.268h-5.124a.865.865 0 0 0-.634.268.915.915 0 0 0-.268.634v4.185a.48.48 0 0 1-.374.451z" transform="translate(76.82 19.173)" fill="#bfcce8"/><path d="M317.244 94.582a1.342 1.342 0 0 0-2.684 0v3.148h-3.148a1.342 1.342 0 0 0 0 2.684h3.148v3.148a1.342 1.342 0 0 0 2.684 0v-3.148h3.148a1.342 1.342 0 1 0 0-2.684h-3.148z" transform="translate(68.215 20.513)" fill="#bfcce8"/><path d="M321.7 215.952a1.342 1.342 0 1 0-2.684 0v3.148h-3.148a1.342 1.342 0 0 0 0 2.684h3.148v3.148a1.342 1.342 0 0 0 2.684 0v-3.148h3.148a1.342 1.342 0 0 0 0-2.684h-3.148z" transform="translate(69.197 47.214)" fill="#bfcce8"/><path d="M225.654 161.592a1.342 1.342 0 1 0-2.684 0v3.148h-3.148a1.342 1.342 0 0 0 0 2.684h3.148v3.148a1.342 1.342 0 1 0 2.684 0v-3.148h3.146a1.342 1.342 0 0 0 0-2.684h-3.148z" transform="translate(48.066 35.255)" fill="#bfcce8"/><path d="M589.984 155.112a1.342 1.342 0 1 0-2.684 0v3.148h-3.148a1.342 1.342 0 0 0 0 2.684h3.148v3.148a1.342 1.342 0 1 0 2.684 0v-3.148h3.148a1.342 1.342 0 0 0 0-2.684h-3.148z" transform="translate(128.218 33.829)" fill="#bfcce8"/></g><g fill-rule="evenodd"><path d="M429.179 235.71a34.657 34.657 0 0 1 14.25 10.272c3.55 4.319 47.031 87.6 49.825 93.025s2.782 19.13-3.806 27.56c-2.562 3.282-9.906 12.444-17.946 22.436h-26.048c9.455-14.189 21.8-32.745 22.692-34.245 1.452-2.44 2.172-4.807-.464-8.93l-37.442-46.555s-17.116-47.825-1.061-63.563z" transform="translate(92.908 51.856)" fill="#0f1630" stroke="#0e1632" stroke-miterlimit="22.926" stroke-width=".216"/><path d="M476.362 280.868s43.835 6.234 45.726 6.7 5.087 4.88 6.808 7.857 3.745 45.762 4.734 57.743-2.879 64.209-1.732 78.239c.2 2.33.549 5.6 1.013 9.455h-131.131c-1.684-15.518-13.371-64.05-14.335-75.713-.976-11.98-5.954-54.534-4.734-57.743s3.66-8.089 5.441-8.857l44.542-14.091 21.911 2.416z" fill="#cec9d0"/><path d="M399.594 230.22l7.247 1.037a6.283 6.283 0 0 1-1.5 2.977c-17.031 19.52-34.441 20.947-54.424 4.465a6.382 6.382 0 0 1-1.976-2.708c4.185-1.305 6.991-2.184 6.991-2.184l21.911 2.416z" transform="translate(76.767 50.648)" fill="#fff"/><path d="M468.688 238.644l.378 10.919s1.83 22.265 2.1 25.657c.134 1.635 2.025 3.855 5.185 5.661-14.335 16.421-26.84 17.446-43.664 3.575 2.83-2.294 4.331-4.795 4.2-6.429-.281-3.379-2.1-25.657-2.1-25.657l-1.4-10.834s8.8.683 17.922 1.928c8.803-2.709 17.379-4.82 17.379-4.82z" fill="#e8685b"/><path d="M479.985 281.381s-5.063 21.911-5.441 26.364-6.332 49.337-5.71 56.925c.281 3.453 7.137 38.515 14.6 76.189h59.731c-1.464-9.187-2.721-17.092-3.4-21.57-2.428-16.067-4.05-49.471-3.526-70.1s-4.6-51.594-5.209-54.534-6.466-6.612-8.284-7.3z" fill="#0f1630"/><path d="M473.434 317.115c-1.793 14.786-5.087 41.809-4.612 47.543 0 0 29.048-31.622 28.609-34.746l-12.261-26.389s-5.075 5.857-11.736 13.592z" fill="#3d4155"/><path d="M478.521 281.173s1.281-1.147 1.745-1.183l8.345 2.635s11.492 18.08 11.688 20.386l-28.232 25.559 2.525-21.265s4.124-20.789 5.392-25.913z" fill="#545a6c"/><path d="M327.058 244.67a34.712 34.712 0 0 0-12.383 12.456c-2.806 4.831-32.135 94.086-34.014 99.894s.366 19.325 8.235 26.584c.854.781 2.147 1.964 3.782 3.44h32.5c-8.613-9.235-16.409-17.617-17.19-18.556-1.83-2.172-2.928-4.392-.988-8.894l29.365-52.033s9.091-49.971-9.307-62.891z" transform="translate(61.61 53.827)" fill="#0f1630"/><path d="M429.209 285.541s8.564 20.789 9.662 25.12 14.274 47.641 14.9 55.229c.281 3.367-.732 37.576-1.928 74.957h-59.088c-.024-3.9-.049-7.174-.085-9.516-.22-16.25-4.05-49.471-7.942-69.747s-3.867-51.655-3.733-54.644 5.307-7.576 6.978-8.54z" fill="#0f1630"/><path d="M441.482 319.737c4.185 14.3 11.822 40.431 12.3 46.165 0 0-33.806-26.474-33.879-29.622l7.8-28.023s5.947 4.93 13.779 11.48z" fill="#3d4155"/><path d="M356.195 233.851a6.415 6.415 0 0 0-1.915-.891c-.464.037-7.808 3.953-7.808 3.953s-8.406 19.7-8.211 22.009l32.013 20.63-5.954-20.569s-7.454-19.837-9.54-24.693z" transform="translate(74.417 51.251)" fill="#545a6c"/><g fill="#e8685b"><path d="M341.025 201.065c-.22.049-.439.11-.647.171a9.02 9.02 0 1 0 7.649 1.122c.476 2.635.354 5.954-3 6.588l-.378-5.185a3.093 3.093 0 0 0-3.624-2.696z" transform="translate(73.483 44.228)"/><path d="M394.573 196.21c.22.012.451.024.671.049h.012a9.023 9.023 0 1 1-7.332 2.489c.012 2.672.732 5.917 4.148 5.929l-.572-5.177a3.1 3.1 0 0 1 3.073-3.29z" transform="translate(84.741 43.166)"/></g><path d="M368.031 161.893a30.955 30.955 0 0 0-27.938 33.55l2.55 27.962a30.955 30.955 0 0 0 33.55 27.938 30.955 30.955 0 0 0 27.938-33.55l-2.55-27.962a30.962 30.962 0 0 0-33.55-27.938z" transform="translate(341.651 184.789) translate(-266.858 -149.201)" fill="#f4ad85"/><path d="M341.986 178.83a30.554 30.554 0 0 0-1.9 13.762l2.55 27.962a31 31 0 0 0 30.622 28.072c-17.873-1.379-21.179-22.5-22.546-33.623s2.806-13.615 4.453-14.164 27.609-4.856 33.355-5.527l8.638 2.525 2.416-3.514-2.318-7.515s1.976.061 4.319.012a30.206 30.206 0 0 0-1.135-5.807 49.223 49.223 0 0 1-10.138-4.575c-6.844-4.416-39.54 1.11-44.847 1.11a7.786 7.786 0 0 0-3.469 1.282z" transform="translate(341.651 184.789) translate(-266.86 -146.349)" fill="#ed9072"/><path d="M474.459 240.255s.183 2.05.366 3.965 2.135 3.88 3.6 3.745l-.39-4.331s.329-3.245 4.27-3.611c10.834-15.018 7.222-36.954-6.747-47.226s-41.773-8.479-46.47-6.417l-8.943 10.736s-4.453-3.294-8.089-1.037-14.213 27.5-13.664 33.513l13.286 16.885c3.941-.354 4.856 2.782 4.856 2.782l.39 4.331c1.464-.134 3.038-2.428 2.867-4.331l-.366-3.965.4-.232c3.733-2.428 2.989-9.821 2.989-9.821l-3.44-4.807 6.82-8.967 7.845-2.586 17.824.683s21.021 2.611 19.178 8.735c-1.816 6.088 3.418 11.956 3.418 11.956z" fill="#0e1632"/><path d="M402.619 204.183c.22 2.355 1.793 12.871 4.538 12.627 8.174-17.226 15.726-35.209 3.55-52.85-1.427 11.358-12.749 18.288-24.071 20.667 5.99 1.305 13.749 3.758 12.6 7.576-1.854 6.112 3.379 11.98 3.379 11.98zm-75.274-15.958a17.724 17.724 0 0 0-.781 5.283c.427 4.636 15.872 27.035 19.3 32.123 1.781-.159 2.025-13.432 1.745-16.433l.4-.232c3.733-2.428 2.989-9.821 2.989-9.821l-3.44-4.807 6.82-8.967 7.491-2.464c-3.77-1.525-4.856-3.123-4.856-3.123-15.48 15.652-24.459 14.798-29.668 8.442z" transform="translate(341.651 184.789) translate(-269.811 -148.718)" fill="#010518"/><path d="M411.934 240.743s-12.932-28.036 13.078-32.83c0 0 6.881-13.591 20.679-10.187s22.436 3.318 28.621-2.782c0 0 3.55 6.673-.756 12.517 13.066 10.138 8.528 23.131 3.184 30.134-2.135-14.53-40.431 1.647-45.433-12.322-.488 13.347-14.481 10.016-19.373 15.47z" fill="#0e1632"/><path d="M338.211 202.7a40.672 40.672 0 0 1-3.111-12.212c5.026-.476 11.553-4.087 20.032-12.664 0 0 3.465 5.087 19.435 5.746 9.711.4 22.045-3.2 29-10.675 8.32 9.479 4.209 20.435-.549 26.669-2.135-14.53-40.419 1.647-45.433-12.322-.485 13.34-14.485 10.009-19.374 15.458z" transform="translate(341.651 184.789) translate(-267.929 -146.751)" fill="#010518"/></g><g fill-rule="evenodd"><path d="M787.924 243.756c-5.466-20.508-24.583-9.235-32.757 8.333s-26.925 86.059-43.127 103.782c-6.283 6.869-4.355 7.454 1.415 4.1 28.804-16.687 82.009-87.984 74.469-116.215z" fill="#05304b"/><path d="M580.475 317.818c-.2.927.671.964 2.306.281 43.664-36.929 66.844-119.475 66.917-119.731a.857.857 0 1 0-1.647-.476c-.061.268-23.571 83.948-67.576 119.926z" transform="translate(127.698 43.4)" fill="#0076bd"/><path d="M739.551 254.7c-9.54-14.957-21.911-1.147-23.985 14.908s.3 75.347-8.125 93.562c-3.27 7.064-1.586 7.039 2.159 2.916 18.715-20.569 43.079-90.805 29.951-111.386z" fill="#0076bd"/><path d="M578.45 322.406c.073.781.781.6 1.915-.354 25.449-40.443 23.058-112.045 23.046-112.277a.714.714 0 1 0-1.427.037c0 .232 2.428 72.822-23.534 112.594z" transform="translate(127.259 45.998)" fill="#05304b"/><path d="M786.851 305.586c16.482 1.72 10.114 17.836-2.428 26.291s-63.1 31.256-74.8 45.921c-4.538 5.685-5.222 4.27-3.343-.586 9.36-24.254 57.867-73.993 80.571-71.626z" fill="#0076bd"/><path d="M578.781 324.918c-.683.268-.83-.4-.5-1.745 23.156-38.174 84.009-66.124 84.2-66.222a.671.671 0 0 1 .561 1.22c-.191.074-61.874 28.402-84.261 66.747z" transform="translate(127.184 56.515)" fill="#05304b"/></g><g fill-rule="evenodd"><path d="M551.379 284.98l-4.1 35.978s6.185 84.253 9.235 119.9h45.945l1.013-143.387zm24.363 31.208l-2.025 12.712 4.026 111.959h56.014c.939-7.747 1.781-14.372 2.464-19.154 4.209-29.451 5.649-70.37 5.624-80.056s-11.236-24.058-15.091-25.108l-51.012-.353z" fill="#0e1632"/><path d="M557.004 143.326s-1.915-3.562-3.428-2.891-52.228 75.286-53.948 81.716-1.013 17.8 8.808 33.6 30.817 54.571 31.561 55.4 12.212-6.942 13.444-9.113c0 0 .5-.72-.232-2.172s-25.705-60.6-27.279-64.843 42.9-56.889 45.018-61.11c2.123-4.199 10.297-26.293-13.944-30.587z" fill="#171c3a"/><path d="M597.654 121.951l-22.082 15.775s-15.762 61.683-15.811 64.489l-6.1 36.82s22.082 8.76 25.242.354 38.564-68.71 40.321-78.178-2.452-31.9-4.563-34.355l-17.007-4.905z" fill="#c9c4d1"/><path d="M478.546 108.48s-20.008 7.039-21.838 8.089-12.639 40.419-13.518 44.1 4.9 71.163 4.9 77.128-7.54 80.459-7.71 81.679a2.208 2.208 0 0 0 2.281 2.635c1.757 0 21.387-36.99 22.96-41.187l-3.526-67.661 13.347-90.8z" transform="translate(498.895 19.97) translate(-402.016 3.896)" fill="#171c3a"/><path d="M534.931 116.65s28.67 28.9 29.719 30.646-28.743 100.443-29.1 104.993 14.725 71.687 15.25 73.444a3.423 3.423 0 0 1-.439 1.757 6.441 6.441 0 0 1-2.367 2.1c-.61.439-70.723-10.87-76.335-14.372s-17.7-58.023-17.7-65.38l4.246-35.539 34.5-58.414c.002.015 24.915-37.368 42.226-39.235z" transform="translate(498.895 19.97) translate(-399.023 5.693)" fill="#1c2344"/><path d="M520.251 112.93s33.208 33.44 34.258 35.2-28.743 100.443-29.1 104.993 14.725 71.687 15.25 73.444a3.423 3.423 0 0 1-.439 1.757 6.442 6.442 0 0 1-2.367 2.1c-.317.22-18.971-2.647-37.8-5.966 16.336-23.534 15.482-62.537 14.054-64.9-1.659-2.757-10.382-8.723-9.052-9.162s10.272-.659 10.931-2.867l13.249-72.09 8.406-5.661s3.758-27.169 1.11-31.147-20.13-19.008-20.276-19.13c2.179-1.101-.249-6.351 1.776-6.571z" transform="translate(498.895 19.97) translate(-388.882 4.875)" fill="#101937"/><path d="M545.778 138.17a50.009 50.009 0 0 1 7.344 7.381c3 3.916 40.419 82.118 41.187 89.438s-1.964 19.679-15.445 35.282-43.175 54.449-44.127 55.229-12.188-9.711-13.152-12.31c0 0-.427-.866.634-2.33s38.613-61.927 41.077-66.307-37.173-69.723-38.772-74.7-6.037-31.171 21.254-31.683z" transform="translate(498.895 19.97) translate(-384.165 10.428)" fill="#383d5d"/><path d="M618.637 94.489c.207 10.931-2.635 22.216-1.915 33.16.146 2.233 1.22 2.977 3.965 4.77 3.819 5.673-6.612 23.631-13.481 24.693-.451.073-11.627-8.7-19.544-10.724-4.063-1.049-7.405 4.148-7.71 3.928-1.647-1.2 1.891-10.48.744-14.006 1.391-.378 2.635-3.489 3.623-4.392 6.417-5.917 4.319-20.679-.927-26.254-3.941-4.172 35.245-11.175 35.245-11.175z" fill="#ed9072"/><path d="M625.86 136.702c-.866 2.477-22.058 30.756-22.058 30.756s-.756 1.013-1.867-.268l-14.164-19.508 29-21.606-.659-4.965c.415-.464 10.651 13.053 9.748 15.591zm-38.857-9.187l-.11-.049c-9.906-.7-11.407 27.377-9.675 32.891.012.037 6.027-9.187 10.163-12.859 1.896-1.671-3.977-14.359-.378-19.983z" fill="#fff"/><path d="M522.734 105.44s-37.076 45.957-39.7 49.813-22.79 51.362-25.6 61.525c0 0 31.025-38.735 35.4-42.249l20.594-17.007a2.331 2.331 0 0 0 .22-1.488c-.22-.61-4.734-10.821-4.734-10.821s13.493 2.013 14.725 1.928 7.283-30.195 7.466-31.073l-8.371-10.628z" transform="translate(498.895 19.97) translate(-398.258 3.227)" fill="#383d5d"/><path d="M486.291 104.46s-9.809 2.269-11.383 3.148-14.018 21.557-14.372 23.314a1.111 1.111 0 0 0 .525 1.183 38.592 38.592 0 0 1 3.55 2.233c.256.268-4.343.793-4.343.793s-.525.2-.439 1.013l-1.659 78.007s15.3-85.351 17.568-90.975l8.357-14.506z" transform="translate(498.895 19.97) translate(-398.097 3.012)" fill="#383d5d"/><path d="M469.119 64.42a8.748 8.748 0 1 1-8.7 8.8 8.755 8.755 0 0 1 8.7-8.8z" transform="translate(498.895 19.97) translate(-397.602 -5.797)" fill="#e8685b"/><path d="M516.951 64.15a8.748 8.748 0 1 1-8.711 8.8 8.737 8.737 0 0 1 8.711-8.8z" transform="translate(498.895 19.97) translate(-387.082 -5.857)" fill="#e8685b"/><path d="M596.568 33.66c16.47-.1 30.024 14.518 30.11 32.476l.146 29.683c.085 17.958-13.31 32.733-29.78 32.842-16.47.1-30.024-14.518-30.11-32.476l-.146-29.683c-.085-17.97 13.31-32.744 29.78-32.842z" fill="#f4ad85"/><path d="M523.309 49.669a35.532 35.532 0 0 1 1.171 8.821l.146 29.683c.085 16.519-11.236 30.341-25.864 32.537-1.44.146-2.355.244-2.562.256h-.012c16.36-1.622 19.812-23.107 19.812-29.585v-16.824c0-15.896-8.8-17.557-14.81-17.557h-29.866a5.835 5.835 0 0 0-5.246 3.55l-1.488-1.135v-.573a33.955 33.955 0 0 1 9.662-24.142c14.994 2.928 39.931 7.906 41.651 8.991.915.586 3.965 3.087 7.406 5.978z" transform="translate(498.895 19.97) translate(-396.685 -12.336)" fill="#ed9072"/><path d="M562.713 57.572l5.38 5.4s2.574-10.041 24.266-6.942-20-20.154-24.717-17.617-8.845 9.997-4.929 19.159z" fill="#01020e"/><path d="M619.055 58.06s-21.35 2.342-32.208-4.551-20.057-10.089-22.838-6.344c-2.647 3.55 7.979 13.152 3.709 29.475-.232.891-.793 15.982-1.122 16.909-.1-5.9-2-21.008-3.953-24.778-5.847-11.27-14.988-19.751-3.114-36.67 7.283-10.382 19.666-15.25 25.413-9.992 18.739 17.117 44.53-5.124 44.689 23.241 0 0 13.9 4.673.976 33.111-2.928.012-3.831 2.233-3.819 4.1l.11 15.177c-10.432-.016-10.652-27.368-7.843-39.678z" fill="#0e1632"/></g><g fill-rule="evenodd"><path d="M500.837 372.75h60.4a5.327 5.327 0 0 0 5.307-5.307v-103.843a5.327 5.327 0 0 0-5.307-5.307h-60.4a5.327 5.327 0 0 0-5.307 5.307v103.843a5.327 5.327 0 0 0 5.307 5.307z" transform="translate(109.017 56.824)" fill="#e2e1e7"/><path d="M551.285 372.75h48.861a4.483 4.483 0 0 0 4.465-4.465v-105.53a4.483 4.483 0 0 0-4.465-4.465h-48.861a4.483 4.483 0 0 0-4.465 4.465v105.53a4.483 4.483 0 0 0 4.465 4.465z" transform="translate(120.301 56.824)" fill="#fff"/><path d="M592.457 358.582h62.574c0-11.212 12.09-12.456 12.09-12.456h-62.574s-12.09 1.232-12.09 12.456z" fill="#fff"/><path d="M496.161 337.01h64.758a3.509 3.509 0 0 1 3.5 3.5v22.716a3.509 3.509 0 0 1-3.5 3.5h-64.758a3.509 3.509 0 0 1-3.5-3.5v-22.715a3.517 3.517 0 0 1 3.5-3.501z" transform="translate(108.386 74.142)" fill="#b92f6d"/><path d="M547.569 337.01h14.225c.317 0 3.782.134 5.722 4.368 2.037 4.441 1.818 8.882 7.869 8.882h2.6c6.039 0 5.868-4.551 7.869-8.882s5.4-4.368 5.734-4.368h13.492a3.509 3.509 0 0 1 3.5 3.5v22.716a3.509 3.509 0 0 1-3.5 3.5h-57.5a3.509 3.509 0 0 1-3.5-3.5v-22.715a3.5 3.5 0 0 1 3.489-3.501z" transform="translate(119.698 74.142)" fill="#e74d91"/><path d="M592.457 397.793h62.574c0-11.212 12.09-12.456 12.09-12.456h-62.574s-12.09 1.244-12.09 12.456z" fill="#fff"/><path d="M735.087 379.091h-56.913c0-11.212-11.065-12.456-11.065-12.456h56.9c.025.012 11.078 1.244 11.078 12.456z" fill="#acabbb"/><path d="M554.585 268.48h43.627a1.932 1.932 0 0 1 1.928 1.928 1.932 1.932 0 0 1-1.928 1.928h-43.612a1.932 1.932 0 0 1-1.928-1.928 1.929 1.929 0 0 1 1.913-1.928z" transform="translate(121.588 59.066)" fill="#e2e1e7"/><path d="M554.585 285.84h43.627a1.932 1.932 0 0 1 1.928 1.928 1.932 1.932 0 0 1-1.928 1.928h-43.612a1.932 1.932 0 0 1-1.928-1.928 1.929 1.929 0 0 1 1.913-1.928z" transform="translate(121.588 62.885)" fill="#e2e1e7"/><path d="M554.585 322.11h43.627a1.932 1.932 0 0 1 1.928 1.928 1.932 1.932 0 0 1-1.928 1.928h-43.612a1.932 1.932 0 0 1-1.928-1.928 1.929 1.929 0 0 1 1.913-1.928z" transform="translate(121.588 70.864)" fill="#e2e1e7"/><path d="M503.458 267.2h42.142a1.932 1.932 0 0 1 1.928 1.928 1.932 1.932 0 0 1-1.928 1.928h-42.142a1.932 1.932 0 0 1-1.928-1.928 1.932 1.932 0 0 1 1.928-1.928z" transform="translate(110.337 58.784)" fill="#acabbb"/><path d="M503.458 306.32h42.142a1.932 1.932 0 0 1 1.928 1.928 1.932 1.932 0 0 1-1.928 1.928h-42.142a1.932 1.932 0 0 1-1.928-1.928 1.924 1.924 0 0 1 1.928-1.928z" transform="translate(110.337 67.391)" fill="#acabbb"/><path d="M503.458 331.34h42.142a1.932 1.932 0 0 1 1.928 1.928 1.932 1.932 0 0 1-1.928 1.932h-42.142a1.932 1.932 0 0 1-1.928-1.928 1.932 1.932 0 0 1 1.928-1.932z" transform="translate(110.337 72.895)" fill="#acabbb"/><path d="M475.089 368.249h36.551a3.213 3.213 0 0 0 3.209-3.209v-62.84a3.213 3.213 0 0 0-3.209-3.209h-36.551a3.22 3.22 0 0 0-3.209 3.209v62.842a3.22 3.22 0 0 0 3.209 3.207z" transform="translate(103.814 65.778)" fill="#e2e1e7"/><path d="M505.618 368.252h29.573a2.708 2.708 0 0 0 2.7-2.708v-63.856a2.715 2.715 0 0 0-2.7-2.708h-29.573a2.718 2.718 0 0 0-2.708 2.708v63.867a2.731 2.731 0 0 0 2.708 2.697z" transform="translate(110.641 65.776)" fill="#fff"/><path d="M568.374 391.06h37.869c0-6.783 7.32-7.54 7.32-7.54h-37.869c0 .012-7.32.756-7.32 7.54z" fill="#fff"/><path d="M472.261 346.62h39.186a2.119 2.119 0 0 1 2.111 2.111v13.749a2.119 2.119 0 0 1-2.111 2.111h-39.186a2.119 2.119 0 0 1-2.111-2.111v-13.749a2.119 2.119 0 0 1 2.111-2.111z" transform="translate(103.433 76.257)" fill="#b92f6d"/><path d="M503.373 346.62h8.6a4.052 4.052 0 0 1 3.465 2.647c1.232 2.684 1.1 5.38 4.758 5.38h1.574c3.66 0 3.55-2.745 4.758-5.38a3.959 3.959 0 0 1 3.465-2.647h8.162a2.119 2.119 0 0 1 2.111 2.111v13.749a2.119 2.119 0 0 1-2.111 2.111h-34.794a2.119 2.119 0 0 1-2.111-2.111v-13.749a2.138 2.138 0 0 1 2.123-2.111z" transform="translate(110.275 76.257)" fill="#e74d91"/><path d="M568.374 414.801h37.869c0-6.783 7.32-7.54 7.32-7.54h-37.869s-7.32.744-7.32 7.54z" fill="#fff"/><path d="M654.689 403.479h-34.44c0-6.783-6.7-7.54-6.7-7.54h34.441c.014.012 6.699.76 6.699 7.54z" fill="#acabbb"/><path d="M507.619 305.15h26.4a1.158 1.158 0 0 1 1.159 1.159 1.166 1.166 0 0 1-1.159 1.159h-26.4a1.166 1.166 0 0 1-1.159-1.159 1.166 1.166 0 0 1 1.159-1.159z" transform="translate(111.422 67.133)" fill="#e2e1e7"/><path d="M507.619 315.66h26.4a1.158 1.158 0 0 1 1.159 1.159 1.166 1.166 0 0 1-1.159 1.159h-26.4a1.166 1.166 0 0 1-1.159-1.159 1.166 1.166 0 0 1 1.159-1.159z" transform="translate(111.422 69.446)" fill="#e2e1e7"/><path d="M507.619 337.61h26.4a1.158 1.158 0 0 1 1.159 1.159 1.166 1.166 0 0 1-1.159 1.159h-26.4a1.166 1.166 0 0 1-1.159-1.159 1.159 1.159 0 0 1 1.159-1.159z" transform="translate(111.422 74.275)" fill="#e2e1e7"/><path d="M476.679 304.37h25.5a1.166 1.166 0 0 1 1.159 1.159 1.166 1.166 0 0 1-1.159 1.159h-25.5a1.158 1.158 0 0 1-1.159-1.159 1.151 1.151 0 0 1 1.159-1.159z" transform="translate(104.615 66.962)" fill="#acabbb"/><path d="M476.679 328.05h25.5a1.166 1.166 0 0 1 1.159 1.159 1.166 1.166 0 0 1-1.159 1.159h-25.5a1.158 1.158 0 0 1-1.159-1.159 1.151 1.151 0 0 1 1.159-1.159z" transform="translate(104.615 72.171)" fill="#acabbb"/><path d="M476.679 343.19h25.5a1.166 1.166 0 0 1 1.159 1.159 1.166 1.166 0 0 1-1.159 1.159h-25.5a1.158 1.158 0 0 1-1.159-1.159 1.151 1.151 0 0 1 1.159-1.159z" transform="translate(104.615 75.502)" fill="#acabbb"/></g><g fill-rule="evenodd"><path d="M138.768 221.83l50 .232a1.2 1.2 0 0 1 1.2 1.2l-.012 5.234a1.2 1.2 0 0 1-1.2 1.2l-50-.232a1.2 1.2 0 0 1-1.2-1.2l.012-5.234a1.2 1.2 0 0 1 1.2-1.2zm48.8 2.623l-47.6-.232-.012 2.843 47.6.232z" transform="translate(83.692 267.883) translate(-53.429 -219.08)" fill="#0e1632"/><path d="M84.764 296.7l66.051-75.262a1.184 1.184 0 0 1 1.684-.11l3.928 3.453a1.184 1.184 0 0 1 .11 1.684l-66.051 75.257a1.184 1.184 0 0 1-1.684.11l-3.928-3.453a1.184 1.184 0 0 1-.11-1.684zm67.063-72.8l-64.477 73.467 2.135 1.879 64.477-73.468z" transform="translate(18.582 48.626)" fill="#0e1632"/><path d="M140.15 219.63a6.659 6.659 0 1 1-5.771 7.442 6.66 6.66 0 0 1 5.771-7.442z" transform="translate(29.552 48.307)" fill="#383d5d"/><path d="M84.694 284.1l46.445 88.718a1.205 1.205 0 0 0 1.61.512l4.636-2.428a1.2 1.2 0 0 0 .512-1.61l-46.444-88.715a1.2 1.2 0 0 0-1.61-.512l-4.636 2.428a1.2 1.2 0 0 0-.512 1.61zm48.006 86.549l-45.334-86.607 2.525-1.318 45.335 86.608z" transform="translate(18.603 61.585)" fill="#0e1632"/><path d="M123.343 360.141a6.653 6.653 0 1 0-3.843-8.589 6.657 6.657 0 0 0 3.843 8.589z" transform="translate(26.193 76.4)" fill="#383d5d"/><path d="M88.83 278.1a6.659 6.659 0 1 1-5.771 7.442 6.66 6.66 0 0 1 5.771-7.442z" transform="translate(18.262 61.17)" fill="#383d5d"/><path d="M77.006 370.012h92.781a8.43 8.43 0 0 0 8.406-8.406 8.43 8.43 0 0 0-8.406-8.406h-92.781a8.43 8.43 0 0 0-8.406 8.406 8.43 8.43 0 0 0 8.406 8.406z" transform="translate(83.692 267.883) translate(-68.6 -190.179)" fill="#383d5d"/><path d="M104.106 370.012h92.781a8.43 8.43 0 0 0 8.406-8.406 8.43 8.43 0 0 0-8.406-8.406h-92.781a8.43 8.43 0 0 0-8.406 8.406 8.43 8.43 0 0 0 8.406 8.406z" transform="translate(83.692 267.883) translate(-62.638 -190.179)" fill="#0e1632"/><path d="M173.035 238.145h24.465a12.931 12.931 0 0 0 12.9-12.9h-50.26a12.923 12.923 0 0 0 12.895 12.9z" transform="translate(83.692 267.883) translate(-48.461 -218.328)" fill="#fff"/><path d="M172.489 235.107h14.689a7.774 7.774 0 0 0 7.747-7.747h-30.2a7.776 7.776 0 0 0 7.764 7.747z" transform="translate(83.692 267.883) translate(-47.451 -217.863)" fill="#dff0f2"/><path d="M165.748 220.39h40.907a9.9 9.9 0 0 1 9.87 9.87h-60.635a9.88 9.88 0 0 1 9.858-9.87z" transform="translate(83.692 267.883) translate(-49.396 -219.397)" fill="#383d5d"/><path d="M165.748 220.39h18.7a9.9 9.9 0 0 1 9.87 9.87h-38.428a9.88 9.88 0 0 1 9.858-9.87z" transform="translate(83.692 267.883) translate(-49.396 -219.397)" fill="#01020e"/></g><g fill="#0e1632"><path d="M570 73.038a.9.9 0 0 1-1.464-1.049 38.211 38.211 0 1 1-6 31.439.893.893 0 0 1 .659-1.086.911.911 0 0 1 1.1.659 36.487 36.487 0 1 0 5.705-29.963z" transform="translate(686.26 68.283) translate(-562.508 -55.97)" fill-rule="evenodd"/><path d="M611.937 73.87c-1.013.878-3.758 3.7-5.49 9.675 1.5 1 5.636 4.16 3.7 7.527l-8.076 13.969c-1.964 3.27-6.71 1.293-8.32.5-4.319 4.49-5.38 8.284-5.636 9.589a12.642 12.642 0 0 0 7.405 1.562 7.928 7.928 0 0 0 5.893-3.306l15.677-27.145a8.019 8.019 0 0 0-.1-6.734 12.478 12.478 0 0 0-5.051-5.636zm-7.137 9.821c2.147-7.967 6.185-11.065 6.6-11.37a.772.772 0 0 1 .878-.061 14.354 14.354 0 0 1 6.149 6.637 9.627 9.627 0 0 1 .024 8.1l-15.677 27.157a9.562 9.562 0 0 1-7.052 4.087 14.424 14.424 0 0 1-8.8-1.989.782.782 0 0 1-.427-.756c0-.012.415-5.27 6.527-11.431a.763.763 0 0 1 .964-.146c.012.012 5.185 2.989 6.759.317l8.055-13.945c1.5-2.6-3.2-5.466-3.611-5.71a.78.78 0 0 1-.389-.89z" transform="translate(686.26 68.283) translate(-557.23 -52.41)" fill-rule="evenodd"/><text transform="translate(686.26 68.283) translate(5.826 43.38)" font-size="29" font-family="OpenSans-Extrabold, Open Sans" font-weight="800"><tspan x="0" y="0">24</tspan></text></g><g fill-rule="evenodd"><path d="M395.785 35.7h52.094a8.133 8.133 0 0 1 8.113 8.113v45.387a.909.909 0 0 1-1.549.647l-13.835-13.838h-44.835a8.133 8.133 0 0 1-8.113-8.109v-24.075a8.162 8.162 0 0 1 8.125-8.125z" transform="translate(465.747 38.284) translate(-380.462 -30.43)" fill="#bfcce8"/><path d="M390.934 31.38h52.094a9.205 9.205 0 0 1 9.187 9.187v45.371a2 2 0 0 1-.329 1.1 1.961 1.961 0 0 1-.891.732 1.936 1.936 0 0 1-1.135.122 1.891 1.891 0 0 1-1.013-.549l-13.517-13.519h-44.383a9.205 9.205 0 0 1-9.187-9.187v-24.07a9.178 9.178 0 0 1 2.7-6.49 9.056 9.056 0 0 1 6.478-2.7zm52.094 2.147h-52.094a7.081 7.081 0 0 0-7.052 7.052v24.07a7.081 7.081 0 0 0 7.052 7.052h45.274l13.86 13.859v-44.993a7.06 7.06 0 0 0-7.039-7.039z" transform="translate(465.747 38.284) translate(-381.76 -31.38)" fill="#fff"/><path d="M389.026 38.941a.586.586 0 1 1 0-1.171h52.96a.586.586 0 1 1 0 1.171z" transform="translate(465.747 38.284) translate(-380.29 -29.974)" fill="#fff"/><path d="M389.026 43.631a.586.586 0 1 1 0-1.171h5.612a.586.586 0 0 1 .586.586.578.578 0 0 1-.586.586zm13.078 0a.586.586 0 0 1-.586-.586.578.578 0 0 1 .586-.586h39.882a.586.586 0 1 1 0 1.171z" transform="translate(465.747 38.284) translate(-380.29 -28.942)" fill="#fff"/><path d="M389.026 48.321a.578.578 0 0 1-.586-.586.586.586 0 0 1 .586-.586h52.96a.586.586 0 1 1 0 1.171z" transform="translate(465.747 38.284) translate(-380.29 -27.911)" fill="#fff"/><path d="M401.1 54.691a.586.586 0 0 1 0-1.171h38.23a.586.586 0 1 1 0 1.171z" transform="translate(465.747 38.284) translate(-377.635 -26.509)" fill="#fff"/><path d="M415.1 59.771a.594.594 0 0 1-.586-.586.586.586 0 0 1 .586-.586h21.15a.586.586 0 1 1 0 1.171z" transform="translate(465.747 38.284) translate(-374.555 -25.392)" fill="#fff"/><path d="M405.156 59.771a.586.586 0 1 1 0-1.171h7.564a.586.586 0 1 1 0 1.171z" transform="translate(465.747 38.284) translate(-376.742 -25.392)" fill="#fff"/></g><path d="M642.114 366.572a1.342 1.342 0 1 0-2.684 0v3.148h-3.148a1.336 1.336 0 1 0 0 2.672h3.148v3.148a1.342 1.342 0 1 0 2.684 0v-3.148h3.148a1.336 1.336 0 1 0 0-2.672h-3.148z" transform="translate(139.687 80.351)" fill="#bfcce8" fill-rule="evenodd"/><g fill-rule="evenodd"><path d="M222.33 348.99h-45.3a6.771 6.771 0 0 0 0 13.542h45.3a6.771 6.771 0 0 0 0-13.542z" transform="translate(37.458 76.777)" fill="#0076bd"/><path d="M129.88 349.64h57.926a6 6 0 0 1 5.978 5.978 6 6 0 0 1-5.978 5.978h-57.926z" transform="translate(28.574 76.92)" fill="#fff"/><path d="M130.023 348.99a.793.793 0 1 0 0 1.586h57.926a5.2 5.2 0 0 1 0 10.394h-57.926a.793.793 0 0 0 0 1.586h57.926a6.771 6.771 0 0 0 0-13.542h-57.926z" transform="translate(28.431 76.777)" fill="#004a82"/><path d="M212.451 355.761a6.79 6.79 0 0 0-6.771-6.771h5.893a6.771 6.771 0 0 1 0 13.542h-5.893a6.79 6.79 0 0 0 6.771-6.771z" transform="translate(45.25 76.777)" fill="#004a82"/><path d="M205.451 355.761a6.79 6.79 0 0 0-6.771-6.771h5.893a6.771 6.771 0 0 1 0 13.542h-5.893a6.79 6.79 0 0 0 6.771-6.771z" transform="translate(43.71 76.777)" fill="#004a82"/><path d="M140.709 339.27h39.662a5.929 5.929 0 0 1 0 11.858h-39.662a5.929 5.929 0 0 1 0-11.858z" transform="translate(29.652 74.639)" fill="#e74d91"/><path d="M222.461 339.84h-50.727a5.248 5.248 0 0 0-5.234 5.234 5.248 5.248 0 0 0 5.234 5.234h50.728z" transform="translate(36.63 74.764)" fill="#fff"/><path d="M222.587 339.27a.7.7 0 0 1 .7.7.687.687 0 0 1-.7.7h-50.728a4.538 4.538 0 0 0 0 9.077h50.728a.7.7 0 0 1 .7.7.687.687 0 0 1-.7.7h-50.728a5.929 5.929 0 0 1 0-11.858h50.728z" transform="translate(36.505 74.639)" fill="#b92f6d"/><path d="M142.071 345.2a5.957 5.957 0 0 1 5.929-5.93h-5.161a5.929 5.929 0 0 0 0 11.858h5.161a5.957 5.957 0 0 1-5.929-5.929z" transform="translate(30.121 74.639)" fill="#b92f6d"/><path d="M148.191 345.2a5.957 5.957 0 0 1 5.929-5.929h-5.161a5.929 5.929 0 0 0 0 11.858h5.161a5.957 5.957 0 0 1-5.929-5.929z" transform="translate(31.467 74.639)" fill="#b92f6d"/></g><g fill-rule="evenodd"><path d="M469.548 363.591h-194.822a6.682 6.682 0 0 1-6.564-6.185 5.775 5.775 0 0 1 5.819-6.185h194.819a6.682 6.682 0 0 1 6.564 6.185 5.775 5.775 0 0 1-5.816 6.185z" transform="translate(327.144 311.344) translate(-268.151 -234.076)" fill="#a8a6b5"/><path d="M469.339 362.412h-194.822a6.634 6.634 0 0 1-5.417-2.912 5.781 5.781 0 0 1 5.075-2.916h194.825a6.635 6.635 0 0 1 5.417 2.916 5.78 5.78 0 0 1-5.078 2.912z" transform="translate(327.144 311.344) translate(-267.942 -232.896)" fill="#96929f"/><path d="M466.042 372.33h-155.831a7.538 7.538 0 0 1-7.588-8.1l6.377-100.93a8.759 8.759 0 0 1 8.6-8.089h155.835a7.534 7.534 0 0 1 7.588 8.089l-6.381 100.931a8.76 8.76 0 0 1-8.6 8.099z" transform="translate(327.144 311.344) translate(-260.57 -255.198)" fill="#96929f"/><path d="M465.213 372.33h-151.232a7.538 7.538 0 0 1-7.588-8.1l6.38-100.93a8.759 8.759 0 0 1 8.6-8.089h151.233a7.518 7.518 0 0 1 7.576 8.089l-6.382 100.929a8.74 8.74 0 0 1-8.587 8.101z" transform="translate(327.144 311.344) translate(-259.741 -255.198)" fill="#fff"/><path d="M455.878 372.332h-15.567l-128.991-103.102.378-5.917a8.577 8.577 0 0 1 1.842-4.746l142.338 113.765zm-124.867-117.12l140.727 112.472a8.372 8.372 0 0 0 .988-3.453l.988-15.7-116.778-93.331h-25.925z" transform="translate(327.144 311.344) translate(-258.653 -255.2)" fill="#f0eef0"/><path d="M310.13 363.591h-35.4a6.682 6.682 0 0 1-6.564-6.185 5.775 5.775 0 0 1 5.819-6.185h35.4a6.682 6.682 0 0 1 6.564 6.185 5.775 5.775 0 0 1-5.819 6.185z" transform="translate(327.144 311.344) translate(-268.151 -234.076)" fill="#fff"/><path d="M465.136 354.868h-162.113a3.351 3.351 0 0 1-3.282-3.1 2.892 2.892 0 0 1 2.9-3.1h162.117a3.351 3.351 0 0 1 3.282 3.1 2.878 2.878 0 0 1-2.904 3.1z" transform="translate(327.144 311.344) translate(-261.202 -234.637)" fill="#d2ced6"/></g><g fill-rule="evenodd"><path d="M297.563 267.24c-1.2-5.954-.891-9.272.244-14.921l-25.547-2.159 35.563-15.579s7.552-9.26 11.1-18.349-6.088-32.22-9.711-37.954-11.151-4.88-16.116-1.769c0 0-7.454-11.224-16.336-11.968s-37.149 1.854-45.36 22.594 5 41.468-8.223 62.806a5.345 5.345 0 0 0 .549 4.978c1.72 2.269 22.558 26.572 70.077 16.775-.012-.024 3.782-.9 3.758-4.453z" transform="translate(25.779 200.603) translate(23.236 -164.428)" fill="#0e1632"/><path d="M264.086 265.156c2.611-28.572 4.465-53.4 4.465-53.4l-2.428-8.052s-21.875 17.678-37.405-.915c.732 12.761 2.562 25.608-5.539 38.686a5.345 5.345 0 0 0 .549 4.978l.073.1.024.037.061.073.061.073.037.049.11.134.012.012.134.159.037.049.11.134.1.11.073.085.159.183.024.024.2.22.049.049.171.183.122.134.11.122.085.085.171.171.268.268.183.183.146.134c4.551 4.392 15.128 12.529 32.977 15.36l.049.012c1.549.244 3.148.451 4.807.61z" transform="translate(25.779 200.603) translate(23.236 -155.989)" fill="#010518"/><path d="M295.41 253.844c-1.623-8.076-.488-11.334 1.781-22.131l-40.65-6.393-17.763 3.44a118.757 118.757 0 0 1-6.2 22c10.821 6.7 29.927 13.518 59.072 7.515-.012 0 3.782-.878 3.758-4.429z" transform="translate(25.779 200.603) translate(25.389 -151.032)" fill="#010518"/><path d="M249.339 250.358c11.248 3.526 26.633 7.747 39.894 14.262.915.451-.952 3.977-.1 4.453a31.273 31.273 0 0 1 5.819 4.734c6.2 6.124 18.8 54.058 17.666 58.828-1.806 7.686-17.727 28.792-17.727 28.792-3.16 6.112-7.088 15.006-10.931 24.62h-79.08c5.514-17.91 7.564-30.036 7.71-40.968 4.221-37.161-15.762-45.25-15.762-45.25l20.691-48.7c8.052-2.855 24.107-1.781 24.107-1.781 4.236-.002 3.919-.185 7.713 1.01z" transform="translate(25.779 200.603) translate(17.524 -145.79)" fill="#e74d91"/><path d="M327.266 440.859h-11.163c2.086-5.563 11.761-31.891 13.823-37.515-9.406-1.635-22.35-3.88-24.632-4.429l-11.029 4.453.976-5.685-9.382 9.455 16.043-29.975s26.193 5.917 31.757 6.93 2.172.244 3.209.159c3.1-8.7-1.976-11.139-1.366-15.348l.781-45.067c3.379 1.757 4.917 5.563 6.832 11.578 1.257 3.953 7.942 29.963 10.712 45.347.659 3.66 1.183 6.393 1.513 8.577-6.236 15.823-20.169 31.744-28.074 51.52z" fill="#b92f6d"/><path d="M312.174 260.275l-3.965 11.895s-5.99 28.072-7.369 31.708c-.476 1.269-2.062 1.647-4.5 1.586 3.5 5.014 10.309 12.676 20.142 14.542 6.283 1.2 10.675.012 13.652-1.745-2.1-1.11-4.111-2.428-4.1-3.514.085-9.577 1.732-26.437 6.917-29.561 5.965-3.551-20.777-24.911-20.777-24.911z" fill="#e8685b"/><path d="M245.543 250.36a25.557 25.557 0 0 1-5.673-.22c2.416 3.489 6.332 7.405 12.59 11.383 15.506 9.833 22.985 4.477 25.339 1.952a17.029 17.029 0 0 1-3.782-2.428c-14.469 7.064-28.475-10.687-28.475-10.687z" transform="translate(25.779 200.603) translate(26.993 -145.572)" fill="#fff"/><path d="M331.902 319.141s6.185 62.257 5.429 67.5-10.59 31.159-19.2 54.217h14.823c2.928-5.636 5.161-10.041 5.575-11.1.268-.683 1.293-2.672 2.7-5.283 2.538-4.685 6.32-11.37 9.162-16.055 9.089-14.921 9.065-11.431 5.917-28.914-2.769-15.384-11.261-43.835-12.517-47.8-1.923-6.014-10.279-13.005-11.889-12.565z" fill="#1c2344"/><path d="M331.036 405.784c-2.037 5.7-4.4 12.176-6.869 18.837 4.5.39 8.1.842 9.382 1.342 4.5 1.769 4.978 3.794 4.978 3.794.268-.683 1.293-2.672 2.7-5.283 2.538-4.685 6.32-11.37 9.162-16.055 2.733-4.49 4.636-7.308 5.893-9.54-1.745 1.537-4.538 3.855-5.893 4.258-1.639.5-14.278 2.037-19.353 2.647z" fill="#0e1632"/><path d="M290.311 303.853s11.346 54.985 12.912 70.968-3.44 27.426-9.065 39.43c-1.891 4.05-7.979 14.384-15.457 26.608h-34.945l3.733-86.376-10.016-2.318c.6-4.343 1.086-7.93 1.415-10.455l19.727-34.88s7.43-6.027 31.696-2.977z" fill="#1c2344"/><path d="M226.248 272.1c-5.575 22.387-1.708 31.671-1.708 31.671l2.989-13.932s2.83 20.569 5.966 23.192c1.562 1.305 20.142 4.868 27.1 6.161a58.569 58.569 0 0 1-3.416 23.034c-5 .512-35.051-3.721-36.49 5.99-.72 4.843-.549-10.736-.549-10.736l-1.781 45.164h-17.426l3.733-86.376-10.016-2.318.024-.207.024-.2.024-.207.024-.2.024-.2.024-.2.024-.2.024-.2.024-.2.024-.2.024-.2.024-.2.024-.2.024-.183.024-.183.024-.183.024-.183.024-.183.024-.183.024-.183.024-.183.024-.183.024-.171.024-.171.024-.171.024-.171.024-.171.024-.171.024-.171.024-.171.024-.171.024-.159.024-.159.024-.159.024-.159.024-.159.024-.159.024-.159.024-.159.024-.159.024-.159.024-.146.024-.146.024-.146.024-.146.024-.146.024-.146.024-.146.024-.146.024-.146.024-.134.024-.134.024-.134.012-.134.012-.134.012-.134.012-.134.012-.122.012-.122.012-.122.012-.122.012-.122.012-.122.012-.122 10.687-18.886z" transform="translate(25.779 200.603) translate(17.044 -142.386)" fill="#0e1632"/><path d="M241.439 331.23c-6.393 17.483-8.137 77.433-2.867 109.629h28.072c-11.48-63.891 12.639-109.593 7.332-125.782-8.479-25.924-28.328 4.661-32.537 16.153z" fill="#383d5d"/><path d="M291.523 225.858l3.123-1.366a89.823 89.823 0 0 0 9.1-13.945c-.744 1.415-5.673 10.041-12.9 4.77-7.845-5.734-8.162 3.343-8.162 3.343s4.746 5.392 7.5 6.649l1.33.549zm12.322-15.518z" transform="translate(25.779 200.603) translate(36.413 -154.328)" fill="#010518"/><path d="M288.98 218.789a8.947 8.947 0 1 0 7.979 9.821 8.945 8.945 0 0 0-7.979-9.821z" transform="translate(25.779 200.603) translate(35.626 -152.48)" fill="#e8685b"/><path d="M237.646 213.58a6.015 6.015 0 0 0-.659.061h-.012a8.942 8.942 0 1 0 7.3 2.416c0 2.647-.683 5.868-4.075 5.917l.537-5.136a3.08 3.08 0 0 0-3.091-3.258z" transform="translate(25.779 200.603) translate(24.63 -153.615)" fill="#e8685b"/><path d="M274.314 179.509a30.749 30.749 0 0 0-33.648 27.328l-2.866 27.707a30.756 30.756 0 0 0 27.328 33.648 30.756 30.756 0 0 0 33.648-27.328l2.867-27.706a30.733 30.733 0 0 0-27.329-33.649z" transform="translate(25.779 200.603) translate(26.502 -161.146)" fill="#f4ad85"/><path d="M240.166 208.759l-2.366 22.85a30.772 30.772 0 0 0 19.532 31.781c-17.832-7.39-8.699-38.39-8.699-38.39 3.611-.61 9.309-7.344 12.627-11.273s5.88-7.869 11.59-7.759l17.8 3.111a33.756 33.756 0 0 0 9.821 12.444l1.171-11.309a30.091 30.091 0 0 0-.586-9.845c-.744-.439-1.5-.878-2.306-1.33-24.534-13.79-45.371-2.627-58.584 9.72z" transform="translate(25.779 200.603) translate(26.501 -158.212)" fill="#ed9072"/><path d="M292.649 201.389l-4.949 2.111a14.621 14.621 0 0 0-9.992-1.61s-10.882-4-16.653-1.769-2.379-5.783-1.318-6.124 11.98-1.049 16.751-.122l11.944 2.037z" transform="translate(25.779 200.603) translate(30.932 -158.052)" fill="#010518"/><path d="M238.991 212.36l2.94.512s2.037 9.284-3.721 9.357l.537-5.136a2.92 2.92 0 0 0-.061-.988z" transform="translate(25.779 200.603) translate(26.628 -153.883)" fill="#010518"/><path d="M282.386 205.751c-4.477-6.051-11.8-7.283-17.495 1.208-5.2 7.759-12.92 21.179-25.925 20.081l-.061-.244h.037l.732-8.662s-1.1.281-2.428.6a56.16 56.16 0 0 1-.451-15.518c1.5-10.882 16.653-26.779 33.733-27.389s29.439 9.528 31.879 15.311l4.868 18.91-3 4.294-3.233 8.54c-7.857-7.637-7.052-14.872-10.468-18.507-1.856-1.954-4.613-1.966-8.188 1.376z" transform="translate(25.779 200.603) translate(26.237 -161.927)" fill="#0e1632"/><path d="M315.138 248.331c-5.148 7.8-12.554 18.373-24.144 17.4l-.061-.244h.037l.732-8.662s-1.1.281-2.428.6c-.11-.744-.22-1.525-.317-2.342 13.078 3.798 26.132-6.728 26.181-6.752z" fill="#010518"/><path d="M269.537 260.333s7.979 65.429 7.82 67.551l-2.281 12.359s3.855-6.454 4.795-11.81l3.465-41.541-4.246-2.281 3.928-.232-6.49-20.325a5.707 5.707 0 0 0-1.769-2.1c-1.025-.586-4.746-2.464-4.807-2.489a2.472 2.472 0 0 0-1.452.171s.769.526 1.037.697z" transform="translate(25.779 200.603) translate(33.291 -143.529)" fill="#484e6a"/><path d="M239.953 249.2s11.346 54.985 12.908 70.967a56.772 56.772 0 0 1-.988 17.714c2.086-16.348-20.923-54.815-20.923-54.815l5.978-2.83-8.028-3.623s3.7-20.691 3.928-24.156c.232-3.367-1.549-3.989-1.659-4.026 2.672.121 5.576.369 8.784.769z" transform="translate(25.779 200.603) translate(24.579 -145.948)" fill="#484e6a"/><path d="M58.6 385.917h9.931a7.219 7.219 0 0 0 7.2-7.2 7.219 7.219 0 0 0-7.2-7.2h-26.246a5.743 5.743 0 0 1-5.722-5.71 5.738 5.738 0 0 1 5.722-5.722h693.472a5.727 5.727 0 0 1 5.71 5.722 5.725 5.725 0 0 1-5.71 5.71h-36a7.219 7.219 0 0 0-7.2 7.2 7.219 7.219 0 0 0 7.2 7.2h8.443a11.471 11.471 0 0 1 11.431 11.431 11.471 11.471 0 0 1-11.431 11.432h-649.6a11.471 11.471 0 0 1-11.431-11.431 11.471 11.471 0 0 1 11.431-11.432zm-31.76-25.827a5.716 5.716 0 1 1-5.71 5.722 5.722 5.722 0 0 1 5.71-5.722z" transform="translate(25.779 200.603) translate(-21.13 -121.383)" fill="#01020e"/></g><g fill="#1a293d" fill-rule="evenodd"><path d="M353.841 114.54h-52.094a9.205 9.205 0 0 0-9.187 9.187v45.373a2 2 0 0 0 .329 1.1 1.961 1.961 0 0 0 .891.732 1.936 1.936 0 0 0 1.135.122 1.891 1.891 0 0 0 1.013-.549l13.518-13.518h44.384a9.205 9.205 0 0 0 9.187-9.187v-24.073a9.206 9.206 0 0 0-9.174-9.187zm-52.094 2.135h52.094a7.081 7.081 0 0 1 7.052 7.052v24.073a7.081 7.081 0 0 1-7.052 7.052h-45.275l-13.859 13.859v-44.984a7.018 7.018 0 0 1 2.074-4.978 6.947 6.947 0 0 1 4.966-2.074z" transform="translate(356.923 139.739) translate(-292.56 -114.54)"/><path d="M352.8 122.1a.586.586 0 0 0 .586-.586.578.578 0 0 0-.586-.586h-52.96a.586.586 0 0 0-.586.586.594.594 0 0 0 .586.586z" transform="translate(356.923 139.739) translate(-291.088 -113.134)"/><path d="M352.8 126.791a.586.586 0 0 0 0-1.171h-5.612a.594.594 0 0 0-.586.586.586.586 0 0 0 .586.586zm-13.078 0a.586.586 0 0 0 0-1.171h-39.886a.586.586 0 0 0 0 1.171z" transform="translate(356.923 139.739) translate(-291.088 -112.102)"/><path d="M352.8 131.481a.586.586 0 0 0 .586-.586.578.578 0 0 0-.586-.586h-52.96a.586.586 0 1 0 0 1.171z" transform="translate(356.923 139.739) translate(-291.088 -111.071)"/><path d="M338.07 137.841a.586.586 0 0 0 .586-.586.578.578 0 0 0-.586-.586h-38.234a.578.578 0 0 0-.586.586.586.586 0 0 0 .586.586z" transform="translate(356.923 139.739) translate(-291.088 -109.671)"/><path d="M320.993 142.931a.586.586 0 1 0 0-1.171h-21.167a.586.586 0 1 0 0 1.171z" transform="translate(356.923 139.739) translate(-291.09 -108.552)"/><path d="M328.48 142.931a.586.586 0 1 0 0-1.171h-7.564a.586.586 0 1 0 0 1.171z" transform="translate(356.923 139.739) translate(-286.451 -108.552)"/></g></svg>