<svg xmlns="http://www.w3.org/2000/svg" width="89.026" height="89" viewBox="0 0 89.026 89"><g fill="#292a35"><path d="M-209.187 162.045a9.434 9.434 0 0 0 2.2-6.107 8.482 8.482 0 0 0-7.965-8.9 7.376 7.376 0 0 0-4.8 1.841 7.73 7.73 0 0 0-6.447-3.716 8.481 8.481 0 0 0-7.964 8.9 9.423 9.423 0 0 0 2.187 6.091h-1.718a5.124 5.124 0 0 0-3.7 1.578 10.394 10.394 0 0 0-5.5-1.578h-.02a9.538 9.538 0 0 0 .349-11.706 14.63 14.63 0 0 0 6.91-6.816 11.079 11.079 0 0 0 2.7.342 11.84 11.84 0 0 0 6.521-1.956 5.132 5.132 0 0 0 6.795-2.547 5.133 5.133 0 0 0-1.482-6.145 12.165 12.165 0 0 0 .067-1.254 11.8 11.8 0 0 0-5.154-9.8 14.243 14.243 0 0 0-6.26-10.272 18.078 18.078 0 0 0 2.063-8.414 18.293 18.293 0 0 0-18.273-18.272h-.516a18.42 18.42 0 0 0-17.756 18.129 18.039 18.039 0 0 0 2.636 9.557 14.227 14.227 0 0 0-4.74 8.1 11.9 11.9 0 0 0-7.266 10.955 12.17 12.17 0 0 0 .068 1.254 5.132 5.132 0 0 0-.83 7.211 5.132 5.132 0 0 0 6.15 1.48 11.833 11.833 0 0 0 6.518 1.954 11.015 11.015 0 0 0 2.7-.342 14.63 14.63 0 0 0 6.91 6.816 9.545 9.545 0 0 0 .353 11.714 11.6 11.6 0 0 0-5.6 1.487 5.14 5.14 0 0 0-3.623-1.5h-1.718a9.438 9.438 0 0 0 2.186-6.087 8.484 8.484 0 0 0-7.965-8.9 7.722 7.722 0 0 0-6.447 3.717 7.378 7.378 0 0 0-4.8-1.843 8.484 8.484 0 0 0-7.965 8.9 9.434 9.434 0 0 0 2.2 6.105 5.149 5.149 0 0 0-5.009 5.14v3.748a1.406 1.406 0 0 0 1.406 1.406h86.2a1.406 1.406 0 0 0 1.406-1.406v-3.748a5.151 5.151 0 0 0-5.01-5.127zm-23.2 7.481h-3.654v-4.217a3.089 3.089 0 0 1 .844-1.762 2.3 2.3 0 0 1 1.5-.581h14.997a2.437 2.437 0 0 1 2.214 1.7l.033.174a2.115 2.115 0 0 1 .1.469v4.217zm-58.008-2.343a2.345 2.345 0 0 1 2.343-2.343h4.264l-.047.469v4.217h-6.56zm7.965-17.336a4.776 4.776 0 0 1 3.625 1.768 9.745 9.745 0 0 0-.346 2.449 9.592 9.592 0 0 0 1.245 4.731 6.318 6.318 0 0 1-.823 1.364 5.12 5.12 0 0 0-3.877 1.848 6.184 6.184 0 0 1-4.842-7.286 6.187 6.187 0 0 1 5.026-4.874zm6.721 1.361a5.1 5.1 0 0 1 4.528-3.234 6.184 6.184 0 0 1 5.018 7.163 6.184 6.184 0 0 1-5.018 5.018 4.775 4.775 0 0 1-3.625-1.767 6.282 6.282 0 0 1-1.107-1.919 7.01 7.01 0 0 1-.421-2.406 6.512 6.512 0 0 1 .056-.654 6.794 6.794 0 0 1 .573-2.195zm-2.5 18.323h-2.811v-4.217a2.191 2.191 0 0 1 .1-.469l.034-.174a2.437 2.437 0 0 1 2.217-1.7h14.992a2.487 2.487 0 0 1 2.343 2.343v4.217h-16.87zm19.532-5.384a8.982 8.982 0 0 1 4.366-1.178h11.42a7.62 7.62 0 0 1 4.161 1.255 5.071 5.071 0 0 0-.119 1.088v4.217h-19.679v-4.217a5.083 5.083 0 0 0-.145-1.167zm-2.259-25.621a1.386 1.386 0 0 0-.472.082 8.617 8.617 0 0 1-7.291-.554 5.132 5.132 0 0 0-1.584-7.082 5.129 5.129 0 0 0-2.768-.8l-.454.044-.014-.141a9.088 9.088 0 0 1 6.162-8.6 1.4 1.4 0 0 0 .937-1.141 11.43 11.43 0 0 1 3.7-6.982 15.983 15.983 0 0 1 3.254 9.391v8.837a3.284 3.284 0 0 0 3.28 3.28h14.992a3.284 3.284 0 0 0 3.28-3.28v-8.834a16.229 16.229 0 0 1 3.655-9.947l.293-.412a11.43 11.43 0 0 1 5.015 8.787 1.4 1.4 0 0 0 .679 1.124 9.031 9.031 0 0 1 4.413 7.783l-.016.143-.453-.046a5.132 5.132 0 0 0-5.154 5.1 5.123 5.123 0 0 0 .8 2.772 8.62 8.62 0 0 1-7.293.561 1.4 1.4 0 0 0-1.785.827 11.791 11.791 0 0 1-7.054 6.908 6.981 6.981 0 0 0-7.752 0 11.791 11.791 0 0 1-7.054-6.908 1.406 1.406 0 0 0-1.309-.916zm-12.755-.983a2.061 2.061 0 0 1-1.686-2.378 2.47 2.47 0 0 1 .067-.275 2.4 2.4 0 0 1 2.25-1.9l.054.012a2.339 2.339 0 0 1 2.289 2.331 2.343 2.343 0 0 1-.262 1.031 2.345 2.345 0 0 1-1 1.012 2.28 2.28 0 0 1-1.082.3 2.284 2.284 0 0 1-.627-.131zm25-51.409a15.48 15.48 0 0 1 15.467 15.455 15.289 15.289 0 0 1-1.739 7.091c-.22.423-.488.819-.75 1.222s-.474.793-.763 1.166l-.034.044a19.03 19.03 0 0 0-4.214 11.559h-2.811v-11.441l.081-.2.644-1.607.633-1.582 2.289-5.727a1.406 1.406 0 0 0-.785-1.826 1.406 1.406 0 0 0-1.233.094l-3.03 1.793-3.034-1.793a1.411 1.411 0 0 0-1.429 0l-3.034 1.793-3.04-1.788a1.406 1.406 0 0 0-1.924.5 1.4 1.4 0 0 0-.094 1.233l2.225 5.575.584 1.454.58 1.455.262.635v11.437h-2.81a18.739 18.739 0 0 0-3.735-10.894c-.166-.232-.323-.466-.5-.695-.131-.161-.234-.327-.352-.492a13.474 13.474 0 0 1-.767-1.167 15.3 15.3 0 0 1-2.142-7.957 15.585 15.585 0 0 1 15.024-15.34zm-2.343 25.28v-.449a1.388 1.388 0 0 0-.1-.524l-.28-.7-.654-1.632-1.284-3.207.187.114a1.4 1.4 0 0 0 1.429 0l3.043-1.792 3.034 1.792a1.4 1.4 0 0 0 1.428 0l.188-.114-1.578 3.946-.637 1.594a1.393 1.393 0 0 0-.065.335 1.517 1.517 0 0 0-.035.187v11.714h-4.685zm-5.628 14.075h15.931v6.091a.469.469 0 0 1-.469.469h-14.993a.469.469 0 0 1-.469-.469zm34.671 9.839a2.522 2.522 0 0 1-2.343 2.343 2.28 2.28 0 0 1-1.082-.3 2.324 2.324 0 0 1-.993-1.012 2.288 2.288 0 0 1-.262-1.031 2.337 2.337 0 0 1 2.288-2.328l.054-.012a2.663 2.663 0 0 1 2.348 2.343zm-28.333 12.995a4.057 4.057 0 0 1 3.254 0 4.934 4.934 0 0 1 1.671 1.11 6.531 6.531 0 0 1 1.856 4.64 5.688 5.688 0 0 1-5.154 6.091 5.688 5.688 0 0 1-5.154-6.091 6.544 6.544 0 0 1 1.853-4.64 4.991 4.991 0 0 1 1.684-1.115zm18.962 5.749a5.689 5.689 0 0 1 5.154-6.091 5.1 5.1 0 0 1 4.524 3.235 6.786 6.786 0 0 1 .573 2.195c.018.219.056.435.056.661a7 7 0 0 1-.421 2.4 6.268 6.268 0 0 1-1.107 1.92 4.774 4.774 0 0 1-3.625 1.767 5.688 5.688 0 0 1-5.154-6.1zm16.4-4.217a6.185 6.185 0 0 1 5.051 7.145 6.187 6.187 0 0 1-4.877 5.021 5.123 5.123 0 0 0-3.878-1.848 6.325 6.325 0 0 1-.823-1.365 9.57 9.57 0 0 0 1.245-4.73 9.742 9.742 0 0 0-.344-2.449 4.769 4.769 0 0 1 3.624-1.772zm1.359 14.993h4.264a2.345 2.345 0 0 1 2.339 2.344v2.343h-6.56v-4.222l-.047-.472zM-288.044 140.477a5.154 5.154 0 0 0 5.154-5.154 5.154 5.154 0 0 0-5.154-5.154 5.154 5.154 0 0 0-5.154 5.154 5.154 5.154 0 0 0 5.154 5.154zm0-7.5a2.342 2.342 0 0 1 1.657.686 2.342 2.342 0 0 1 .686 1.657 2.341 2.341 0 0 1-.686 1.657 2.341 2.341 0 0 1-1.657.686 2.343 2.343 0 0 1-2.343-2.343 2.343 2.343 0 0 1 2.343-2.343zM-209.331 130.169a5.154 5.154 0 0 0-5.154 5.154 5.154 5.154 0 0 0 5.154 5.154 5.154 5.154 0 0 0 5.154-5.154 5.154 5.154 0 0 0-5.154-5.154zm0 7.5a2.341 2.341 0 0 1-1.657-.686 2.342 2.342 0 0 1-.686-1.657 2.341 2.341 0 0 1 .686-1.657 2.342 2.342 0 0 1 1.657-.686 2.343 2.343 0 0 1 2.343 2.343 2.343 2.343 0 0 1-2.343 2.343zM-293.2 101.589a1.406 1.406 0 0 0 1.406 1.406h9.371a1.406 1.406 0 0 0 1.406-1.406 1.406 1.406 0 0 0-1.406-1.406h-9.371a1.406 1.406 0 0 0-1.406 1.406zM-271.645 101.589a1.406 1.406 0 0 0-1.406-1.406h-3.749a1.406 1.406 0 0 0-1.406 1.406 1.406 1.406 0 0 0 1.406 1.406h3.748a1.406 1.406 0 0 0 1.406-1.406zM-205.583 100.184h-9.371a1.406 1.406 0 0 0-1.406 1.406 1.406 1.406 0 0 0 1.406 1.406h9.371a1.406 1.406 0 0 0 1.406-1.406 1.406 1.406 0 0 0-1.406-1.406zM-219.17 101.589a1.406 1.406 0 0 0-1.406-1.406h-3.75a1.406 1.406 0 0 0-1.406 1.406 1.406 1.406 0 0 0 1.406 1.406h3.748a1.406 1.406 0 0 0 1.407-1.406zM-275.761 110.461l-13.873 4.539a1.406 1.406 0 0 0-.9 1.772 1.406 1.406 0 0 0 1.336.97 1.421 1.421 0 0 0 .438-.069l13.873-4.535a1.407 1.407 0 0 0 .9-1.775 1.406 1.406 0 0 0-1.772-.9zM-215.668 89.571a1.411 1.411 0 0 0-1.8-.84l-8.808 3.205a1.406 1.406 0 0 0-.842 1.8 1.408 1.408 0 0 0 1.323.927 1.467 1.467 0 0 0 .48-.085l8.808-3.2a1.407 1.407 0 0 0 .84-1.8zM-211.706 89.535a1.44 1.44 0 0 0 .483-.082l3.523-1.284a1.407 1.407 0 0 0 .839-1.8 1.406 1.406 0 0 0-1.8-.839l-3.522 1.281a1.406 1.406 0 0 0-.842 1.8 1.406 1.406 0 0 0 1.321.927zM-270.264 93.739a1.407 1.407 0 0 0-.839-1.8l-8.808-3.205a1.407 1.407 0 0 0-1.8.842 1.407 1.407 0 0 0 .842 1.8l8.808 3.2a1.454 1.454 0 0 0 .479.085 1.411 1.411 0 0 0 1.318-.922zM-286.151 89.45a1.446 1.446 0 0 0 .483.082 1.4 1.4 0 0 0 1.406-1.4 1.406 1.406 0 0 0-.927-1.322l-3.522-1.28a1.406 1.406 0 0 0-1.8.84 1.406 1.406 0 0 0 .84 1.8zM-222.484 113.131l13.873 4.536a1.451 1.451 0 0 0 .436.069 1.406 1.406 0 0 0 1.408-1.4 1.4 1.4 0 0 0-.97-1.339l-13.873-4.536a1.406 1.406 0 0 0-1.773.9 1.406 1.406 0 0 0 .9 1.773z" transform="translate(293.198 -83.317)"/></g></svg>