<svg xmlns="http://www.w3.org/2000/svg" width="23" height="23" viewBox="0 0 23 23"><g transform="translate(-1255 -1443)"><path d="M896,301v-8.5a2.946,2.946,0,0,0-3-3H876a2.946,2.946,0,0,0-3,3v17a2.946,2.946,0,0,0,3,3h17a2.946,2.946,0,0,0,3-3Z" transform="translate(382 1153.5)" fill="#3071ff"/><path d="M882.6,305.3l-3.9-3.9a.5.5,0,0,1,0-.8l.9-.8a.5.5,0,0,1,.8,0l2.6,2.6,5.6-5.6a.5.5,0,0,1,.8,0l.9.8a.758.758,0,0,1,.2.4.519.519,0,0,1-.2.4l-6.9,6.9a.758.758,0,0,1-.4.2A.52.52,0,0,1,882.6,305.3Z" transform="translate(382 1153.4)" fill="#fff"/></g></svg>