<svg xmlns="http://www.w3.org/2000/svg" xmlns:xlink="http://www.w3.org/1999/xlink" viewBox="0 0 596.3 381.7" enable-background="new 0 0 596.3 381.7"><style type="text/css">.st0{clip-path:url(#SVGID_2_);} .st1{fill:url(#SVGID_3_);} .st2{fill:url(#SVGID_4_);} .st3{fill:#E4E3FF;} .st4{clip-path:url(#SVGID_6_);} .st5{fill:url(#SVGID_7_);} .st6{fill:url(#SVGID_8_);} .st7{fill:url(#SVGID_9_);} .st8{fill:url(#SVGID_10_);} .st9{fill:url(#SVGID_11_);} .st10{fill:url(#SVGID_12_);} .st11{fill:url(#SVGID_13_);} .st12{fill:url(#SVGID_14_);} .st13{fill:url(#SVGID_15_);} .st14{fill:url(#SVGID_16_);} .st15{fill:none;stroke:url(#SVGID_17_);stroke-miterlimit:10;} .st16{fill:none;stroke:url(#SVGID_18_);stroke-miterlimit:10;} .st17{fill:none;stroke:url(#SVGID_19_);stroke-miterlimit:10;} .st18{fill:none;stroke:url(#SVGID_20_);stroke-miterlimit:10;} .st19{fill:none;stroke:url(#SVGID_21_);stroke-miterlimit:10;} .st20{fill:url(#SVGID_22_);} .st21{fill:url(#SVGID_23_);} .st22{fill:url(#SVGID_24_);} .st23{fill:none;stroke:url(#SVGID_25_);stroke-miterlimit:10;} .st24{fill:url(#SVGID_26_);} .st25{fill:url(#SVGID_27_);} .st26{fill:url(#SVGID_28_);} .st27{fill:none;stroke:#E4E3FF;stroke-miterlimit:10;} .st28{fill:url(#SVGID_29_);} .st29{fill:url(#SVGID_30_);} .st30{fill:none;stroke:#FFFFFF;stroke-width:1.5;stroke-miterlimit:10;} .st31{fill:#9999EF;} .st32{fill:url(#SVGID_31_);} .st33{fill:#FFFFFF;} .st34{fill:url(#SVGID_32_);} .st35{fill:url(#SVGID_33_);} .st36{opacity:0.25;fill:#ADADEA;} .st37{fill:url(#SVGID_34_);} .st38{fill:url(#SVGID_35_);} .st39{opacity:0.55;fill:#ABBDFF;} .st40{fill:url(#SVGID_36_);} .st41{fill:url(#SVGID_37_);} .st42{opacity:0.75;fill:#C5CFFC;} .st43{fill:url(#SVGID_38_);} .st44{fill:#FFEEFC;} .st45{fill:none;stroke:#F4DCE9;stroke-width:2;stroke-miterlimit:10;} .st46{opacity:0.4;} .st47{fill:#F4DCE9;} .st48{fill:url(#SVGID_39_);} .st49{fill:url(#SVGID_40_);} .st50{fill:#F49E87;} .st51{fill:#F73179;} .st52{opacity:0.45;fill:#CC729B;} .st53{fill:none;stroke:#D31E67;stroke-miterlimit:10;} .st54{fill:url(#SVGID_41_);} .st55{fill:#103FCD;} .st56{fill:#0D30BF;} .st57{fill:#0D1D7D;} .st58{fill:#081466;} .st59{fill:#F9C6B9;} .st60{fill:url(#SVGID_42_);} .st61{fill:#EFA39C;} .st62{fill:url(#SVGID_43_);} .st63{fill:url(#SVGID_44_);} .st64{fill:url(#SVGID_45_);} .st65{fill:#7490F7;} .st66{fill:#9494F2;} .st67{fill:url(#SVGID_46_);} .st68{fill:#FFE1FF;} .st69{fill:#646EF2;} .st70{clip-path:url(#SVGID_2_);fill:url(#SVGID_47_);}</style><g id="OBJECTS"><defs><path id="SVGID_1_" d="M0 0h596.3v381.7h-596.3z"/></defs><clipPath id="SVGID_2_"><use xlink:href="#SVGID_1_" overflow="visible"/></clipPath><g class="st0"><linearGradient id="SVGID_3_" gradientUnits="userSpaceOnUse" x1="-60.651" y1="39.356" x2="338.349" y2="438.355" gradientTransform="matrix(-1 0 0 1 596.258 0)"><stop offset="0" stop-color="#BABEFF" stop-opacity=".2"/><stop offset="1" stop-color="#F6F3FF" stop-opacity=".4"/></linearGradient><path class="st1" d="M608.2 339.6h-449.1c3.4-11.3 45.9-16.8 63-20.2 14-2.7 28.3-7.4 38.9-17.4 7.1-6.7 11.5-15.6 14.5-24.7 2.8-8.4 3.2-18.9 8.7-26 9.1-11.7 24.3-9 35.5-16.5s17.5-20.8 20.4-33.6c4.1-17.9-.9-36.1 3.7-54 4.4-17 16.8-27.5 29.8-38.2 22.7-18.7 33.3-45.2 42.2-72.4 11.4-34.8 59.8-45.8 59.8-45.8h132.5v348.8z"/></g><g class="st0"><linearGradient id="SVGID_4_" gradientUnits="userSpaceOnUse" x1="71.88" y1="264.381" x2="71.88" y2="156.449" gradientTransform="matrix(-1 0 0 1 596.258 0)"><stop offset="0" stop-color="#AD9EEA"/><stop offset=".25" stop-color="#B3A6EB"/><stop offset=".644" stop-color="#C4BDEF"/><stop offset="1" stop-color="#D7D7F4"/></linearGradient><path class="st2" d="M506.9 235.1c3.6.4 6.8 2.8 8.8 5.9 1.4 2.2 2.3 4.7 3 7.3.1-4.2.2-8.5.4-12.7-7.1-2.5-12.1-8.7-10.3-13.8 3.1.3 5.9 2.4 7.6 5.1 1.4 2.2 2.2 4.7 2.8 7.3.2-4 .5-7.9.8-11.8-7-2.6-11.9-8.7-10.1-13.7 3.1.3 5.9 2.4 7.6 5.1 1.3 2.1 2.1 4.4 2.7 6.8.3-3.3.7-6.6 1.2-9.9-5.9-3.2-9.5-9.4-7.1-13.5 2.6.7 4.7 3 5.8 5.5 1.1 2.5 1.3 5.2 1.3 7.9.4-3.1.9-6.2 1.5-9.3-5.3-3.8-8.1-10.3-5.3-14.1 2.5 1 4.3 3.5 5.1 6.1.6 1.9.7 3.9.6 5.9.7-3.4 1.4-6.7 2.3-10.1-5.4-3.8-8.2-10.3-5.4-14.1 2.5 1 4.3 3.5 5.1 6.1.7 2.2.7 4.4.6 6.7.8-3 1.7-6 2.7-8.9-4.5-3.2-6.9-8.7-4.5-11.9 2.1.9 3.7 2.9 4.3 5.1.6 1.9.6 4 .5 6.1.8-2.2 1.6-4.4 2.5-6.6-3.4-3.4-4.6-8.3-2.2-10.7 1.7 1 2.7 3 2.9 4.9.2 1.5 0 3.1-.3 4.6l1.5-3.5c-.2-5.2 2.4-10.2 6.2-10.3.6 2.1 0 4.5-1.2 6.3-1.2 1.7-2.9 3.1-4.7 4.2-.5 1.1-1 2.3-1.4 3.5 2.6-4.2 7-6.8 10.2-5.1-.5 2.2-2.3 3.9-4.3 4.8-2 .9-4.2 1.2-6.3 1.3-.9 2.3-1.7 4.6-2.5 6.9 2.9-5.5 8.5-8.9 12.4-6.9-.6 2.5-2.6 4.5-5 5.6-2.3 1.1-4.9 1.4-7.5 1.5-.9 2.9-1.8 5.8-2.5 8.7 3.5-5.7 9.6-9.1 14-6.8-.7 3-3.1 5.4-5.9 6.7-2.6 1.2-5.6 1.6-8.5 1.8-.8 3.2-1.5 6.4-2.1 9.6 2.8-6.6 8.5-11.1 13.5-9.5-.2 3.4-2.3 6.4-5.1 8.4-2.6 1.9-5.7 2.9-8.9 3.6-.5 2.8-.9 5.6-1.3 8.4 5.1-5.7 12.6-8.2 16.9-4.7-1.4 3.1-4.5 5.1-7.8 5.9-3 .7-6.2.6-9.2.1-.5 3.7-.9 7.5-1.2 11.2 5.4-5.5 13.1-7.6 17.2-3.9-1.6 3-4.8 4.8-8.1 5.5-3 .6-6.2.2-9.2-.4-.3 3.9-.6 7.7-.8 11.6 4.6-6.3 12.2-9.6 16.8-6.3-1.2 3.2-4.2 5.4-7.4 6.5-3 1-6.3 1-9.5.8l-.6 13.4c4.2-7.3 12-11.8 17.3-8.8-.9 3.5-3.8 6.3-7.2 7.9-3.2 1.4-6.7 1.9-10.2 2-.2 4.7-.3 9.3-.5 13.9 0 .2-.3.2-.3 0v-13.2c-8.1-3.1-13.9-10.2-11.7-16z"/><path class="st3" d="M336.9 338.9c-1.1-1.5-2.1-3.1-3-4.8-4.3-8.4-4.7-18.2-4-27.6.8-10.8 2.9-21.5 6.3-31.8 1.3-3.8 3-8 6.8-9.6 2.8-1.2 6.1-.6 9.1.1 12.2 3 23.8 8.1 34.3 14.9-9.4-18-28.2-29.3-39.2-46.4-1.6-2.4-2.9-5.6-1.3-8 1.8-2.7 5.9-2 9-1 26.5 9 49.9 26.9 65.6 50.1-6.7-29.5-35.7-47.9-52.2-73.3-2.5-3.8-4.4-9.4-.9-12.3 1.7-1.4 4.1-1.5 6.3-1.4 7.6.5 14.8 3.3 21.6 6.5 25.2 11.7 47.7 29.2 65.3 50.7-4.5-12.8-16.9-21.3-22.2-33.8-1.4-3.2-1.9-7.6 1-9.4 1.7-1.1 4-.8 6-.3 27 6.6 49.2 54.1 49.2 54.1s.6-45.5 2.3-66.9c.7-8.6 4.2-30.2 17.6-21.9 14.3 8.8 6.4 98.1 6.4 98.1s5.4-42.1 10.5-62.1c1.3-5.1 8.5-16.3 12.7-6.5 1.1 2.5 1.1 5.4.8 8.2-2.7 23.9-15.1 64.5-15.1 64.5s24-64.3 31.1-77.5c7.1-13.2 16.5-25.7 29.6-33.1 18-10.2 38-.9 39.9 21.9 4 46.4-78.6 138.9-95.3 155.8 41.1-60.9 127.9-102 151.7-83.7 3.4 2.6 9.4 8.3 5.4 20.8-3.9 12.1-53 65.6-83.4 65.6-51 .1-271.9.1-271.9.1z"/><defs><path id="SVGID_5_" d="M336.9 338.9c-1.1-1.5-2.1-3.1-3-4.8-4.3-8.4-4.7-18.2-4-27.6.8-10.8 2.9-21.5 6.3-31.8 1.3-3.8 3-8 6.8-9.6 2.8-1.2 6.1-.6 9.1.1 12.2 3 23.8 8.1 34.3 14.9-9.4-18-28.2-29.3-39.2-46.4-1.6-2.4-2.9-5.6-1.3-8 1.8-2.7 5.9-2 9-1 26.5 9 49.9 26.9 65.6 50.1-6.7-29.5-35.7-47.9-52.2-73.3-2.5-3.8-4.4-9.4-.9-12.3 1.7-1.4 4.1-1.5 6.3-1.4 7.6.5 14.8 3.3 21.6 6.5 25.2 11.7 47.7 29.2 65.3 50.7-4.5-12.8-16.9-21.3-22.2-33.8-1.4-3.2-1.9-7.6 1-9.4 1.7-1.1 4-.8 6-.3 27 6.6 49.2 54.1 49.2 54.1s.6-45.5 2.3-66.9c.7-8.6 4.2-30.2 17.6-21.9 14.3 8.8 6.4 98.1 6.4 98.1s5.4-42.1 10.5-62.1c1.3-5.1 8.5-16.3 12.7-6.5 1.1 2.5 1.1 5.4.8 8.2-2.7 23.9-15.1 64.5-15.1 64.5s24-64.3 31.1-77.5c7.1-13.2 16.5-25.7 29.6-33.1 18-10.2 38-.9 39.9 21.9 4 46.4-78.6 138.9-95.3 155.8 41.1-60.9 127.9-102 151.7-83.7 3.4 2.6 9.4 8.3 5.4 20.8-3.9 12.1-53 65.6-83.4 65.6-51 .1-271.9.1-271.9.1z"/></defs><clipPath id="SVGID_6_"><use xlink:href="#SVGID_5_" overflow="visible"/></clipPath><g class="st4"><linearGradient id="SVGID_7_" gradientUnits="userSpaceOnUse" x1="58.621" y1="338.235" x2="-42.291" y2="151.733" gradientTransform="matrix(-1 0 0 1 596.258 0)"><stop offset="0" stop-color="#5B6DFF" stop-opacity=".2"/><stop offset="1" stop-color="#5B6DFF" stop-opacity=".1"/></linearGradient><path class="st5" d="M534.7 338.9h-9.1c6.7-16.7 16.3-43 29.6-73.8 30.3-70.1 62.5-117.5 62.5-117.5 7.8 3.8 24.3 18 26 29.6 4.9 35.1-109 161.7-109 161.7z"/><linearGradient id="SVGID_8_" gradientUnits="userSpaceOnUse" x1="99.474" y1="324.276" x2="30.892" y2="197.525" gradientTransform="matrix(-1 0 0 1 596.258 0)"><stop offset="0" stop-color="#5B6DFF" stop-opacity=".2"/><stop offset="1" stop-color="#5B6DFF" stop-opacity=".1"/></linearGradient><path class="st6" d="M540.7 192.1s-10.8 37.7-16.9 86.1c-5.9 47.6-7.8 61.3-7.8 61.3l14.1-72.8 21.5-71.9-10.9-2.7z"/><linearGradient id="SVGID_9_" gradientUnits="userSpaceOnUse" x1="126.147" y1="325.274" x2="44.549" y2="174.467" gradientTransform="matrix(-1 0 0 1 596.258 0)"><stop offset="0" stop-color="#5B6DFF" stop-opacity=".2"/><stop offset="1" stop-color="#5B6DFF" stop-opacity=".1"/></linearGradient><path class="st7" d="M508.3 164.6s2.9 151.7-4.1 174.3c-7 22.6 7.6-.5 7.6-.5l9.4-77.2 7.2-93.6-20.1-3z"/><linearGradient id="SVGID_10_" gradientUnits="userSpaceOnUse" x1="150.142" y1="305.657" x2="95.337" y2="204.369" gradientTransform="matrix(-1 0 0 1 596.258 0)"><stop offset="0" stop-color="#5B6DFF" stop-opacity=".2"/><stop offset="1" stop-color="#5B6DFF" stop-opacity=".1"/></linearGradient><path class="st8" d="M439.4 201.9s23.7 17.4 36 43.4c25.4 53.9 26.2 94.3 26.2 94.3s3.4-42-7.2-86.6c-10.6-44.6-52.3-76.6-52.3-76.6l-2.7 25.5z"/><linearGradient id="SVGID_11_" gradientUnits="userSpaceOnUse" x1="200.42" y1="303.702" x2="149.144" y2="208.935" gradientTransform="matrix(-1 0 0 1 596.258 0)"><stop offset="0" stop-color="#5B6DFF" stop-opacity=".2"/><stop offset="1" stop-color="#5B6DFF" stop-opacity=".1"/></linearGradient><path class="st9" d="M475.7 338.9s-8.4-44.7-27.7-77.7c-34.9-59.7-80.5-72-80.5-72s-21.5-23.6 1.4-17.5c22.9 6.1 79.4 50.3 91.9 73.3 17.7 32.5 28.7 74.1 21.5 97-7.3 23-6.6-3.1-6.6-3.1z"/><linearGradient id="SVGID_12_" gradientUnits="userSpaceOnUse" x1="211.762" y1="301.238" x2="179.903" y2="242.356" gradientTransform="matrix(-1 0 0 1 596.258 0)"><stop offset="0" stop-color="#5B6DFF" stop-opacity=".2"/><stop offset="1" stop-color="#5B6DFF" stop-opacity=".1"/></linearGradient><path class="st10" d="M451.2 339.6s-28.4-48.5-55.7-73.1c-27.3-24.6-49.5-40.9-49.5-40.9s-4.5-14 .9-14 23.4 8 23.4 8l41.1 37 9.1 18.1c0 .1 21 31.4 30.7 64.9z"/><linearGradient id="SVGID_13_" gradientUnits="userSpaceOnUse" x1="10.437" y1="389.658" x2="-74.493" y2="232.693" gradientTransform="matrix(-1 0 0 1 596.258 0)"><stop offset="0" stop-color="#5B6DFF" stop-opacity=".2"/><stop offset="1" stop-color="#5B6DFF" stop-opacity=".1"/></linearGradient><path class="st11" d="M717.6 264.4s-20.8-18.3-73 9.6c-52.3 27.9-123.5 86.7-123.5 86.7l117.3 6.5 57-31.6 22.2-71.2z"/></g><linearGradient id="SVGID_14_" gradientUnits="userSpaceOnUse" x1="50.399" y1="288.625" x2="-5.6" y2="150.626" gradientTransform="matrix(-.998 -.059 -.059 .998 610.439 2.34)"><stop offset="0" stop-color="#AD9EEA"/><stop offset=".25" stop-color="#B3A6EB"/><stop offset=".644" stop-color="#C4BDEF"/><stop offset="1" stop-color="#D7D7F4"/></linearGradient><path class="st12" d="M536.2 283.1c-5.7-6.5-7.4-15.5-2.8-19.6 3 2.1 4.7 5.7 5 9.4.2 2.6-.2 5.3-.9 7.8 2.1-3.7 4.2-7.4 6.4-11-5-5.6-6.5-13.4-2.5-17 2.6 1.8 4 4.9 4.3 8.1.2 2.6-.3 5.2-1 7.7 2-3.4 4.2-6.7 6.3-10-4.9-5.6-6.4-13.3-2.4-16.8 2.6 1.8 4 4.9 4.3 8.1.2 2.4-.2 4.9-.9 7.3 1.8-2.8 3.7-5.5 5.7-8.1-3.7-5.6-3.9-12.8.2-15.3 2 1.9 2.7 4.8 2.5 7.6-.2 2.7-1.3 5.2-2.5 7.5 1.9-2.5 3.8-5 5.7-7.4-2.9-5.9-2.3-12.9 2-14.9 1.8 2.1 2.2 5.1 1.6 7.8-.4 1.9-1.2 3.7-2.2 5.4 2.2-2.6 4.5-5.2 6.8-7.7-2.9-5.9-2.3-12.9 2-14.9 1.8 2.1 2.2 5.1 1.6 7.8-.4 2.2-1.5 4.2-2.7 6.1 2.1-2.2 4.3-4.4 6.6-6.5-2.5-5-1.9-10.9 1.7-12.6 1.5 1.8 1.8 4.3 1.4 6.6-.4 2-1.4 3.8-2.5 5.5 1.7-1.6 3.5-3.1 5.3-4.6-1.4-4.6-.1-9.5 3.2-10.4 1 1.7 1 3.9.3 5.7-.5 1.4-1.4 2.7-2.5 3.9l3-2.4c2.3-4.7 6.9-7.8 10.3-6.1-.4 2.2-2.1 4-4.1 5-1.9 1-4 1.3-6.1 1.5-1 .8-1.9 1.6-2.9 2.3 4.3-2.5 9.4-2.6 11.4.4-1.5 1.7-3.8 2.3-6.1 2.2-2.2-.1-4.2-.9-6.2-1.9-1.9 1.6-3.7 3.2-5.5 4.9 5.1-3.5 11.7-3.8 14.2-.2-1.7 1.9-4.5 2.7-7.1 2.6-2.6-.1-5-1.1-7.3-2.2-2.2 2.1-4.3 4.2-6.3 6.4 5.8-3.4 12.8-3.5 15.5.6-2.1 2.3-5.3 3.2-8.4 3.1-2.9-.2-5.7-1.2-8.3-2.4-2.2 2.4-4.4 4.9-6.4 7.5 5.6-4.5 12.8-5.7 16.4-2-1.8 2.9-5.1 4.5-8.5 5-3.2.4-6.4-.2-9.5-1-1.7 2.2-3.4 4.5-5.1 6.8 7.2-2.6 15-1.3 17.1 3.8-2.7 2-6.4 2.3-9.7 1.5-3-.8-5.7-2.4-8.2-4.3-2.2 3.1-4.3 6.2-6.4 9.3 7.4-2.3 15.2-.5 17 4.8-2.8 1.9-6.5 2-9.8 1-2.9-.9-5.5-2.7-7.9-4.7-2.1 3.2-4.2 6.5-6.2 9.8 7.1-3.4 15.3-2.7 17.8 2.4-2.6 2.2-6.2 2.8-9.6 2.2-3.1-.6-6-2.1-8.7-3.8l-6.9 11.5c7.2-4.5 16.1-4.7 19.4.4-2.5 2.7-6.4 3.8-10 3.5-3.5-.2-6.8-1.5-9.9-3.1-2.4 4-4.7 8.1-7 12.1-.1.2-.4 0-.3-.2 2.1-4.1 4.2-7.9 6.3-11.8z"/><linearGradient id="SVGID_15_" gradientUnits="userSpaceOnUse" x1="176.673" y1="280.276" x2="241.444" y2="215.505" gradientTransform="matrix(-1 0 0 1 596.258 0)"><stop offset="0" stop-color="#AD9EEA"/><stop offset=".25" stop-color="#B3A6EB"/><stop offset=".644" stop-color="#C4BDEF"/><stop offset="1" stop-color="#D7D7F4"/></linearGradient><path class="st13" d="M369.5 219.3c-.7-.7-1.5-1.4-2.2-2-1.7-.3-3.5-.7-5-1.6-1.6-1-2.9-2.6-3.2-4.4 2.9-1.2 6.7 1.6 8.4 5.7.8.7 1.6 1.3 2.3 2-.8-1-1.4-2.1-1.8-3.3-.5-1.6-.4-3.4.5-4.8 2.7 1 3.5 5.2 2.1 8.9 1.4 1.3 2.8 2.7 4.2 4.1-.8-1.5-1.5-3.1-1.8-4.7-.3-1.9.1-4 1.5-5.5 2.9 1.6 3.1 6.6.8 10.7 1.8 1.8 3.5 3.7 5.2 5.7-.9-1.6-1.6-3.3-1.8-5.1-.3-2.3.2-4.8 1.8-6.5 3.5 1.9 3.7 7.8.9 12.7 1.8 2.2 3.5 4.4 5.2 6.7-.7-1.4-1.3-2.9-1.5-4.5-.3-2.3.2-4.8 1.8-6.5 3.5 1.9 3.7 7.8 1 12.6 1.5 2.1 2.9 4.2 4.3 6.3-.9-2-1.6-4.1-1.6-6.2-.1-2.3.7-4.7 2.5-6.2 3.3 2.3 2.8 8.3-.6 12.8 1.5 2.3 2.9 4.6 4.3 7-.4-2-.6-4-.3-5.9.4-2.6 1.7-5.2 4-6.6 3.2 3.2 1.6 9.6-2.8 14 1.6 2.8 3.2 5.7 4.7 8.6-.5-2.1-.7-4.2-.4-6.3.4-2.6 1.7-5.2 4-6.6 3.2 3.2 1.6 9.7-2.9 14.1 1.6 3.1 3.2 6.3 4.7 9.5-.4-2.1-.6-4.3-.3-6.4.4-3.1 2-6.1 4.7-7.7 3.7 3.7 1.8 11.2-3.3 16.4 1.6 3.4 3.2 6.8 4.7 10.1.1.2-.2.3-.3.2l-5.4-10.5c-2.7 1.1-5.5 2.1-8.4 2.1-3.1 0-6.3-1.1-8.3-3.5 3-4.1 10.4-3.5 16.3.5-1.7-3.3-3.4-6.6-5.2-9.9-2.3 1.3-4.8 2.4-7.5 2.7-2.8.3-5.9-.3-7.9-2.3 2.4-4.1 9.2-4.3 15-1.2-1.5-2.8-3.1-5.7-4.7-8.5-2.1 1.5-4.3 2.9-6.8 3.5-2.8.7-5.9.4-8.2-1.3 1.8-4.3 8.4-5.4 14.5-3.2-1.6-2.7-3.2-5.4-4.9-8.1-2.2 1.4-4.5 2.6-7.1 3.1-2.8.5-5.9.1-8.1-1.8 2-4.2 8.6-4.9 14.5-2.4l-3.9-5.9c-2.6.6-5.4.9-8 .4-2.8-.5-5.5-2.1-6.9-4.6 3.2-2.9 9-1.6 13.5 2.3-1.6-2.2-3.2-4.3-4.9-6.4-2.3.9-4.6 1.6-7.1 1.6-2.6 0-5.3-1-6.9-3 2.5-3.3 8.2-2.9 13 .2-1.6-1.9-3.2-3.8-4.9-5.6-2 .8-4.1 1.5-6.3 1.5s-4.5-.8-5.8-2.5c2.2-2.9 7.6-2.4 11.7.7-1.4-1.4-2.8-2.9-4.2-4.2-1.7.7-3.5 1.2-5.3 1.2-1.9 0-3.8-.7-5-2.2 1.8-2.5 6-2.2 9.4 0z"/><linearGradient id="SVGID_16_" gradientUnits="userSpaceOnUse" x1="88.64" y1="251.677" x2="133.233" y2="174.44" gradientTransform="matrix(-1 0 0 1 596.258 0)"><stop offset="0" stop-color="#AD9EEA"/><stop offset=".25" stop-color="#B3A6EB"/><stop offset=".644" stop-color="#C4BDEF"/><stop offset="1" stop-color="#D7D7F4"/></linearGradient><path class="st14" d="M476.1 186.2c-2-.8-3.8-2.4-4.5-4.5 3.2-1.9 7.9.6 10.6 5-.7-1.8-1.5-3.7-2.3-5.5-1.8 0-3.7-.1-5.3-.8-1.7-.7-3.3-2.1-3.8-3.9 2.6-1.5 6.3.3 8.7 3.7l-1.3-2.7c-1.5-.9-3-1.9-4.1-3.3-1.1-1.5-1.8-3.5-1.3-5.3 3.2 0 5.6 3.9 5.7 8.4.5.9.9 1.8 1.4 2.8-.3-1.2-.5-2.4-.4-3.7.1-1.7.9-3.4 2.3-4.3 2.2 1.9 1.4 6.1-1.3 9.1.8 1.8 1.6 3.5 2.3 5.3-.2-1.7-.3-3.4.1-5 .5-1.9 1.6-3.7 3.4-4.5 2.1 2.6.4 7.3-3.2 10.2 1 2.4 1.8 4.8 2.6 7.2-.2-1.8-.2-3.7.2-5.5.6-2.2 1.9-4.4 4-5.4 2.5 3.1.5 8.6-3.8 12.1.9 2.7 1.6 5.4 2.3 8.1-.1-1.6-.1-3.1.3-4.7.6-2.2 1.9-4.4 4-5.4 2.5 3.1.5 8.6-3.8 12.1.6 2.4 1.1 4.9 1.6 7.4-.1-2.1.1-4.3.8-6.3.8-2.2 2.4-4.1 4.6-4.9 2.2 3.4-.5 8.7-5.3 11.7.5 2.7 1 5.4 1.4 8.1.4-2 .9-3.9 1.9-5.6 1.3-2.3 3.5-4.2 6.2-4.6 1.8 4.1-2.1 9.5-7.8 12 .5 3.2.9 6.5 1.2 9.7.3-2.1.9-4.1 2-6 1.3-2.3 3.5-4.2 6.2-4.6 1.8 4.2-2.2 9.6-8 12 .4 3.5.6 7 .9 10.5.4-2.1 1-4.2 2.1-6 1.5-2.7 4.1-4.9 7.2-5.4 2.1 4.8-2.4 11-9.1 14l.6 11.2c0 .2-.3.2-.3 0l-1.1-11.7c-2.9.1-5.9-.1-8.6-1.2-2.9-1.1-5.5-3.3-6.4-6.3 4.3-2.7 11 .6 14.9 6.5-.3-3.7-.7-7.4-1.1-11.2-2.7.3-5.4.4-7.9-.2-2.8-.7-5.4-2.5-6.5-5.1 3.7-2.9 10.2-.6 14.4 4.5-.3-3.2-.7-6.4-1.2-9.6-2.5.6-5.1 1.1-7.7.7-2.8-.4-5.6-1.8-7.1-4.2 3.3-3.3 9.8-1.9 14.6 2.4-.4-3.1-.9-6.2-1.5-9.3-2.6.5-5.2.8-7.7.3-2.8-.5-5.5-2.1-6.9-4.6 3.4-3.1 9.8-1.4 14.4 3.1-.4-2.3-.9-4.6-1.4-6.9-2.7-.5-5.3-1.2-7.6-2.6-2.4-1.5-4.4-4-4.7-6.8 4.1-1.5 9 1.9 11.7 7.1-.6-2.6-1.3-5.2-2.1-7.7-2.4 0-4.9-.2-7.1-1.1-2.4-1-4.5-2.9-5.3-5.4 3.5-2.1 8.7.4 12 5-.8-2.4-1.6-4.7-2.5-7-2.4-.4-4.6-.6-6.6-1.4z"/></g><g class="st0"><linearGradient id="SVGID_17_" gradientUnits="userSpaceOnUse" x1="275.159" y1="204.066" x2="271.665" y2="195.457" gradientTransform="matrix(-1 0 0 1 596.258 0)"><stop offset="0" stop-color="#AD9EEA"/><stop offset=".25" stop-color="#B3A6EB"/><stop offset=".644" stop-color="#C4BDEF"/><stop offset="1" stop-color="#D7D7F4"/></linearGradient><path class="st15" d="M323.9 196.4l.9 8.4-6.9-2.6z"/><linearGradient id="SVGID_18_" gradientUnits="userSpaceOnUse" x1="123.191" y1="151.984" x2="119.698" y2="143.376" gradientTransform="matrix(.365 -.931 -.931 -.365 588.726 322.855)"><stop offset="0" stop-color="#AD9EEA"/><stop offset=".25" stop-color="#B3A6EB"/><stop offset=".644" stop-color="#C4BDEF"/><stop offset="1" stop-color="#D7D7F4"/></linearGradient><path class="st16" d="M498.3 158.1l-8.1-2.3 4.9-5.4z"/><linearGradient id="SVGID_19_" gradientUnits="userSpaceOnUse" x1="101.749" y1="84.568" x2="98.256" y2="75.959" gradientTransform="matrix(-.981 .194 .194 .981 646.362 103.791)"><stop offset="0" stop-color="#AD9EEA"/><stop offset=".25" stop-color="#B3A6EB"/><stop offset=".644" stop-color="#C4BDEF"/><stop offset="1" stop-color="#D7D7F4"/></linearGradient><path class="st17" d="M564.2 198.4l2.5 8.1-7.3-1.2z"/><linearGradient id="SVGID_20_" gradientUnits="userSpaceOnUse" x1="186.647" y1="111.605" x2="183.154" y2="102.997" gradientTransform="matrix(-.046 .999 .999 .046 468.788 -96.112)"><stop offset="0" stop-color="#AD9EEA"/><stop offset=".25" stop-color="#B3A6EB"/><stop offset=".644" stop-color="#C4BDEF"/><stop offset="1" stop-color="#D7D7F4"/></linearGradient><path class="st18" d="M564.2 92.3l8.4-.5-2.9 6.8z"/><linearGradient id="SVGID_21_" gradientUnits="userSpaceOnUse" x1="124.89" y1="69.874" x2="108.277" y2="73.31" gradientTransform="matrix(-1 0 0 1 596.258 0)"><stop offset="0" stop-color="#AD9EEA"/><stop offset=".25" stop-color="#B3A6EB"/><stop offset=".644" stop-color="#C4BDEF"/><stop offset="1" stop-color="#D7D7F4"/></linearGradient><path class="st19" d="M487.214 73.351l-9.348 5.798-5.798-9.348 9.348-5.798z"/><linearGradient id="SVGID_22_" gradientUnits="userSpaceOnUse" x1="281.859" y1="184.829" x2="278.667" y2="187.858" gradientTransform="matrix(-.999 -.044 -.044 .999 641.569 -32.04)"><stop offset="0" stop-color="#AD9EEA"/><stop offset=".25" stop-color="#B3A6EB"/><stop offset=".644" stop-color="#C4BDEF"/><stop offset="1" stop-color="#D7D7F4"/></linearGradient><path class="st20" d="M351.7 143.1l3.1.2.1-3.1-3.1-.2z"/><linearGradient id="SVGID_23_" gradientUnits="userSpaceOnUse" x1="59.835" y1="183.392" x2="50.126" y2="192.604" gradientTransform="matrix(-.905 -.425 -.425 .905 709.522 24.762)"><stop offset="0" stop-color="#AD9EEA"/><stop offset=".25" stop-color="#B3A6EB"/><stop offset=".644" stop-color="#C4BDEF"/><stop offset="1" stop-color="#D7D7F4"/></linearGradient><path class="st21" d="M573.5 173.8l8.5 4 4.1-8.6-8.6-4z"/><linearGradient id="SVGID_24_" gradientUnits="userSpaceOnUse" x1="240.481" y1="292.061" x2="234.328" y2="297.899" gradientTransform="matrix(-.961 .278 .278 .961 503.943 -157.02)"><stop offset="0" stop-color="#AD9EEA"/><stop offset=".25" stop-color="#B3A6EB"/><stop offset=".644" stop-color="#C4BDEF"/><stop offset="1" stop-color="#D7D7F4"/></linearGradient><path class="st22" d="M355.7 196l5.8-1.7-1.7-5.7-5.8 1.6z"/><linearGradient id="SVGID_25_" gradientUnits="userSpaceOnUse" x1="206.23" y1="141.54" x2="197.443" y2="146.091" gradientTransform="matrix(-.914 -.406 -.406 .914 619.257 84.662)"><stop offset="0" stop-color="#AD9EEA"/><stop offset=".25" stop-color="#B3A6EB"/><stop offset=".644" stop-color="#C4BDEF"/><stop offset="1" stop-color="#D7D7F4"/></linearGradient><path class="st23" d="M378.947 137.449l-5.944-.821.821-5.944 5.944.821z"/><linearGradient id="SVGID_26_" gradientUnits="userSpaceOnUse" x1="26.442" y1="151.568" x2="24.971" y2="147.944" gradientTransform="matrix(-1 0 0 1 596.258 0)"><stop offset="0" stop-color="#AD9EEA"/><stop offset=".25" stop-color="#B3A6EB"/><stop offset=".644" stop-color="#C4BDEF"/><stop offset="1" stop-color="#D7D7F4"/></linearGradient><circle class="st24" cx="570.6" cy="149.8" r="2"/><linearGradient id="SVGID_27_" gradientUnits="userSpaceOnUse" x1="7.848" y1="58.002" x2="6.377" y2="54.378" gradientTransform="matrix(-1 0 0 1 596.258 0)"><stop offset="0" stop-color="#AD9EEA"/><stop offset=".25" stop-color="#B3A6EB"/><stop offset=".644" stop-color="#C4BDEF"/><stop offset="1" stop-color="#D7D7F4"/></linearGradient><circle class="st25" cx="589.1" cy="56.2" r="2"/><linearGradient id="SVGID_28_" gradientUnits="userSpaceOnUse" x1="249.111" y1="251.084" x2="247.64" y2="247.46" gradientTransform="matrix(-1 0 0 1 596.258 0)"><stop offset="0" stop-color="#AD9EEA"/><stop offset=".25" stop-color="#B3A6EB"/><stop offset=".644" stop-color="#C4BDEF"/><stop offset="1" stop-color="#D7D7F4"/></linearGradient><circle class="st26" cx="347.9" cy="249.3" r="2"/></g><g class="st0"><path class="st27" d="M341.5 64.1c13.3-1 25.6 8.2 28.3 21.3 1.8 8.5-.7 16.9-5.9 22.9l2.9 8.2c.3.8-.5 1.6-1.4 1.3l-8.8-3.6c-3.3 1.9-7 3-11.1 3.4-13.5 1.1-25.9-8.4-28.4-21.7-2.9-15.6 8.3-30.5 24.4-31.8z"/><linearGradient id="SVGID_29_" gradientUnits="userSpaceOnUse" x1="238.071" y1="90.406" x2="265.202" y2="90.406" gradientTransform="matrix(-1 0 0 1 596.258 0)"><stop offset="0" stop-color="#B6BCFC"/><stop offset="1" stop-color="#FFCAE0"/></linearGradient><path class="st28" d="M353.7 105l3.4-2.7c1.3-1 1.5-2.9.5-4.2l-2.6-3.2c-1-1.3-2.9-1.5-4.2-.5 0 0-1.9 1.9-3.5 1.1-1.8-.8-5.3-4.7-7.1-7.6-1.2-2 2-4.3 2-4.3 1.3-1 1.5-2.9.5-4.2l-2.6-3.2c-1-1.3-2.9-1.5-4.2-.5l-3.4 2.7c-7.5 6 14.6 31.9 21.2 26.6z"/><path class="st27" d="M255.5 200.7c10.8 1.1 19.5 9.8 20.5 20.6.7 7.9-2.5 15.1-8 19.7l1.3 7c.2.9-.8 1.5-1.6 1.1l-6.6-4c-3.3 1.2-6.9 1.7-10.7 1.3-10.6-1.2-19.2-9.9-20.2-20.5-1.4-14.6 10.8-26.7 25.3-25.2z"/><linearGradient id="SVGID_30_" gradientUnits="userSpaceOnUse" x1="334.989" y1="230.802" x2="351.291" y2="214.501" gradientTransform="matrix(-1 0 0 1 596.258 0)"><stop offset="0" stop-color="#B6BCFC"/><stop offset="1" stop-color="#FFCAE0"/></linearGradient><path class="st29" d="M251.3 231.5v-2.2c0-1.5-.8-2.9-2-3.5-2.9-1.5-4.6-4.4-4.6-7.6.1-4.5 3.8-8.3 8.3-8.3 2.3 0 4.4.8 6 2.4 1.6 1.6 2.5 3.7 2.5 6 0 1-.8 1.8-1.8 1.8s-1.8-.8-1.8-1.8c0-1.3-.5-2.5-1.4-3.4-.9-.9-2.1-1.4-3.3-1.4h-.1c-2.5 0-4.7 2.2-4.7 4.7 0 1.8 1 3.5 2.6 4.3 2.4 1.2 4 3.9 4 6.8v2.2c0 1-.8 1.8-1.8 1.8-1.1 0-1.9-.8-1.9-1.8zm0 4.9c0 1 .8 1.8 1.8 1.8s1.8-.8 1.8-1.8-.8-1.8-1.8-1.8c-1-.1-1.8.7-1.8 1.8z"/><path class="st30" d="M538.7 78.7c-14.7-5.6-31.6.6-39.2 14.4-5.1 9.4-5.1 20-1 28.8l-6.1 8.8c-.5.7.1 1.8 1 1.7l11.5-1.3c3.2 3.2 7.1 5.7 11.6 7.4 14.8 5.4 31.6-1.1 39-14.9 9-17.1 1.1-38.1-16.8-44.9z"/><path class="st31" d="M514.1 124.3l29.9-5.7-.4-22.1-36.3 6.3z"/><linearGradient id="SVGID_31_" gradientUnits="userSpaceOnUse" x1="52.678" y1="93.775" x2="88.978" y2="93.775" gradientTransform="matrix(-1 0 0 1 596.258 0)"><stop offset="0" stop-color="#A79EFC"/><stop offset="1" stop-color="#FFC3D4"/></linearGradient><path class="st32" d="M507.3 102.8l36.3-6.3-20.8-11.8z"/><path class="st33" d="M544.061 119.828l-29.058 5.083-4.29-24.527 29.058-5.083z"/><linearGradient id="SVGID_32_" gradientUnits="userSpaceOnUse" x1="48.55" y1="108.275" x2="68.618" y2="108.275" gradientTransform="matrix(-1 0 0 1 596.258 0)"><stop offset="0" stop-color="#B6BCFC"/><stop offset="1" stop-color="#FFCAE0"/></linearGradient><path class="st34" d="M543.6 96.5l4.1 23.6-20.1-7.8z"/><linearGradient id="SVGID_33_" gradientUnits="userSpaceOnUse" x1="68.618" y1="114.623" x2="88.978" y2="114.623" gradientTransform="matrix(-1 0 0 1 596.258 0)"><stop offset="0" stop-color="#B6BCFC"/><stop offset="1" stop-color="#FFCAE0"/></linearGradient><path class="st35" d="M507.3 102.8l4.1 23.6 16.2-14.1z"/><path class="st36" d="M511.4 126.4l36.3-6.3-21.4-15z"/><linearGradient id="SVGID_34_" gradientUnits="userSpaceOnUse" x1="48.55" y1="117.375" x2="84.85" y2="117.375" gradientTransform="matrix(-1 0 0 1 596.258 0)"><stop offset="0" stop-color="#B6BCFC"/><stop offset="1" stop-color="#FFCAE0"/></linearGradient><path class="st37" d="M511.4 126.4l36.3-6.3-20.8-11.8z"/></g><g class="st0"><linearGradient id="SVGID_35_" gradientUnits="userSpaceOnUse" x1="68.249" y1="337.058" x2="68.249" y2="253.43" gradientTransform="matrix(-1.145 -.09 -.079 1.014 639.087 2.035)"><stop offset=".337" stop-color="#516DFC"/><stop offset=".512" stop-color="#556FFB"/><stop offset=".669" stop-color="#5F74F8"/><stop offset=".819" stop-color="#727DF2"/><stop offset=".963" stop-color="#8B8AEA"/><stop offset="1" stop-color="#938EE8"/></linearGradient><path class="st38" d="M519.7 336.5l29 2.3 6.7-84.8-29.1-2.3z"/><path class="st39" d="M550.081 321.642l-29.013-2.269.889-11.366 29.013 2.269zM549.398 329.45l-29.013-2.269.374-4.786 29.013 2.269z"/><linearGradient id="SVGID_36_" gradientUnits="userSpaceOnUse" x1="28.235" y1="337.609" x2="28.235" y2="253.984" gradientTransform="matrix(-1 0 0 1 596.258 0)"><stop offset="0" stop-color="#6D79FC"/><stop offset="1" stop-color="#C8A6E0"/></linearGradient><path class="st40" d="M555.4 337.6h25.3v-83.6h-25.3z"/><path class="st39" d="M580.646 326.67h-25.3v-11.8h25.3zM580.646 334.078h-25.3v-4.6h25.3z"/><linearGradient id="SVGID_37_" gradientUnits="userSpaceOnUse" x1="-2.088" y1="337.609" x2="-2.088" y2="253.984" gradientTransform="matrix(-1 0 0 1 596.258 0)"><stop offset=".337" stop-color="#516DFC"/><stop offset=".512" stop-color="#556FFB"/><stop offset=".669" stop-color="#5F74F8"/><stop offset=".819" stop-color="#727DF2"/><stop offset=".963" stop-color="#8B8AEA"/><stop offset="1" stop-color="#938EE8"/></linearGradient><path class="st41" d="M580.7 337.6h35.3v-83.6h-35.3z"/><path class="st42" d="M615.992 272.504h-35.3v-5.1h35.3zM615.992 326.705h-35.3v-4.6h35.3z"/></g><g class="st0"><linearGradient id="SVGID_38_" gradientUnits="userSpaceOnUse" x1="72.967" y1="354.821" x2="212.711" y2="215.077" gradientTransform="matrix(-1 0 0 1 596.258 0)"><stop offset="0" stop-color="#12178F"/><stop offset=".194" stop-color="#1A1995"/><stop offset=".501" stop-color="#3120A6"/><stop offset=".881" stop-color="#562AC0"/><stop offset="1" stop-color="#632ECA"/></linearGradient><path class="st43" d="M539.5 338.6s9.8-85.5-26.5-124.8c-26.8-29-63.2-30.8-88-26.3-74.7 13.6-49.8 150.2-49.8 150.2"/><path class="st44" d="M391.4 218.9c5.2-9.5 16.2-25.6 52.4-25.1 32.4.4 49.7 34.8 53.1 41.5l.6 1.2 7.5 102.1h-120.9s2-110.2 7.3-119.7z"/><path class="st45" d="M467.2 205.9c-25.2-8.8-47.3-7.3-70.8 5.3M466.1 210.3c-11.3-4.7-23.7-5.8-35.9-5.2-12.2.7-24.2 3.2-36.1 5.7M471.1 216.7c-24.8-6.9-51.3-7.8-76.5-2.7M465.6 219.2c-17.1-2.7-34.3-4-51.6-4-9.1 0-18.5.4-26.9 4.1M470.2 224.5c-26.6-5.5-54.3-5.7-81-.8M471.6 228.6c-28.8-1.6-57.7-1.5-86.5.1M463.6 235.7c-25.7-1-51.4-.6-77 1.1M462.6 241.3c-27.1 4-54.7 4.6-82 2M461.6 248.6c-25 1.6-50 2.3-75 1.9M464.6 254.3c-25.8 5.1-52.5 5.8-78.6 2.2M460.6 265.9c-22.3 2-44.7 2.9-67 2.7M467.1 274c-26.3 1.9-52.7 2.4-79 1.6M473.1 278.9c-29.5 1.8-59 2.4-88.5 1.7M463.1 288.2h-80.5M473.6 292.7l-88 3.1M465.1 300c-28.5 2.1-57 3.7-85.5 4.6M471.1 307.2c-29 .1-58 .8-87 2.3M461.6 318.7c-24.8-2.1-49.8-1.7-74.5 1.1M464.6 327.2h-78.5M450.6 333.1l-60 .6M468.1 203c-.5-1.3-2-1.9-3.3-2.3-17.8-6.1-40.2-5.3-57.5 2"/><path class="st47" d="M457.8 196.2l-.7 1c-4.1.5-11.5 1.7-16.9 7-1.6 1.6-3.6 2.8-5.8 3.4-2.2.6-4.7.3-6.2-1.4-.8-.9-1.2-2.2-1.5-3.4-.5-2.6-.2-5.2.6-7.7 0-.1 0-.1.1-.2 4.8-.8 10.2-1.2 16.3-1.1 5.1 0 9.8.9 14.1 2.4z"/><linearGradient id="SVGID_39_" gradientUnits="userSpaceOnUse" x1="279.414" y1="241.542" x2="298.128" y2="209.13" gradientTransform="matrix(-1 0 0 1 596.258 0)"><stop offset=".393" stop-color="#F9C6B9"/><stop offset=".575" stop-color="#F9C3B6"/><stop offset=".706" stop-color="#F9BAAD"/><stop offset=".822" stop-color="#F9AA9D"/><stop offset=".928" stop-color="#F99488"/><stop offset="1" stop-color="#F98074"/></linearGradient><path class="st48" d="M314.8 242.7c-5.3-4.4-9.9-9.5-13.8-15.2-.7-1.1-7.3-12.6-6.7-12.8 1.5-.6 7.7 7.8 7.7 7.8s-7.7-10.7-6-11.7c.7-.4 8.4 9.9 8.4 9.9s-7.6-10.7-6.1-11.7c.8-.5 8.7 10.2 8.7 10.2s-6.6-10.3-5.3-11c1.2-.6 8.9 9.5 12.3 14.9 3.4 5.4 5.4 16.9 5.4 16.9"/><linearGradient id="SVGID_40_" gradientUnits="userSpaceOnUse" x1="278.955" y1="233.228" x2="290.789" y2="214.311" gradientTransform="matrix(-1 0 0 1 596.258 0)"><stop offset=".393" stop-color="#F9C6B9"/><stop offset=".575" stop-color="#F9C3B6"/><stop offset=".706" stop-color="#F9BAAD"/><stop offset=".822" stop-color="#F9AA9D"/><stop offset=".928" stop-color="#F99488"/><stop offset="1" stop-color="#F98074"/></linearGradient><path class="st49" d="M319.4 234c-.8-3.6-1.7-7.2-3-10.7-1.3-3.5-3-6.8-5.4-9.7-.3-.3-.8-.7-1.1-.3-.1.1-.1.3-.1.5 0 1 .4 2 .7 2.9l.7 1.8c.4.9.7 2 .4 2.9-.1.4-.4.7-.6 1.1-2.1 3.3-2.6 9.7 3.1 14.3"/><path class="st50" d="M311.2 221.6c-2.2 3.6-2 9 1.4 11.9.1.1.3 0 .2-.2-1.2-1.6-2.2-3.2-2.5-5.2-.4-2.2.1-4.4 1.1-6.3.1-.2-.1-.3-.2-.2zM308.7 218.3c-1.5.7-2.9 1.5-4.3 2.3-.7.4-1.3.9-2 1.4-.6.5-1.4.9-1.8 1.5-.1.1 0 .3.2.2.7-.4 1.3-1 1.9-1.5.6-.5 1.3-.9 2-1.4 1.2-.8 2.6-1.6 4-2.5z"/><path class="st51" d="M415.4 197.7s-20.6 7.3-34 25.3c-10.8 14.6-25.7 52.3-25.7 52.3l-36-42.7s-5 1.7-8.7 8c0 4 29.7 76.6 46.7 76.3 17-.3 46.2-37 46.2-37"/><path class="st52" d="M394.3 291.3c-7.2 7.7-17.2 17.4-26.3 22.4 3.8-11.2 9.2-32.2 14-71l9.9 38.8 2.4 9.8z"/><path class="st51" d="M442.4 339.6c-2.3-84.4 13.9-143.9 13.9-143.9s20.5 4.6 41.4 27.8c11.1 12.9.1 21.5 3.7 42.2 6.5 38.3 11 73.9 11 73.9h-70z"/><path class="st52" d="M501.4 265.7c6 35.1 10.2 68 10.9 73.2-34 .3-56.1-11-63.9-17.4-1.9 0-5.4.1-6.2.2v-5.2c.4-4.8 3.4-8.6 3.4-8.6l41.9-2.5s-19.3-37.1-19.3-54.7c-.1-.1 26.7-23.3 33.2 15z"/><path class="st53" d="M469.6 202.2s-2.4 28.5-2.4 36.2c-1.9 1.9-10.5 4.7-10.5 4.7s6.7 3.3 6.7 5.5-17.8 45.6-21.3 65.1"/><path class="st51" d="M381.9 244.2c-2.7 29.1-5.8 95.4-5.8 95.4h38.3c-4.4-89 1-141.4 1-141.4s-30.2 10.5-33.5 46z"/><path class="st53" d="M403.2 204.9s-5 20.6-4.4 31.2c1.6 2.2 8.6 6.1 8.6 6.1s-7.1 2.3-7.5 4.5c-.3 2.2 12.3 50.6 12.8 70.4"/><linearGradient id="SVGID_41_" gradientUnits="userSpaceOnUse" x1="143.557" y1="312.406" x2="173.996" y2="312.406" gradientTransform="matrix(-1 0 0 1 596.258 0)"><stop offset=".184" stop-color="#F9C6B9"/><stop offset=".428" stop-color="#F9C3B6"/><stop offset=".605" stop-color="#F9BAAD"/><stop offset=".761" stop-color="#F9AA9D"/><stop offset=".903" stop-color="#F99488"/><stop offset="1" stop-color="#F98074"/></linearGradient><path class="st54" d="M450.4 309.9c-3.3-1.6-7-3-10.8-3.6-1.5-.3-6.5-1.2-6.9-.3-.5 1.2 5.6 2.6 4 2.6-1.7 0-12.6-1.4-12.7-.3-.1 1.1 10.3 3.3 10.3 3.3s-12-1-12 .4c-.1 1.4 11.1 2.1 11.1 2.1s-10.3-.2-10.4 1.2c0 1.3 10.6 1.2 10.6 1.2s-8.2.5-8.2 1.4c0 .9 12.7 3.2 27.3-.6"/><path class="st51" d="M465.8 249.3c2.8 19.7 30.5 58.7 30.5 58.7l-47.5 1.2s-2.9 4.3-1.1 9.3c3 5.1 51.4 20.1 72.7 20.1 23 0 10.7-73.2-22-114.2"/><ellipse transform="matrix(.998 -.061 .061 .998 -8.928 24.755)" class="st55" cx="403.3" cy="159.4" rx="13.2" ry="14.3"/><ellipse transform="matrix(.998 -.061 .061 .998 -8.948 24.81)" class="st56" cx="404" cy="159.7" rx="12.5" ry="14"/><path class="st51" d="M393 160.7c.5 7.6 6.2 13.4 12.9 12.9 6.7-.4 11.7-6.9 11.2-14.4-.5-7.6-6.2-13.4-12.9-12.9-6.6.4-11.6 6.8-11.2 14.4z"/><ellipse transform="matrix(.998 -.061 .061 .998 -8.953 24.924)" class="st52" cx="406" cy="159.9" rx="7.1" ry="9"/><path class="st57" d="M427.8 113c1.5-2 2.1-4.4 3.3-6.6 2.8-5.4 8.8-8.5 14.8-9.4 2-.3 4.2-.4 6.1.4 3.3 1.3 5.5 4.8 8.9 6 1.3.5 2.7.6 4 .7 4.6.4 9.2 1.1 13.7 2.6 1.7.6 3.4 1.2 4.9 2.3 3.7 2.7 5.4 8 3.8 12.3-.7 2-2 3.9-2.2 6-.2 2.2.8 4.5 0 6.6-.4 1.2-1.3 2.2-2.2 3.1-1.6 1.7-3.3 3.3-5.4 4.4-2 1.1-4.3 1.5-6.5 2-2.9.6-5.9 1.2-8.9 1.1-3 0-6.1-.7-8.5-2.5-2.1-1.5-3.6-3.7-5.1-5.9"/><path class="st58" d="M442.8 111.1c4.9 2.2 9.9 4.5 13.4 8.5 2.4 2.8 4 6.2 6 9.3s4.6 6.1 8.2 7.1c2.3.6 4.7.4 7 0 .9-.1 1.9-.3 2.5-1 .6-.7.6-1.6.7-2.4.3-3 1.1-6.1 3.2-8.2.7-.7 1.7-1.2 2.7-1.5-.7 1.4-1.4 2.8-1.6 4.4-.2 2.2.8 4.5 0 6.6-.4 1.2-1.3 2.2-2.2 3.1-1.6 1.7-3.3 3.3-5.4 4.4-2 1.1-4.3 1.5-6.5 2-2.9.6-5.9 1.2-8.9 1.1-3 0-6.1-.7-8.5-2.5-2.1-1.5-3.6-3.7-5.1-5.9l-20.6-23c4.6-6.3 12.3-3.3 15.1-2z"/><path class="st59" d="M435.7 178.3l6.5 15.6c.7 1.8.7 3.7 0 5.5-1.6 3.6-5 9.4-10.6 9.4-9 0-10.1-10.8-10.1-10.8l-.9-14.4"/><path class="st50" d="M421.1 191.6l-.5-8.1 15.2-5.3.5 1.2c-3.7 5.4-9.3 9.9-15.2 12.2z"/><path class="st59" d="M403.5 131c-1.9 1.7-3.4 3.8-4.6 6.2-3.3 6.9-1.3 14.5.1 21.6 1.4 7.2 2.4 17.3 7.3 23.2 12.7 15.3 35.1-.1 39.2-15.4 2.8-10.5 4.6-24.8-3.1-33.8-9.1-10.7-28.7-11.3-38.9-1.8z"/><path class="st57" d="M448.9 155.6c-7.2.9-21.4-10.3-28.2-23.9-1.5.2-2.2 2.2-3.6 2.8-.5.2-1.1.3-1.7.1-.5-.2-.9-.8-.8-1.3-.4.7-.8 1.3-1.4 1.7-.6.4-1.4.6-2.1.3-.7-.3-1.2-1.1-1-1.8-4.4.9-8.7 7.9-9.7 12.3-1.3 5.9-1.8 12.4.4 22.3-4.9-.4-10.3-8.1-12.6-12.4-4.8-8.8-1.5-20.3 4.8-27.5 1.6-1.8 3.6-3.6 5.8-4.7 2.7-1.2 5.7-.9 8.5-1.5 4.5-5.1 13.4-9.6 21.3-10.5 8.7-1 19.8 4 25.1 10.7 5.3 6.6 8.7 15.3 8.1 24.2-.5 7.9-5.8 14.6-11.6 20"/><path class="st58" d="M433.9 178.9c1.1-.1 2.2-.2 3.3-.4 2.5-.5 6-1.8 8.4-5.1.9-1.2 1.4-2.3 1.4-3.4 0-.3-.2-.5-.5-.5s-.5.2-.5.5c-.1.9-.5 1.8-1.2 2.8-2.3 3-5.5 4.2-7.8 4.7-3.1.7-6.4.5-9.2.2-.3 0-.5.2-.5.5s.2.5.5.5c1.8.2 3.9.4 6.1.2zM425.4 177c.8-.4 1.9-.4 2.8-.1 3.2 1.1-.4 5-3.2 2.9l-.6-.6c-.3-.8.2-1.8 1-2.2z"/><linearGradient id="SVGID_42_" gradientUnits="userSpaceOnUse" x1="179.27" y1="160.377" x2="190.405" y2="170.941" gradientTransform="matrix(-.96 .279 .279 .96 544.802 -46.369)"><stop offset=".133" stop-color="#F9C6B9"/><stop offset=".338" stop-color="#F9C2B5"/><stop offset=".547" stop-color="#F9B6A9"/><stop offset=".757" stop-color="#F9A195"/><stop offset=".967" stop-color="#F98579"/><stop offset="1" stop-color="#F98074"/></linearGradient><path class="st60" d="M411.7 158.9c-.7.2 0 7.1-.5 8-.4.9-2 2.5-.8 3.3 1.1.7 3 1.1 4.1.2.7-.5.9-1.5.9-2.3 0-1.3-.3-2.6-.6-3.9-.2-1.4-.8-5.8-3.1-5.3z"/><path class="st58" d="M403 157.2c.3 1.2 1.3 1.9 2.2 1.6s1.3-1.4.9-2.6c-.3-1.2-1.3-1.9-2.2-1.6s-1.2 1.4-.9 2.6zM422.9 154.6c.3 1.2 1.3 1.9 2.2 1.7.9-.2 1.3-1.4 1-2.5-.3-1.2-1.3-1.9-2.2-1.7-.9.3-1.3 1.4-1 2.5zM406.1 149.3s-.1-.1-.2-.3c-.1-.2-.3-.4-.6-.6-.3-.2-.6-.4-1-.6l-.6-.1h-.6c-.2.1-.4.1-.5.2l-.5.3c-.3.3-.5.6-.6.9-.1.3-.2.6-.2.8v.3l.2-.2c.1-.1.3-.3.4-.5.2-.2.4-.4.7-.6.3-.2.6-.3.9-.4.3-.1.6-.1.9-.1.2 0 .3 0 .5.1l.4.1c.3.1.5.2.6.3.1.4.2.4.2.4zM427.5 147s-.1-.1-.2-.3c-.1-.2-.3-.5-.6-.8-.3-.3-.7-.5-1.1-.8-.2-.1-.5-.2-.7-.2-.3-.1-.5-.1-.8-.1-.3 0-.5 0-.8.1-.3 0-.5.1-.7.2-.5.2-.9.4-1.1.7-.3.3-.5.5-.6.7-.1.2-.2.3-.2.3s.1-.1.3-.2c.2-.1.4-.3.8-.4l.5-.2.6-.2c.4-.1.8-.1 1.3-.1.4 0 .9.1 1.3.2l.6.2c.2.1.4.1.5.2.3.2.6.3.8.4 0 .3.1.3.1.3z"/><path class="st33" d="M411.2 174.2c1.5.8 4.5.8 6.4-.4.2-.1.5 0 .5.2.7 5.2-2 6.6-3.2 6.7-3.7.2-4.1-4.2-4-6.2-.1-.3.1-.4.3-.3z"/><path class="st61" d="M423.2 168c-1.6-1.6-2.1-5.1.5-6.7 1.1-.7 3.3-1 4.5-.6 1.8.6 2.8 2.4 2.7 4 0 2.2-.9 3.8-2.9 4.5-1.6.5-3.6.1-4.8-1.2zM401.8 169.4c-1.2-1.5-1.6-4.7.3-6.2.8-.6 2.4-.9 3.3-.5 1.4.6 2.1 2.2 2.1 3.7 0 2-.6 3.5-2.1 4.1-1.1.4-2.6 0-3.6-1.1z"/><path class="st56" d="M447.5 146c-1.9-6.7-5.6-12.9-10.7-17.6-5.1-4.7-11.7-7.8-18.6-8.7-5.2-.7-4.2-1.4-8.9.3l-3.3 2.3c8.4-.9 16.6 2.1 23.4 7.1 6.8 5 11.5 12.6 13.1 20.9"/><path class="st55" d="M448.6 145.2c-1.9-6.7-5.6-12.9-10.7-17.6-5.1-4.7-11.7-7.8-18.6-8.7-5.2-.7-6.5-.4-9.8.6l-2.4 2.1c8.4-.9 16.6 2.1 23.4 7.1 6.8 5 11.5 12.6 13.1 20.9"/><path class="st55" d="M434.8 160.3c.5 7.9 6.8 13.9 14.1 13.5 7.3-.4 12.8-7.2 12.3-15.1-.5-7.9-6.8-13.9-14.1-13.5-7.2.4-12.8 7.2-12.3 15.1z"/><ellipse transform="matrix(.998 -.061 .061 .998 -8.861 27.508)" class="st56" cx="448.7" cy="159.7" rx="12.5" ry="14"/><ellipse transform="matrix(.998 -.061 .061 .998 -8.873 27.579)" class="st51" cx="449.8" cy="159.9" rx="12.1" ry="13.7"/><ellipse transform="matrix(.998 -.061 .061 .998 -8.87 27.636)" class="st52" cx="450.7" cy="159.9" rx="7.1" ry="9"/></g><g class="st0"><linearGradient id="SVGID_43_" gradientUnits="userSpaceOnUse" x1="319.183" y1="296.41" x2="349.077" y2="266.516" gradientTransform="matrix(-1 0 0 1 596.258 0)"><stop offset="0" stop-color="#BABEFF" stop-opacity=".6"/><stop offset="1" stop-color="#F6F3FF" stop-opacity=".4"/></linearGradient><path class="st62" d="M253.9 289.5c1-1.7 3.4-2.3 4-4.3.8-2.4-1.9-4.6-2.9-6.5-1.2-2.2-1.6-4.7.1-6.8 3.9-4.8 13.1-1.3 17.5 1 4.2 2.1 9 7.4 5.4 12.2-3 4 5 3.8 2.1 8.1-1.5 2.2-4.6 2.6-6.4 4.5-1.7 1.7-1.2 4.6-3.8 5.5-6.6 2.3-9-3.9-13.2-7.5-1.4-1.2-3.1-2.7-3.2-4.5-.1-.5.1-1.1.4-1.7zm4.9-22.9c3.8-2.3.9-8.3-3.2-7.6-1.7.3-2.4 1.4-2.9 2.7-1.3 3.2 2 7.3 6.1 4.9zm-5.2 18.8c1.8-1.1-.4-4.6-2.3-4.3-.8.1-1.1.7-1.4 1.3-.7 1.5 1.8 4.1 3.7 3z"/><linearGradient id="SVGID_44_" gradientUnits="userSpaceOnUse" x1="331.238" y1="327.509" x2="349.838" y2="308.908" gradientTransform="matrix(-1 0 0 1 596.258 0)"><stop offset=".337" stop-color="#6D79FC"/><stop offset=".513" stop-color="#717BFA"/><stop offset=".671" stop-color="#7B81F6"/><stop offset=".822" stop-color="#8E8BEE"/><stop offset=".967" stop-color="#A798E3"/><stop offset="1" stop-color="#AE9CE0"/></linearGradient><path class="st63" d="M253.4 330.8h8.4v-4h-8.4c-2.7 0-4.9-2.2-4.9-4.9v-7.3c0-2.7 2.2-4.9 4.9-4.9h8.4v-4h-8.4c-4.9 0-8.9 4-8.9 8.9v7.3c0 4.9 4 8.9 8.9 8.9z"/><linearGradient id="SVGID_45_" gradientUnits="userSpaceOnUse" x1="328.449" y1="337.575" x2="328.449" y2="300.002" gradientTransform="matrix(-1 0 0 1 596.258 0)"><stop offset="0" stop-color="#6D79FC"/><stop offset="1" stop-color="#AE9CE0"/></linearGradient><path class="st64" d="M262.1 337.6h11.5c4.4 0 8-3.6 8-8v-29.6h-27.5v29.6c0 4.4 3.5 8 8 8z"/></g><g class="st0"><path class="st65" d="M369.8 337.6h92.3v-1.7c0-2.3-1.8-4.1-4.1-4.1h-88.2v5.8z"/><path class="st66" d="M390.7 265.5l13.8 72.1h-118.9l-13.9-73c-.2-1.5.9-2.8 2.4-2.8h112.1c2.2-.1 4.1 1.5 4.5 3.7z"/><linearGradient id="SVGID_46_" gradientUnits="userSpaceOnUse" x1="228.678" y1="357.214" x2="294.301" y2="243.55" gradientTransform="matrix(-1 0 0 1 596.258 0)"><stop offset="0" stop-color="#B6BCFC"/><stop offset="1" stop-color="#FFCAE0"/></linearGradient><path class="st67" d="M387.8 265.5l13.8 72.1h-118.9l-13.9-73c-.2-1.5.9-2.8 2.4-2.8h112.1c2.3-.1 4.2 1.5 4.5 3.7z"/><path class="st68" d="M324 300.6c.7 4.7 5 8.5 9.7 8.5s8-3.8 7.3-8.5c-.7-4.7-5-8.5-9.7-8.5-4.7-.1-8 3.8-7.3 8.5z"/><path class="st69" d="M438.3 333.7h15.7v2h-15.7zM432.5 333.3h.8v2.8h-.8zM431 333.3h.8v2.8h-.8zM429.4 333.3h.8v2.8h-.8zM427.8 333.3h.8v2.8h-.8zM426.2 333.3h.8v2.8h-.8zM424.6 333.3h.8v2.8h-.8zM423 333.3h.8v2.8h-.8zM418.4 333.3h.8v2.8h-.8zM416.8 333.3h.8v2.8h-.8zM415.2 333.3h.8v2.8h-.8zM410.5 333.3h.8v2.8h-.8zM408.9 333.3h.8v2.8h-.8z"/></g><linearGradient id="SVGID_47_" gradientUnits="userSpaceOnUse" x1="437.129" y1="338.575" x2="-.427" y2="338.575" gradientTransform="matrix(-1 0 0 1 596.258 0)"><stop offset="0" stop-color="#EF225F"/><stop offset="1" stop-color="#111890"/></linearGradient><path class="st70" d="M596.7 339.6h-367.8v-2h367.8v2zm-378.3-2h-59.2v2h59.2v-2z"/></g></svg>