<?xml version="1.0" encoding="utf-8"?>
<!-- Generator: Adobe Illustrator 24.0.1, SVG Export Plug-In . SVG Version: 6.00 Build 0)  -->
<svg version="1.1" xmlns="http://www.w3.org/2000/svg" xmlns:xlink="http://www.w3.org/1999/xlink" x="0px" y="0px"
	 viewBox="0 0 596.3 381.7" style="enable-background:new 0 0 596.3 381.7;" xml:space="preserve">
<style type="text/css">
	.st0{clip-path:url(#SVGID_2_);}
	.st1{fill:url(#SVGID_3_);}
	.st2{fill:url(#SVGID_4_);}
	.st3{fill:#E4E3FF;}
	.st4{clip-path:url(#SVGID_6_);}
	.st5{fill:url(#SVGID_7_);}
	.st6{fill:url(#SVGID_8_);}
	.st7{fill:url(#SVGID_9_);}
	.st8{fill:url(#SVGID_10_);}
	.st9{fill:url(#SVGID_11_);}
	.st10{fill:url(#SVGID_12_);}
	.st11{fill:url(#SVGID_13_);}
	.st12{fill:url(#SVGID_14_);}
	.st13{fill:url(#SVGID_15_);}
	.st14{fill:url(#SVGID_16_);}
	.st15{fill:none;stroke:url(#SVGID_17_);stroke-miterlimit:10;}
	.st16{fill:none;stroke:url(#SVGID_18_);stroke-miterlimit:10;}
	.st17{fill:none;stroke:url(#SVGID_19_);stroke-miterlimit:10;}
	.st18{fill:none;stroke:url(#SVGID_20_);stroke-miterlimit:10;}
	.st19{fill:none;stroke:url(#SVGID_21_);stroke-miterlimit:10;}
	.st20{fill:url(#SVGID_22_);}
	.st21{fill:url(#SVGID_23_);}
	.st22{fill:url(#SVGID_24_);}
	.st23{fill:none;stroke:url(#SVGID_25_);stroke-miterlimit:10;}
	.st24{fill:url(#SVGID_26_);}
	.st25{fill:url(#SVGID_27_);}
	.st26{fill:url(#SVGID_28_);}
	.st27{fill:none;stroke:#E4E3FF;stroke-miterlimit:10;}
	.st28{fill:url(#SVGID_29_);}
	.st29{fill:url(#SVGID_30_);}
	.st30{fill:none;stroke:#FFFFFF;stroke-width:1.5;stroke-miterlimit:10;}
	.st31{fill:#9999EF;}
	.st32{fill:url(#SVGID_31_);}
	.st33{fill:#FFFFFF;}
	.st34{fill:url(#SVGID_32_);}
	.st35{fill:url(#SVGID_33_);}
	.st36{opacity:0.25;fill:#ADADEA;}
	.st37{fill:url(#SVGID_34_);}
	.st38{fill:url(#SVGID_35_);}
	.st39{opacity:0.55;fill:#ABBDFF;}
	.st40{fill:url(#SVGID_36_);}
	.st41{fill:url(#SVGID_37_);}
	.st42{opacity:0.75;fill:#C5CFFC;}
	.st43{fill:url(#SVGID_38_);}
	.st44{fill:#FFEEFC;}
	.st45{fill:none;stroke:#F4DCE9;stroke-width:2;stroke-miterlimit:10;}
	.st46{opacity:0.4;}
	.st47{fill:#F4DCE9;}
	.st48{fill:url(#SVGID_39_);}
	.st49{fill:url(#SVGID_40_);}
	.st50{fill:#F49E87;}
	.st51{fill:#F73179;}
	.st52{opacity:0.45;fill:#CC729B;}
	.st53{fill:none;stroke:#D31E67;stroke-miterlimit:10;}
	.st54{fill:url(#SVGID_41_);}
	.st55{fill:#103FCD;}
	.st56{fill:#0D30BF;}
	.st57{fill:#0D1D7D;}
	.st58{fill:#081466;}
	.st59{fill:#F9C6B9;}
	.st60{fill:url(#SVGID_42_);}
	.st61{fill:#EFA39C;}
	.st62{fill:url(#SVGID_43_);}
	.st63{fill:url(#SVGID_44_);}
	.st64{fill:url(#SVGID_45_);}
	.st65{fill:#7490F7;}
	.st66{fill:#9494F2;}
	.st67{fill:url(#SVGID_46_);}
	.st68{fill:#FFE1FF;}
	.st69{fill:#646EF2;}
	.st70{clip-path:url(#SVGID_2_);fill:url(#SVGID_47_);}
</style>
<g id="BACKGROUND">
</g>
<g id="OBJECTS">
	<g>
		<g>
			<defs>
				<rect id="SVGID_1_" x="0" width="596.3" height="381.7"/>
			</defs>
			<clipPath id="SVGID_2_">
				<use xlink:href="#SVGID_1_"  style="overflow:visible;"/>
			</clipPath>
			<g class="st0">
				
					<linearGradient id="SVGID_3_" gradientUnits="userSpaceOnUse" x1="-60.6506" y1="39.356" x2="338.3487" y2="438.3552" gradientTransform="matrix(-1 0 0 1 596.258 0)">
					<stop  offset="0" style="stop-color:#BABEFF;stop-opacity:0.2"/>
					<stop  offset="1" style="stop-color:#F6F3FF;stop-opacity:0.4"/>
				</linearGradient>
				<path class="st1" d="M608.2,339.6l-449.1,0c3.4-11.3,45.9-16.8,63-20.2c14-2.7,28.3-7.4,38.9-17.4c7.1-6.7,11.5-15.6,14.5-24.7
					c2.8-8.4,3.2-18.9,8.7-26c9.1-11.7,24.3-9,35.5-16.5c11.2-7.5,17.5-20.8,20.4-33.6c4.1-17.9-0.9-36.1,3.7-54
					c4.4-17,16.8-27.5,29.8-38.2c22.7-18.7,33.3-45.2,42.2-72.4c11.4-34.8,59.8-45.8,59.8-45.8h132.5V339.6z"/>
			</g>
			<g class="st0">
				
					<linearGradient id="SVGID_4_" gradientUnits="userSpaceOnUse" x1="71.8802" y1="264.3813" x2="71.8802" y2="156.4489" gradientTransform="matrix(-1 0 0 1 596.258 0)">
					<stop  offset="0" style="stop-color:#AD9EEA"/>
					<stop  offset="0.2502" style="stop-color:#B3A6EB"/>
					<stop  offset="0.6445" style="stop-color:#C4BDEF"/>
					<stop  offset="1" style="stop-color:#D7D7F4"/>
				</linearGradient>
				<path class="st2" d="M506.9,235.1c3.6,0.4,6.8,2.8,8.8,5.9c1.4,2.2,2.3,4.7,3,7.3c0.1-4.2,0.2-8.5,0.4-12.7
					c-7.1-2.5-12.1-8.7-10.3-13.8c3.1,0.3,5.9,2.4,7.6,5.1c1.4,2.2,2.2,4.7,2.8,7.3c0.2-4,0.5-7.9,0.8-11.8
					c-7-2.6-11.9-8.7-10.1-13.7c3.1,0.3,5.9,2.4,7.6,5.1c1.3,2.1,2.1,4.4,2.7,6.8c0.3-3.3,0.7-6.6,1.2-9.9
					c-5.9-3.2-9.5-9.4-7.1-13.5c2.6,0.7,4.7,3,5.8,5.5c1.1,2.5,1.3,5.2,1.3,7.9c0.4-3.1,0.9-6.2,1.5-9.3c-5.3-3.8-8.1-10.3-5.3-14.1
					c2.5,1,4.3,3.5,5.1,6.1c0.6,1.9,0.7,3.9,0.6,5.9c0.7-3.4,1.4-6.7,2.3-10.1c-5.4-3.8-8.2-10.3-5.4-14.1c2.5,1,4.3,3.5,5.1,6.1
					c0.7,2.2,0.7,4.4,0.6,6.7c0.8-3,1.7-6,2.7-8.9c-4.5-3.2-6.9-8.7-4.5-11.9c2.1,0.9,3.7,2.9,4.3,5.1c0.6,1.9,0.6,4,0.5,6.1
					c0.8-2.2,1.6-4.4,2.5-6.6c-3.4-3.4-4.6-8.3-2.2-10.7c1.7,1,2.7,3,2.9,4.9c0.2,1.5,0,3.1-0.3,4.6c0.5-1.2,1-2.3,1.5-3.5
					c-0.2-5.2,2.4-10.2,6.2-10.3c0.6,2.1,0,4.5-1.2,6.3c-1.2,1.7-2.9,3.1-4.7,4.2c-0.5,1.1-1,2.3-1.4,3.5c2.6-4.2,7-6.8,10.2-5.1
					c-0.5,2.2-2.3,3.9-4.3,4.8c-2,0.9-4.2,1.2-6.3,1.3c-0.9,2.3-1.7,4.6-2.5,6.9c2.9-5.5,8.5-8.9,12.4-6.9c-0.6,2.5-2.6,4.5-5,5.6
					c-2.3,1.1-4.9,1.4-7.5,1.5c-0.9,2.9-1.8,5.8-2.5,8.7c3.5-5.7,9.6-9.1,14-6.8c-0.7,3-3.1,5.4-5.9,6.7c-2.6,1.2-5.6,1.6-8.5,1.8
					c-0.8,3.2-1.5,6.4-2.1,9.6c2.8-6.6,8.5-11.1,13.5-9.5c-0.2,3.4-2.3,6.4-5.1,8.4c-2.6,1.9-5.7,2.9-8.9,3.6
					c-0.5,2.8-0.9,5.6-1.3,8.4c5.1-5.7,12.6-8.2,16.9-4.7c-1.4,3.1-4.5,5.1-7.8,5.9c-3,0.7-6.2,0.6-9.2,0.1
					c-0.5,3.7-0.9,7.5-1.2,11.2c5.4-5.5,13.1-7.6,17.2-3.9c-1.6,3-4.8,4.8-8.1,5.5c-3,0.6-6.2,0.2-9.2-0.4
					c-0.3,3.9-0.6,7.7-0.8,11.6c4.6-6.3,12.2-9.6,16.8-6.3c-1.2,3.2-4.2,5.4-7.4,6.5c-3,1-6.3,1-9.5,0.8c-0.2,4.5-0.4,8.9-0.6,13.4
					c4.2-7.3,12-11.8,17.3-8.8c-0.9,3.5-3.8,6.3-7.2,7.9c-3.2,1.4-6.7,1.9-10.2,2c-0.2,4.7-0.3,9.3-0.5,13.9c0,0.2-0.3,0.2-0.3,0
					c0-4.4,0-8.8,0-13.2C510.5,248,504.7,240.9,506.9,235.1z"/>
				<g>
					<g>
						<path class="st3" d="M336.9,338.9c-1.1-1.5-2.1-3.1-3-4.8c-4.3-8.4-4.7-18.2-4-27.6c0.8-10.8,2.9-21.5,6.3-31.8
							c1.3-3.8,3-8,6.8-9.6c2.8-1.2,6.1-0.6,9.1,0.1c12.2,3,23.8,8.1,34.3,14.9c-9.4-18-28.2-29.3-39.2-46.4c-1.6-2.4-2.9-5.6-1.3-8
							c1.8-2.7,5.9-2,9-1c26.5,9,49.9,26.9,65.6,50.1c-6.7-29.5-35.7-47.9-52.2-73.3c-2.5-3.8-4.4-9.4-0.9-12.3
							c1.7-1.4,4.1-1.5,6.3-1.4c7.6,0.5,14.8,3.3,21.6,6.5c25.2,11.7,47.7,29.2,65.3,50.7c-4.5-12.8-16.9-21.3-22.2-33.8
							c-1.4-3.2-1.9-7.6,1-9.4c1.7-1.1,4-0.8,6-0.3c27,6.6,49.2,54.1,49.2,54.1s0.6-45.5,2.3-66.9c0.7-8.6,4.2-30.2,17.6-21.9
							c14.3,8.8,6.4,98.1,6.4,98.1s5.4-42.1,10.5-62.1c1.3-5.1,8.5-16.3,12.7-6.5c1.1,2.5,1.1,5.4,0.8,8.2
							c-2.7,23.9-15.1,64.5-15.1,64.5s24-64.3,31.1-77.5c7.1-13.2,16.5-25.7,29.6-33.1c18-10.2,38-0.9,39.9,21.9
							c4,46.4-78.6,138.9-95.3,155.8c41.1-60.9,127.9-102,151.7-83.7c3.4,2.6,9.4,8.3,5.4,20.8c-3.9,12.1-53,65.6-83.4,65.6
							C557.8,338.9,336.9,338.9,336.9,338.9z"/>
					</g>
					<g>
						<defs>
							<path id="SVGID_5_" d="M336.9,338.9c-1.1-1.5-2.1-3.1-3-4.8c-4.3-8.4-4.7-18.2-4-27.6c0.8-10.8,2.9-21.5,6.3-31.8
								c1.3-3.8,3-8,6.8-9.6c2.8-1.2,6.1-0.6,9.1,0.1c12.2,3,23.8,8.1,34.3,14.9c-9.4-18-28.2-29.3-39.2-46.4
								c-1.6-2.4-2.9-5.6-1.3-8c1.8-2.7,5.9-2,9-1c26.5,9,49.9,26.9,65.6,50.1c-6.7-29.5-35.7-47.9-52.2-73.3
								c-2.5-3.8-4.4-9.4-0.9-12.3c1.7-1.4,4.1-1.5,6.3-1.4c7.6,0.5,14.8,3.3,21.6,6.5c25.2,11.7,47.7,29.2,65.3,50.7
								c-4.5-12.8-16.9-21.3-22.2-33.8c-1.4-3.2-1.9-7.6,1-9.4c1.7-1.1,4-0.8,6-0.3c27,6.6,49.2,54.1,49.2,54.1s0.6-45.5,2.3-66.9
								c0.7-8.6,4.2-30.2,17.6-21.9c14.3,8.8,6.4,98.1,6.4,98.1s5.4-42.1,10.5-62.1c1.3-5.1,8.5-16.3,12.7-6.5
								c1.1,2.5,1.1,5.4,0.8,8.2c-2.7,23.9-15.1,64.5-15.1,64.5s24-64.3,31.1-77.5c7.1-13.2,16.5-25.7,29.6-33.1
								c18-10.2,38-0.9,39.9,21.9c4,46.4-78.6,138.9-95.3,155.8c41.1-60.9,127.9-102,151.7-83.7c3.4,2.6,9.4,8.3,5.4,20.8
								c-3.9,12.1-53,65.6-83.4,65.6C557.8,338.9,336.9,338.9,336.9,338.9z"/>
						</defs>
						<clipPath id="SVGID_6_">
							<use xlink:href="#SVGID_5_"  style="overflow:visible;"/>
						</clipPath>
						<g class="st4">
							
								<linearGradient id="SVGID_7_" gradientUnits="userSpaceOnUse" x1="58.6215" y1="338.2354" x2="-42.2905" y2="151.7332" gradientTransform="matrix(-1 0 0 1 596.258 0)">
								<stop  offset="0" style="stop-color:#5B6DFF;stop-opacity:0.2"/>
								<stop  offset="1" style="stop-color:#5B6DFF;stop-opacity:0.1"/>
							</linearGradient>
							<path class="st5" d="M534.7,338.9h-9.1c6.7-16.7,16.3-43,29.6-73.8c30.3-70.1,62.5-117.5,62.5-117.5c7.8,3.8,24.3,18,26,29.6
								C648.6,212.3,534.7,338.9,534.7,338.9z"/>
							
								<linearGradient id="SVGID_8_" gradientUnits="userSpaceOnUse" x1="99.4743" y1="324.2758" x2="30.8923" y2="197.5249" gradientTransform="matrix(-1 0 0 1 596.258 0)">
								<stop  offset="0" style="stop-color:#5B6DFF;stop-opacity:0.2"/>
								<stop  offset="1" style="stop-color:#5B6DFF;stop-opacity:0.1"/>
							</linearGradient>
							<path class="st6" d="M540.7,192.1c0,0-10.8,37.7-16.9,86.1c-5.9,47.6-7.8,61.3-7.8,61.3l14.1-72.8l21.5-71.9L540.7,192.1z"/>
							
								<linearGradient id="SVGID_9_" gradientUnits="userSpaceOnUse" x1="126.1471" y1="325.2744" x2="44.5486" y2="174.4667" gradientTransform="matrix(-1 0 0 1 596.258 0)">
								<stop  offset="0" style="stop-color:#5B6DFF;stop-opacity:0.2"/>
								<stop  offset="1" style="stop-color:#5B6DFF;stop-opacity:0.1"/>
							</linearGradient>
							<path class="st7" d="M508.3,164.6c0,0,2.9,151.7-4.1,174.3c-7,22.6,7.6-0.5,7.6-0.5l9.4-77.2l7.2-93.6L508.3,164.6z"/>
							
								<linearGradient id="SVGID_10_" gradientUnits="userSpaceOnUse" x1="150.1419" y1="305.6571" x2="95.3372" y2="204.369" gradientTransform="matrix(-1 0 0 1 596.258 0)">
								<stop  offset="0" style="stop-color:#5B6DFF;stop-opacity:0.2"/>
								<stop  offset="1" style="stop-color:#5B6DFF;stop-opacity:0.1"/>
							</linearGradient>
							<path class="st8" d="M439.4,201.9c0,0,23.7,17.4,36,43.4c25.4,53.9,26.2,94.3,26.2,94.3s3.4-42-7.2-86.6
								c-10.6-44.6-52.3-76.6-52.3-76.6L439.4,201.9z"/>
							
								<linearGradient id="SVGID_11_" gradientUnits="userSpaceOnUse" x1="200.42" y1="303.7017" x2="149.1441" y2="208.9353" gradientTransform="matrix(-1 0 0 1 596.258 0)">
								<stop  offset="0" style="stop-color:#5B6DFF;stop-opacity:0.2"/>
								<stop  offset="1" style="stop-color:#5B6DFF;stop-opacity:0.1"/>
							</linearGradient>
							<path class="st9" d="M475.7,338.9c0,0-8.4-44.7-27.7-77.7c-34.9-59.7-80.5-72-80.5-72s-21.5-23.6,1.4-17.5
								c22.9,6.1,79.4,50.3,91.9,73.3c17.7,32.5,28.7,74.1,21.5,97C475,365,475.7,338.9,475.7,338.9z"/>
							
								<linearGradient id="SVGID_12_" gradientUnits="userSpaceOnUse" x1="211.7624" y1="301.2376" x2="179.9026" y2="242.3555" gradientTransform="matrix(-1 0 0 1 596.258 0)">
								<stop  offset="0" style="stop-color:#5B6DFF;stop-opacity:0.2"/>
								<stop  offset="1" style="stop-color:#5B6DFF;stop-opacity:0.1"/>
							</linearGradient>
							<path class="st10" d="M451.2,339.6c0,0-28.4-48.5-55.7-73.1c-27.3-24.6-49.5-40.9-49.5-40.9s-4.5-14,0.9-14
								c5.4,0,23.4,8,23.4,8l41.1,37l9.1,18.1C420.5,274.8,441.5,306.1,451.2,339.6z"/>
							
								<linearGradient id="SVGID_13_" gradientUnits="userSpaceOnUse" x1="10.4369" y1="389.6576" x2="-74.493" y2="232.693" gradientTransform="matrix(-1 0 0 1 596.258 0)">
								<stop  offset="0" style="stop-color:#5B6DFF;stop-opacity:0.2"/>
								<stop  offset="1" style="stop-color:#5B6DFF;stop-opacity:0.1"/>
							</linearGradient>
							<path class="st11" d="M717.6,264.4c0,0-20.8-18.3-73,9.6c-52.3,27.9-123.5,86.7-123.5,86.7l117.3,6.5l57-31.6L717.6,264.4z"
								/>
						</g>
					</g>
				</g>
				
					<linearGradient id="SVGID_14_" gradientUnits="userSpaceOnUse" x1="50.3992" y1="288.6245" x2="-5.6004" y2="150.6257" gradientTransform="matrix(-0.9983 -5.860000e-02 -5.860000e-02 0.9983 610.4391 2.3395)">
					<stop  offset="0" style="stop-color:#AD9EEA"/>
					<stop  offset="0.2502" style="stop-color:#B3A6EB"/>
					<stop  offset="0.6445" style="stop-color:#C4BDEF"/>
					<stop  offset="1" style="stop-color:#D7D7F4"/>
				</linearGradient>
				<path class="st12" d="M536.2,283.1c-5.7-6.5-7.4-15.5-2.8-19.6c3,2.1,4.7,5.7,5,9.4c0.2,2.6-0.2,5.3-0.9,7.8
					c2.1-3.7,4.2-7.4,6.4-11c-5-5.6-6.5-13.4-2.5-17c2.6,1.8,4,4.9,4.3,8.1c0.2,2.6-0.3,5.2-1,7.7c2-3.4,4.2-6.7,6.3-10
					c-4.9-5.6-6.4-13.3-2.4-16.8c2.6,1.8,4,4.9,4.3,8.1c0.2,2.4-0.2,4.9-0.9,7.3c1.8-2.8,3.7-5.5,5.7-8.1
					c-3.7-5.6-3.9-12.8,0.2-15.3c2,1.9,2.7,4.8,2.5,7.6c-0.2,2.7-1.3,5.2-2.5,7.5c1.9-2.5,3.8-5,5.7-7.4c-2.9-5.9-2.3-12.9,2-14.9
					c1.8,2.1,2.2,5.1,1.6,7.8c-0.4,1.9-1.2,3.7-2.2,5.4c2.2-2.6,4.5-5.2,6.8-7.7c-2.9-5.9-2.3-12.9,2-14.9c1.8,2.1,2.2,5.1,1.6,7.8
					c-0.4,2.2-1.5,4.2-2.7,6.1c2.1-2.2,4.3-4.4,6.6-6.5c-2.5-5-1.9-10.9,1.7-12.6c1.5,1.8,1.8,4.3,1.4,6.6c-0.4,2-1.4,3.8-2.5,5.5
					c1.7-1.6,3.5-3.1,5.3-4.6c-1.4-4.6-0.1-9.5,3.2-10.4c1,1.7,1,3.9,0.3,5.7c-0.5,1.4-1.4,2.7-2.5,3.9c1-0.8,2-1.6,3-2.4
					c2.3-4.7,6.9-7.8,10.3-6.1c-0.4,2.2-2.1,4-4.1,5c-1.9,1-4,1.3-6.1,1.5c-1,0.8-1.9,1.6-2.9,2.3c4.3-2.5,9.4-2.6,11.4,0.4
					c-1.5,1.7-3.8,2.3-6.1,2.2c-2.2-0.1-4.2-0.9-6.2-1.9c-1.9,1.6-3.7,3.2-5.5,4.9c5.1-3.5,11.7-3.8,14.2-0.2
					c-1.7,1.9-4.5,2.7-7.1,2.6c-2.6-0.1-5-1.1-7.3-2.2c-2.2,2.1-4.3,4.2-6.3,6.4c5.8-3.4,12.8-3.5,15.5,0.6
					c-2.1,2.3-5.3,3.2-8.4,3.1c-2.9-0.2-5.7-1.2-8.3-2.4c-2.2,2.4-4.4,4.9-6.4,7.5c5.6-4.5,12.8-5.7,16.4-2c-1.8,2.9-5.1,4.5-8.5,5
					c-3.2,0.4-6.4-0.2-9.5-1c-1.7,2.2-3.4,4.5-5.1,6.8c7.2-2.6,15-1.3,17.1,3.8c-2.7,2-6.4,2.3-9.7,1.5c-3-0.8-5.7-2.4-8.2-4.3
					c-2.2,3.1-4.3,6.2-6.4,9.3c7.4-2.3,15.2-0.5,17,4.8c-2.8,1.9-6.5,2-9.8,1c-2.9-0.9-5.5-2.7-7.9-4.7c-2.1,3.2-4.2,6.5-6.2,9.8
					c7.1-3.4,15.3-2.7,17.8,2.4c-2.6,2.2-6.2,2.8-9.6,2.2c-3.1-0.6-6-2.1-8.7-3.8c-2.3,3.8-4.6,7.7-6.9,11.5
					c7.2-4.5,16.1-4.7,19.4,0.4c-2.5,2.7-6.4,3.8-10,3.5c-3.5-0.2-6.8-1.5-9.9-3.1c-2.4,4-4.7,8.1-7,12.1c-0.1,0.2-0.4,0-0.3-0.2
					C532,290.8,534.1,287,536.2,283.1z"/>
				
					<linearGradient id="SVGID_15_" gradientUnits="userSpaceOnUse" x1="176.6732" y1="280.2759" x2="241.4443" y2="215.5049" gradientTransform="matrix(-1 0 0 1 596.258 0)">
					<stop  offset="0" style="stop-color:#AD9EEA"/>
					<stop  offset="0.2502" style="stop-color:#B3A6EB"/>
					<stop  offset="0.6445" style="stop-color:#C4BDEF"/>
					<stop  offset="1" style="stop-color:#D7D7F4"/>
				</linearGradient>
				<path class="st13" d="M369.5,219.3c-0.7-0.7-1.5-1.4-2.2-2c-1.7-0.3-3.5-0.7-5-1.6c-1.6-1-2.9-2.6-3.2-4.4
					c2.9-1.2,6.7,1.6,8.4,5.7c0.8,0.7,1.6,1.3,2.3,2c-0.8-1-1.4-2.1-1.8-3.3c-0.5-1.6-0.4-3.4,0.5-4.8c2.7,1,3.5,5.2,2.1,8.9
					c1.4,1.3,2.8,2.7,4.2,4.1c-0.8-1.5-1.5-3.1-1.8-4.7c-0.3-1.9,0.1-4,1.5-5.5c2.9,1.6,3.1,6.6,0.8,10.7c1.8,1.8,3.5,3.7,5.2,5.7
					c-0.9-1.6-1.6-3.3-1.8-5.1c-0.3-2.3,0.2-4.8,1.8-6.5c3.5,1.9,3.7,7.8,0.9,12.7c1.8,2.2,3.5,4.4,5.2,6.7
					c-0.7-1.4-1.3-2.9-1.5-4.5c-0.3-2.3,0.2-4.8,1.8-6.5c3.5,1.9,3.7,7.8,1,12.6c1.5,2.1,2.9,4.2,4.3,6.3c-0.9-2-1.6-4.1-1.6-6.2
					c-0.1-2.3,0.7-4.7,2.5-6.2c3.3,2.3,2.8,8.3-0.6,12.8c1.5,2.3,2.9,4.6,4.3,7c-0.4-2-0.6-4-0.3-5.9c0.4-2.6,1.7-5.2,4-6.6
					c3.2,3.2,1.6,9.6-2.8,14c1.6,2.8,3.2,5.7,4.7,8.6c-0.5-2.1-0.7-4.2-0.4-6.3c0.4-2.6,1.7-5.2,4-6.6c3.2,3.2,1.6,9.7-2.9,14.1
					c1.6,3.1,3.2,6.3,4.7,9.5c-0.4-2.1-0.6-4.3-0.3-6.4c0.4-3.1,2-6.1,4.7-7.7c3.7,3.7,1.8,11.2-3.3,16.4c1.6,3.4,3.2,6.8,4.7,10.1
					c0.1,0.2-0.2,0.3-0.3,0.2c-1.8-3.5-3.6-7-5.4-10.5c-2.7,1.1-5.5,2.1-8.4,2.1c-3.1,0-6.3-1.1-8.3-3.5c3-4.1,10.4-3.5,16.3,0.5
					c-1.7-3.3-3.4-6.6-5.2-9.9c-2.3,1.3-4.8,2.4-7.5,2.7c-2.8,0.3-5.9-0.3-7.9-2.3c2.4-4.1,9.2-4.3,15-1.2c-1.5-2.8-3.1-5.7-4.7-8.5
					c-2.1,1.5-4.3,2.9-6.8,3.5c-2.8,0.7-5.9,0.4-8.2-1.3c1.8-4.3,8.4-5.4,14.5-3.2c-1.6-2.7-3.2-5.4-4.9-8.1
					c-2.2,1.4-4.5,2.6-7.1,3.1c-2.8,0.5-5.9,0.1-8.1-1.8c2-4.2,8.6-4.9,14.5-2.4c-1.3-2-2.6-3.9-3.9-5.9c-2.6,0.6-5.4,0.9-8,0.4
					c-2.8-0.5-5.5-2.1-6.9-4.6c3.2-2.9,9-1.6,13.5,2.3c-1.6-2.2-3.2-4.3-4.9-6.4c-2.3,0.9-4.6,1.6-7.1,1.6c-2.6,0-5.3-1-6.9-3
					c2.5-3.3,8.2-2.9,13,0.2c-1.6-1.9-3.2-3.8-4.9-5.6c-2,0.8-4.1,1.5-6.3,1.5c-2.2,0-4.5-0.8-5.8-2.5c2.2-2.9,7.6-2.4,11.7,0.7
					c-1.4-1.4-2.8-2.9-4.2-4.2c-1.7,0.7-3.5,1.2-5.3,1.2c-1.9,0-3.8-0.7-5-2.2C361.9,216.8,366.1,217.1,369.5,219.3z"/>
				
					<linearGradient id="SVGID_16_" gradientUnits="userSpaceOnUse" x1="88.6403" y1="251.6772" x2="133.2331" y2="174.4402" gradientTransform="matrix(-1 0 0 1 596.258 0)">
					<stop  offset="0" style="stop-color:#AD9EEA"/>
					<stop  offset="0.2502" style="stop-color:#B3A6EB"/>
					<stop  offset="0.6445" style="stop-color:#C4BDEF"/>
					<stop  offset="1" style="stop-color:#D7D7F4"/>
				</linearGradient>
				<path class="st14" d="M476.1,186.2c-2-0.8-3.8-2.4-4.5-4.5c3.2-1.9,7.9,0.6,10.6,5c-0.7-1.8-1.5-3.7-2.3-5.5
					c-1.8,0-3.7-0.1-5.3-0.8c-1.7-0.7-3.3-2.1-3.8-3.9c2.6-1.5,6.3,0.3,8.7,3.7c-0.4-0.9-0.9-1.8-1.3-2.7c-1.5-0.9-3-1.9-4.1-3.3
					c-1.1-1.5-1.8-3.5-1.3-5.3c3.2,0,5.6,3.9,5.7,8.4c0.5,0.9,0.9,1.8,1.4,2.8c-0.3-1.2-0.5-2.4-0.4-3.7c0.1-1.7,0.9-3.4,2.3-4.3
					c2.2,1.9,1.4,6.1-1.3,9.1c0.8,1.8,1.6,3.5,2.3,5.3c-0.2-1.7-0.3-3.4,0.1-5c0.5-1.9,1.6-3.7,3.4-4.5c2.1,2.6,0.4,7.3-3.2,10.2
					c1,2.4,1.8,4.8,2.6,7.2c-0.2-1.8-0.2-3.7,0.2-5.5c0.6-2.2,1.9-4.4,4-5.4c2.5,3.1,0.5,8.6-3.8,12.1c0.9,2.7,1.6,5.4,2.3,8.1
					c-0.1-1.6-0.1-3.1,0.3-4.7c0.6-2.2,1.9-4.4,4-5.4c2.5,3.1,0.5,8.6-3.8,12.1c0.6,2.4,1.1,4.9,1.6,7.4c-0.1-2.1,0.1-4.3,0.8-6.3
					c0.8-2.2,2.4-4.1,4.6-4.9c2.2,3.4-0.5,8.7-5.3,11.7c0.5,2.7,1,5.4,1.4,8.1c0.4-2,0.9-3.9,1.9-5.6c1.3-2.3,3.5-4.2,6.2-4.6
					c1.8,4.1-2.1,9.5-7.8,12c0.5,3.2,0.9,6.5,1.2,9.7c0.3-2.1,0.9-4.1,2-6c1.3-2.3,3.5-4.2,6.2-4.6c1.8,4.2-2.2,9.6-8,12
					c0.4,3.5,0.6,7,0.9,10.5c0.4-2.1,1-4.2,2.1-6c1.5-2.7,4.1-4.9,7.2-5.4c2.1,4.8-2.4,11-9.1,14c0.2,3.7,0.4,7.5,0.6,11.2
					c0,0.2-0.3,0.2-0.3,0c-0.4-3.9-0.7-7.8-1.1-11.7c-2.9,0.1-5.9-0.1-8.6-1.2c-2.9-1.1-5.5-3.3-6.4-6.3c4.3-2.7,11,0.6,14.9,6.5
					c-0.3-3.7-0.7-7.4-1.1-11.2c-2.7,0.3-5.4,0.4-7.9-0.2c-2.8-0.7-5.4-2.5-6.5-5.1c3.7-2.9,10.2-0.6,14.4,4.5
					c-0.3-3.2-0.7-6.4-1.2-9.6c-2.5,0.6-5.1,1.1-7.7,0.7c-2.8-0.4-5.6-1.8-7.1-4.2c3.3-3.3,9.8-1.9,14.6,2.4
					c-0.4-3.1-0.9-6.2-1.5-9.3c-2.6,0.5-5.2,0.8-7.7,0.3c-2.8-0.5-5.5-2.1-6.9-4.6c3.4-3.1,9.8-1.4,14.4,3.1
					c-0.4-2.3-0.9-4.6-1.4-6.9c-2.7-0.5-5.3-1.2-7.6-2.6c-2.4-1.5-4.4-4-4.7-6.8c4.1-1.5,9,1.9,11.7,7.1c-0.6-2.6-1.3-5.2-2.1-7.7
					c-2.4,0-4.9-0.2-7.1-1.1c-2.4-1-4.5-2.9-5.3-5.4c3.5-2.1,8.7,0.4,12,5c-0.8-2.4-1.6-4.7-2.5-7
					C480.3,187.2,478.1,187,476.1,186.2z"/>
			</g>
			<g class="st0">
				
					<linearGradient id="SVGID_17_" gradientUnits="userSpaceOnUse" x1="275.1585" y1="204.0661" x2="271.6652" y2="195.4574" gradientTransform="matrix(-1 0 0 1 596.258 0)">
					<stop  offset="0" style="stop-color:#AD9EEA"/>
					<stop  offset="0.2502" style="stop-color:#B3A6EB"/>
					<stop  offset="0.6445" style="stop-color:#C4BDEF"/>
					<stop  offset="1" style="stop-color:#D7D7F4"/>
				</linearGradient>
				<polygon class="st15" points="323.9,196.4 324.8,204.8 317.9,202.2 				"/>
				
					<linearGradient id="SVGID_18_" gradientUnits="userSpaceOnUse" x1="123.1913" y1="151.9843" x2="119.698" y2="143.3758" gradientTransform="matrix(0.365 -0.931 -0.931 -0.365 588.7256 322.8549)">
					<stop  offset="0" style="stop-color:#AD9EEA"/>
					<stop  offset="0.2502" style="stop-color:#B3A6EB"/>
					<stop  offset="0.6445" style="stop-color:#C4BDEF"/>
					<stop  offset="1" style="stop-color:#D7D7F4"/>
				</linearGradient>
				<polygon class="st16" points="498.3,158.1 490.2,155.8 495.1,150.4 				"/>
				
					<linearGradient id="SVGID_19_" gradientUnits="userSpaceOnUse" x1="101.7495" y1="84.5678" x2="98.256" y2="75.959" gradientTransform="matrix(-0.981 0.1939 0.1939 0.981 646.3622 103.7911)">
					<stop  offset="0" style="stop-color:#AD9EEA"/>
					<stop  offset="0.2502" style="stop-color:#B3A6EB"/>
					<stop  offset="0.6445" style="stop-color:#C4BDEF"/>
					<stop  offset="1" style="stop-color:#D7D7F4"/>
				</linearGradient>
				<polygon class="st17" points="564.2,198.4 566.7,206.5 559.4,205.3 				"/>
				
					<linearGradient id="SVGID_20_" gradientUnits="userSpaceOnUse" x1="186.6473" y1="111.605" x2="183.154" y2="102.9966" gradientTransform="matrix(-4.570000e-02 0.999 0.999 4.570000e-02 468.7881 -96.1125)">
					<stop  offset="0" style="stop-color:#AD9EEA"/>
					<stop  offset="0.2502" style="stop-color:#B3A6EB"/>
					<stop  offset="0.6445" style="stop-color:#C4BDEF"/>
					<stop  offset="1" style="stop-color:#D7D7F4"/>
				</linearGradient>
				<polygon class="st18" points="564.2,92.3 572.6,91.8 569.7,98.6 				"/>
				
					<linearGradient id="SVGID_21_" gradientUnits="userSpaceOnUse" x1="124.8899" y1="69.8741" x2="108.2766" y2="73.3096" gradientTransform="matrix(-1 0 0 1 596.258 0)">
					<stop  offset="0" style="stop-color:#AD9EEA"/>
					<stop  offset="0.2502" style="stop-color:#B3A6EB"/>
					<stop  offset="0.6445" style="stop-color:#C4BDEF"/>
					<stop  offset="1" style="stop-color:#D7D7F4"/>
				</linearGradient>
				
					<rect x="474.2" y="66.1" transform="matrix(-0.8498 0.5271 -0.5271 -0.8498 925.0303 -120.4279)" class="st19" width="11" height="11"/>
				
					<linearGradient id="SVGID_22_" gradientUnits="userSpaceOnUse" x1="281.8592" y1="184.8287" x2="278.6668" y2="187.8578" gradientTransform="matrix(-0.999 -4.450000e-02 -4.450000e-02 0.999 641.5688 -32.0403)">
					<stop  offset="0" style="stop-color:#AD9EEA"/>
					<stop  offset="0.2502" style="stop-color:#B3A6EB"/>
					<stop  offset="0.6445" style="stop-color:#C4BDEF"/>
					<stop  offset="1" style="stop-color:#D7D7F4"/>
				</linearGradient>
				<polygon class="st20" points="351.7,143.1 354.8,143.3 354.9,140.2 351.8,140 				"/>
				
					<linearGradient id="SVGID_23_" gradientUnits="userSpaceOnUse" x1="59.8353" y1="183.3919" x2="50.1262" y2="192.6042" gradientTransform="matrix(-0.905 -0.4255 -0.4255 0.905 709.5223 24.7624)">
					<stop  offset="0" style="stop-color:#AD9EEA"/>
					<stop  offset="0.2502" style="stop-color:#B3A6EB"/>
					<stop  offset="0.6445" style="stop-color:#C4BDEF"/>
					<stop  offset="1" style="stop-color:#D7D7F4"/>
				</linearGradient>
				<polygon class="st21" points="573.5,173.8 582,177.8 586.1,169.2 577.5,165.2 				"/>
				
					<linearGradient id="SVGID_24_" gradientUnits="userSpaceOnUse" x1="240.481" y1="292.0606" x2="234.3277" y2="297.8991" gradientTransform="matrix(-0.9607 0.2776 0.2776 0.9607 503.9428 -157.0196)">
					<stop  offset="0" style="stop-color:#AD9EEA"/>
					<stop  offset="0.2502" style="stop-color:#B3A6EB"/>
					<stop  offset="0.6445" style="stop-color:#C4BDEF"/>
					<stop  offset="1" style="stop-color:#D7D7F4"/>
				</linearGradient>
				<polygon class="st22" points="355.7,196 361.5,194.3 359.8,188.6 354,190.2 				"/>
				
					<linearGradient id="SVGID_25_" gradientUnits="userSpaceOnUse" x1="206.2302" y1="141.54" x2="197.4427" y2="146.091" gradientTransform="matrix(-0.9137 -0.4064 -0.4064 0.9137 619.2572 84.6624)">
					<stop  offset="0" style="stop-color:#AD9EEA"/>
					<stop  offset="0.2502" style="stop-color:#B3A6EB"/>
					<stop  offset="0.6445" style="stop-color:#C4BDEF"/>
					<stop  offset="1" style="stop-color:#D7D7F4"/>
				</linearGradient>
				
					<rect x="373.4" y="131" transform="matrix(-0.9906 -0.1368 0.1368 -0.9906 730.916 318.2992)" class="st23" width="6" height="6"/>
				
					<linearGradient id="SVGID_26_" gradientUnits="userSpaceOnUse" x1="26.4419" y1="151.5678" x2="24.9715" y2="147.9442" gradientTransform="matrix(-1 0 0 1 596.258 0)">
					<stop  offset="0" style="stop-color:#AD9EEA"/>
					<stop  offset="0.2502" style="stop-color:#B3A6EB"/>
					<stop  offset="0.6445" style="stop-color:#C4BDEF"/>
					<stop  offset="1" style="stop-color:#D7D7F4"/>
				</linearGradient>
				<circle class="st24" cx="570.6" cy="149.8" r="2"/>
				
					<linearGradient id="SVGID_27_" gradientUnits="userSpaceOnUse" x1="7.8476" y1="58.0018" x2="6.3772" y2="54.3782" gradientTransform="matrix(-1 0 0 1 596.258 0)">
					<stop  offset="0" style="stop-color:#AD9EEA"/>
					<stop  offset="0.2502" style="stop-color:#B3A6EB"/>
					<stop  offset="0.6445" style="stop-color:#C4BDEF"/>
					<stop  offset="1" style="stop-color:#D7D7F4"/>
				</linearGradient>
				<circle class="st25" cx="589.1" cy="56.2" r="2"/>
				
					<linearGradient id="SVGID_28_" gradientUnits="userSpaceOnUse" x1="249.1105" y1="251.0837" x2="247.6401" y2="247.4601" gradientTransform="matrix(-1 0 0 1 596.258 0)">
					<stop  offset="0" style="stop-color:#AD9EEA"/>
					<stop  offset="0.2502" style="stop-color:#B3A6EB"/>
					<stop  offset="0.6445" style="stop-color:#C4BDEF"/>
					<stop  offset="1" style="stop-color:#D7D7F4"/>
				</linearGradient>
				<circle class="st26" cx="347.9" cy="249.3" r="2"/>
			</g>
			<g class="st0">
				<g>
					<path class="st27" d="M341.5,64.1c13.3-1,25.6,8.2,28.3,21.3c1.8,8.5-0.7,16.9-5.9,22.9l2.9,8.2c0.3,0.8-0.5,1.6-1.4,1.3
						l-8.8-3.6c-3.3,1.9-7,3-11.1,3.4c-13.5,1.1-25.9-8.4-28.4-21.7C314.2,80.3,325.4,65.4,341.5,64.1z"/>
					
						<linearGradient id="SVGID_29_" gradientUnits="userSpaceOnUse" x1="238.0705" y1="90.4061" x2="265.2025" y2="90.4061" gradientTransform="matrix(-1 0 0 1 596.258 0)">
						<stop  offset="0" style="stop-color:#B6BCFC"/>
						<stop  offset="1" style="stop-color:#FFCAE0"/>
					</linearGradient>
					<path class="st28" d="M353.7,105l3.4-2.7c1.3-1,1.5-2.9,0.5-4.2l-2.6-3.2c-1-1.3-2.9-1.5-4.2-0.5c0,0-1.9,1.9-3.5,1.1
						c-1.8-0.8-5.3-4.7-7.1-7.6c-1.2-2,2-4.3,2-4.3c1.3-1,1.5-2.9,0.5-4.2l-2.6-3.2c-1-1.3-2.9-1.5-4.2-0.5l-3.4,2.7
						C325,84.4,347.1,110.3,353.7,105z"/>
				</g>
				<g>
					<path class="st27" d="M255.5,200.7c10.8,1.1,19.5,9.8,20.5,20.6c0.7,7.9-2.5,15.1-8,19.7l1.3,7c0.2,0.9-0.8,1.5-1.6,1.1l-6.6-4
						c-3.3,1.2-6.9,1.7-10.7,1.3c-10.6-1.2-19.2-9.9-20.2-20.5C228.8,211.3,241,199.2,255.5,200.7z"/>
					
						<linearGradient id="SVGID_30_" gradientUnits="userSpaceOnUse" x1="334.9894" y1="230.8023" x2="351.2908" y2="214.5009" gradientTransform="matrix(-1 0 0 1 596.258 0)">
						<stop  offset="0" style="stop-color:#B6BCFC"/>
						<stop  offset="1" style="stop-color:#FFCAE0"/>
					</linearGradient>
					<path class="st29" d="M251.3,231.5v-2.2c0-1.5-0.8-2.9-2-3.5c-2.9-1.5-4.6-4.4-4.6-7.6c0.1-4.5,3.8-8.3,8.3-8.3
						c2.3,0,4.4,0.8,6,2.4c1.6,1.6,2.5,3.7,2.5,6c0,1-0.8,1.8-1.8,1.8c-1,0-1.8-0.8-1.8-1.8c0-1.3-0.5-2.5-1.4-3.4
						c-0.9-0.9-2.1-1.4-3.3-1.4c0,0,0,0-0.1,0c-2.5,0-4.7,2.2-4.7,4.7c0,1.8,1,3.5,2.6,4.3c2.4,1.2,4,3.9,4,6.8v2.2
						c0,1-0.8,1.8-1.8,1.8C252.1,233.3,251.3,232.5,251.3,231.5z M251.3,236.4c0,1,0.8,1.8,1.8,1.8c1,0,1.8-0.8,1.8-1.8
						c0-1-0.8-1.8-1.8-1.8C252.1,234.5,251.3,235.3,251.3,236.4z"/>
				</g>
				<g>
					<g>
						<path class="st30" d="M538.7,78.7c-14.7-5.6-31.6,0.6-39.2,14.4c-5.1,9.4-5.1,20-1,28.8l-6.1,8.8c-0.5,0.7,0.1,1.8,1,1.7
							l11.5-1.3c3.2,3.2,7.1,5.7,11.6,7.4c14.8,5.4,31.6-1.1,39-14.9C564.5,106.5,556.6,85.5,538.7,78.7z"/>
					</g>
					<g>
						<g>
							<polygon class="st31" points="514.1,124.3 544,118.6 543.6,96.5 507.3,102.8 							"/>
							
								<linearGradient id="SVGID_31_" gradientUnits="userSpaceOnUse" x1="52.678" y1="93.7751" x2="88.9779" y2="93.7751" gradientTransform="matrix(-1 0 0 1 596.258 0)">
								<stop  offset="0" style="stop-color:#A79EFC"/>
								<stop  offset="1" style="stop-color:#FFC3D4"/>
							</linearGradient>
							<polygon class="st32" points="507.3,102.8 543.6,96.5 522.8,84.7 							"/>
							
								<rect x="512.6" y="97.6" transform="matrix(-0.985 0.1723 -0.1723 -0.985 1065.7881 127.6426)" class="st33" width="29.5" height="24.9"/>
							
								<linearGradient id="SVGID_32_" gradientUnits="userSpaceOnUse" x1="48.5503" y1="108.2747" x2="68.6182" y2="108.2747" gradientTransform="matrix(-1 0 0 1 596.258 0)">
								<stop  offset="0" style="stop-color:#B6BCFC"/>
								<stop  offset="1" style="stop-color:#FFCAE0"/>
							</linearGradient>
							<polygon class="st34" points="543.6,96.5 547.7,120.1 527.6,112.3 							"/>
							
								<linearGradient id="SVGID_33_" gradientUnits="userSpaceOnUse" x1="68.6184" y1="114.6234" x2="88.9779" y2="114.6234" gradientTransform="matrix(-1 0 0 1 596.258 0)">
								<stop  offset="0" style="stop-color:#B6BCFC"/>
								<stop  offset="1" style="stop-color:#FFCAE0"/>
							</linearGradient>
							<polygon class="st35" points="507.3,102.8 511.4,126.4 527.6,112.3 							"/>
							<polygon class="st36" points="511.4,126.4 547.7,120.1 526.3,105.1 							"/>
							
								<linearGradient id="SVGID_34_" gradientUnits="userSpaceOnUse" x1="48.5503" y1="117.3753" x2="84.8502" y2="117.3753" gradientTransform="matrix(-1 0 0 1 596.258 0)">
								<stop  offset="0" style="stop-color:#B6BCFC"/>
								<stop  offset="1" style="stop-color:#FFCAE0"/>
							</linearGradient>
							<polygon class="st37" points="511.4,126.4 547.7,120.1 526.9,108.3 							"/>
						</g>
					</g>
				</g>
			</g>
			<g class="st0">
				<g>
					
						<linearGradient id="SVGID_35_" gradientUnits="userSpaceOnUse" x1="68.2489" y1="337.0581" x2="68.2489" y2="253.4304" gradientTransform="matrix(-1.145 -8.960000e-02 -7.930000e-02 1.0138 639.0869 2.0347)">
						<stop  offset="0.3367" style="stop-color:#516DFC"/>
						<stop  offset="0.512" style="stop-color:#556FFB"/>
						<stop  offset="0.6688" style="stop-color:#5F74F8"/>
						<stop  offset="0.8185" style="stop-color:#727DF2"/>
						<stop  offset="0.963" style="stop-color:#8B8AEA"/>
						<stop  offset="1" style="stop-color:#938EE8"/>
					</linearGradient>
					<polygon class="st38" points="519.7,336.5 548.7,338.8 555.4,254 526.3,251.7 					"/>
					
						<rect x="521.4" y="309.1" transform="matrix(-0.997 -7.797994e-02 7.797994e-02 -0.997 1045.8135 670.4738)" class="st39" width="29.1" height="11.4"/>
					
						<rect x="520.6" y="323.6" transform="matrix(-0.997 -7.798010e-02 7.798010e-02 -0.997 1043.2019 692.6759)" class="st39" width="29.1" height="4.8"/>
				</g>
				<g>
					
						<linearGradient id="SVGID_36_" gradientUnits="userSpaceOnUse" x1="28.2352" y1="337.6091" x2="28.2352" y2="253.9841" gradientTransform="matrix(-1 0 0 1 596.258 0)">
						<stop  offset="0" style="stop-color:#6D79FC"/>
						<stop  offset="1" style="stop-color:#C8A6E0"/>
					</linearGradient>
					<polygon class="st40" points="555.4,337.6 580.7,337.6 580.7,254 555.4,254 					"/>
					
						<rect x="555.4" y="314.8" transform="matrix(-1 -4.485846e-11 4.485846e-11 -1 1136.0455 641.47)" class="st39" width="25.3" height="11.8"/>
					
						<rect x="555.4" y="329.5" transform="matrix(-1 -4.485846e-11 4.485846e-11 -1 1136.0455 663.578)" class="st39" width="25.3" height="4.6"/>
				</g>
				<g>
					
						<linearGradient id="SVGID_37_" gradientUnits="userSpaceOnUse" x1="-2.0879" y1="337.6091" x2="-2.0879" y2="253.9841" gradientTransform="matrix(-1 0 0 1 596.258 0)">
						<stop  offset="0.3367" style="stop-color:#516DFC"/>
						<stop  offset="0.512" style="stop-color:#556FFB"/>
						<stop  offset="0.6688" style="stop-color:#5F74F8"/>
						<stop  offset="0.8185" style="stop-color:#727DF2"/>
						<stop  offset="0.963" style="stop-color:#8B8AEA"/>
						<stop  offset="1" style="stop-color:#938EE8"/>
					</linearGradient>
					<polygon class="st41" points="580.7,337.6 616,337.6 616,254 580.7,254 					"/>
					
						<rect x="580.7" y="267.3" transform="matrix(-1 -4.487844e-11 4.487844e-11 -1 1196.6918 539.804)" class="st42" width="35.3" height="5.1"/>
					
						<rect x="580.7" y="322.2" transform="matrix(-1 -4.498147e-11 4.498147e-11 -1 1196.6918 648.9052)" class="st42" width="35.3" height="4.6"/>
				</g>
			</g>
			<g class="st0">
				
					<linearGradient id="SVGID_38_" gradientUnits="userSpaceOnUse" x1="72.9669" y1="354.8206" x2="212.7106" y2="215.0769" gradientTransform="matrix(-1 0 0 1 596.258 0)">
					<stop  offset="0" style="stop-color:#12178F"/>
					<stop  offset="0.1943" style="stop-color:#1A1995"/>
					<stop  offset="0.5015" style="stop-color:#3120A6"/>
					<stop  offset="0.8812" style="stop-color:#562AC0"/>
					<stop  offset="1" style="stop-color:#632ECA"/>
				</linearGradient>
				<path class="st43" d="M539.5,338.6c0,0,9.8-85.5-26.5-124.8c-26.8-29-63.2-30.8-88-26.3c-74.7,13.6-49.8,150.2-49.8,150.2"/>
				<g>
					<g>
						<path class="st44" d="M391.4,218.9c5.2-9.5,16.2-25.6,52.4-25.1c32.4,0.4,49.7,34.8,53.1,41.5c0.4,0.8,0.6,1.2,0.6,1.2
							l7.5,102.1H384.1C384.1,338.6,386.1,228.4,391.4,218.9z"/>
						<g>
							<path class="st45" d="M467.2,205.9c-25.2-8.8-47.3-7.3-70.8,5.3"/>
							<path class="st45" d="M466.1,210.3c-11.3-4.7-23.7-5.8-35.9-5.2c-12.2,0.7-24.2,3.2-36.1,5.7"/>
							<path class="st45" d="M471.1,216.7c-24.8-6.9-51.3-7.8-76.5-2.7"/>
							<path class="st45" d="M465.6,219.2c-17.1-2.7-34.3-4-51.6-4c-9.1,0-18.5,0.4-26.9,4.1"/>
							<path class="st45" d="M470.2,224.5c-26.6-5.5-54.3-5.7-81-0.8"/>
							<path class="st45" d="M471.6,228.6c-28.8-1.6-57.7-1.5-86.5,0.1"/>
							<path class="st45" d="M463.6,235.7c-25.7-1-51.4-0.6-77,1.1"/>
							<path class="st45" d="M462.6,241.3c-27.1,4-54.7,4.6-82,2"/>
							<path class="st45" d="M461.6,248.6c-25,1.6-50,2.3-75,1.9"/>
							<path class="st45" d="M464.6,254.3c-25.8,5.1-52.5,5.8-78.6,2.2"/>
							<path class="st45" d="M460.6,265.9c-22.3,2-44.7,2.9-67,2.7"/>
							<path class="st45" d="M467.1,274c-26.3,1.9-52.7,2.4-79,1.6"/>
							<path class="st45" d="M473.1,278.9c-29.5,1.8-59,2.4-88.5,1.7"/>
							<path class="st45" d="M463.1,288.2c-26.8,0-53.7,0-80.5,0"/>
							<path class="st45" d="M473.6,292.7c-29.3,1-58.7,2.1-88,3.1"/>
							<path class="st45" d="M465.1,300c-28.5,2.1-57,3.7-85.5,4.6"/>
							<path class="st45" d="M471.1,307.2c-29,0.1-58,0.8-87,2.3"/>
							<path class="st45" d="M461.6,318.7c-24.8-2.1-49.8-1.7-74.5,1.1"/>
							<path class="st45" d="M464.6,327.2c-26.2,0-52.3,0-78.5,0"/>
							<path class="st45" d="M450.6,333.1c-20,0.2-40,0.4-60,0.6"/>
							<path class="st45" d="M468.1,203c-0.5-1.3-2-1.9-3.3-2.3c-17.8-6.1-40.2-5.3-57.5,2"/>
						</g>
						<g class="st46">
							<path class="st47" d="M457.8,196.2l-0.7,1c-4.1,0.5-11.5,1.7-16.9,7c-1.6,1.6-3.6,2.8-5.8,3.4c-2.2,0.6-4.7,0.3-6.2-1.4
								c-0.8-0.9-1.2-2.2-1.5-3.4c-0.5-2.6-0.2-5.2,0.6-7.7c0-0.1,0-0.1,0.1-0.2c4.8-0.8,10.2-1.2,16.3-1.1
								C448.8,193.8,453.5,194.7,457.8,196.2z"/>
						</g>
					</g>
					<g>
						<g>
							<g>
								
									<linearGradient id="SVGID_39_" gradientUnits="userSpaceOnUse" x1="279.4145" y1="241.5425" x2="298.1281" y2="209.1297" gradientTransform="matrix(-1 0 0 1 596.258 0)">
									<stop  offset="0.3929" style="stop-color:#F9C6B9"/>
									<stop  offset="0.5748" style="stop-color:#F9C3B6"/>
									<stop  offset="0.7063" style="stop-color:#F9BAAD"/>
									<stop  offset="0.8221" style="stop-color:#F9AA9D"/>
									<stop  offset="0.9281" style="stop-color:#F99488"/>
									<stop  offset="1" style="stop-color:#F98074"/>
								</linearGradient>
								<path class="st48" d="M314.8,242.7c-5.3-4.4-9.9-9.5-13.8-15.2c-0.7-1.1-7.3-12.6-6.7-12.8c1.5-0.6,7.7,7.8,7.7,7.8
									s-7.7-10.7-6-11.7c0.7-0.4,8.4,9.9,8.4,9.9s-7.6-10.7-6.1-11.7c0.8-0.5,8.7,10.2,8.7,10.2s-6.6-10.3-5.3-11
									c1.2-0.6,8.9,9.5,12.3,14.9c3.4,5.4,5.4,16.9,5.4,16.9"/>
							</g>
							<g>
								
									<linearGradient id="SVGID_40_" gradientUnits="userSpaceOnUse" x1="278.9554" y1="233.2276" x2="290.7888" y2="214.3109" gradientTransform="matrix(-1 0 0 1 596.258 0)">
									<stop  offset="0.3929" style="stop-color:#F9C6B9"/>
									<stop  offset="0.5748" style="stop-color:#F9C3B6"/>
									<stop  offset="0.7063" style="stop-color:#F9BAAD"/>
									<stop  offset="0.8221" style="stop-color:#F9AA9D"/>
									<stop  offset="0.9281" style="stop-color:#F99488"/>
									<stop  offset="1" style="stop-color:#F98074"/>
								</linearGradient>
								<path class="st49" d="M319.4,234c-0.8-3.6-1.7-7.2-3-10.7c-1.3-3.5-3-6.8-5.4-9.7c-0.3-0.3-0.8-0.7-1.1-0.3
									c-0.1,0.1-0.1,0.3-0.1,0.5c0,1,0.4,2,0.7,2.9c0.2,0.6,0.5,1.2,0.7,1.8c0.4,0.9,0.7,2,0.4,2.9c-0.1,0.4-0.4,0.7-0.6,1.1
									c-2.1,3.3-2.6,9.7,3.1,14.3"/>
							</g>
							<g>
								<g>
									<path class="st50" d="M311.2,221.6c-2.2,3.6-2,9,1.4,11.9c0.1,0.1,0.3,0,0.2-0.2c-1.2-1.6-2.2-3.2-2.5-5.2
										c-0.4-2.2,0.1-4.4,1.1-6.3C311.5,221.6,311.3,221.5,311.2,221.6L311.2,221.6z"/>
								</g>
							</g>
							<g>
								<g>
									<path class="st50" d="M308.7,218.3c-1.5,0.7-2.9,1.5-4.3,2.3c-0.7,0.4-1.3,0.9-2,1.4c-0.6,0.5-1.4,0.9-1.8,1.5
										c-0.1,0.1,0,0.3,0.2,0.2c0.7-0.4,1.3-1,1.9-1.5c0.6-0.5,1.3-0.9,2-1.4C305.9,220,307.3,219.2,308.7,218.3
										C308.7,218.4,308.7,218.3,308.7,218.3L308.7,218.3z"/>
								</g>
							</g>
						</g>
						<path class="st51" d="M415.4,197.7c0,0-20.6,7.3-34,25.3c-10.8,14.6-25.7,52.3-25.7,52.3l-36-42.7c0,0-5,1.7-8.7,8
							c0,4,29.7,76.6,46.7,76.3c17-0.3,46.2-37,46.2-37"/>
						<path class="st52" d="M394.3,291.3c-7.2,7.7-17.2,17.4-26.3,22.4c3.8-11.2,9.2-32.2,14-71l9.9,38.8L394.3,291.3z"/>
					</g>
					<g>
						<path class="st51" d="M442.4,339.6c-2.3-84.4,13.9-143.9,13.9-143.9s20.5,4.6,41.4,27.8c11.1,12.9,0.1,21.5,3.7,42.2
							c6.5,38.3,11,73.9,11,73.9H442.4z"/>
						<path class="st52" d="M501.4,265.7c6,35.1,10.2,68,10.9,73.2c-34,0.3-56.1-11-63.9-17.4c-1.9,0-5.4,0.1-6.2,0.2l0-5.2
							c0.4-4.8,3.4-8.6,3.4-8.6l41.9-2.5c0,0-19.3-37.1-19.3-54.7C468.1,250.6,494.9,227.4,501.4,265.7z"/>
						<path class="st53" d="M469.6,202.2c0,0-2.4,28.5-2.4,36.2c-1.9,1.9-10.5,4.7-10.5,4.7s6.7,3.3,6.7,5.5
							c0,2.2-17.8,45.6-21.3,65.1"/>
					</g>
					<g>
						<path class="st51" d="M381.9,244.2c-2.7,29.1-5.8,95.4-5.8,95.4h38.3c-4.4-89,1-141.4,1-141.4S385.2,208.7,381.9,244.2z"/>
						<path class="st53" d="M403.2,204.9c0,0-5,20.6-4.4,31.2c1.6,2.2,8.6,6.1,8.6,6.1s-7.1,2.3-7.5,4.5
							c-0.3,2.2,12.3,50.6,12.8,70.4"/>
					</g>
					<g>
						<g>
							
								<linearGradient id="SVGID_41_" gradientUnits="userSpaceOnUse" x1="143.5569" y1="312.4056" x2="173.9961" y2="312.4056" gradientTransform="matrix(-1 0 0 1 596.258 0)">
								<stop  offset="0.1837" style="stop-color:#F9C6B9"/>
								<stop  offset="0.4282" style="stop-color:#F9C3B6"/>
								<stop  offset="0.6052" style="stop-color:#F9BAAD"/>
								<stop  offset="0.7608" style="stop-color:#F9AA9D"/>
								<stop  offset="0.9033" style="stop-color:#F99488"/>
								<stop  offset="1" style="stop-color:#F98074"/>
							</linearGradient>
							<path class="st54" d="M450.4,309.9c-3.3-1.6-7-3-10.8-3.6c-1.5-0.3-6.5-1.2-6.9-0.3c-0.5,1.2,5.6,2.6,4,2.6
								c-1.7,0-12.6-1.4-12.7-0.3c-0.1,1.1,10.3,3.3,10.3,3.3s-12-1-12,0.4c-0.1,1.4,11.1,2.1,11.1,2.1s-10.3-0.2-10.4,1.2
								c0,1.3,10.6,1.2,10.6,1.2s-8.2,0.5-8.2,1.4c0,0.9,12.7,3.2,27.3-0.6"/>
						</g>
						<path class="st51" d="M465.8,249.3c2.8,19.7,30.5,58.7,30.5,58.7l-47.5,1.2c0,0-2.9,4.3-1.1,9.3c3,5.1,51.4,20.1,72.7,20.1
							c23,0,10.7-73.2-22-114.2"/>
					</g>
				</g>
				<g>
					<g>
						
							<ellipse transform="matrix(0.9982 -6.064976e-02 6.064976e-02 0.9982 -8.928 24.7545)" class="st55" cx="403.3" cy="159.4" rx="13.2" ry="14.3"/>
						
							<ellipse transform="matrix(0.9982 -6.067700e-02 6.067700e-02 0.9982 -8.9479 24.8104)" class="st56" cx="404" cy="159.7" rx="12.5" ry="14"/>
						<path class="st51" d="M393,160.7c0.5,7.6,6.2,13.4,12.9,12.9c6.7-0.4,11.7-6.9,11.2-14.4c-0.5-7.6-6.2-13.4-12.9-12.9
							C397.6,146.7,392.6,153.1,393,160.7z"/>
						
							<ellipse transform="matrix(0.9982 -6.067025e-02 6.067025e-02 0.9982 -8.9525 24.9243)" class="st52" cx="406" cy="159.9" rx="7.1" ry="9"/>
					</g>
					<g>
						<path class="st57" d="M427.8,113c1.5-2,2.1-4.4,3.3-6.6c2.8-5.4,8.8-8.5,14.8-9.4c2-0.3,4.2-0.4,6.1,0.4
							c3.3,1.3,5.5,4.8,8.9,6c1.3,0.5,2.7,0.6,4,0.7c4.6,0.4,9.2,1.1,13.7,2.6c1.7,0.6,3.4,1.2,4.9,2.3c3.7,2.7,5.4,8,3.8,12.3
							c-0.7,2-2,3.9-2.2,6c-0.2,2.2,0.8,4.5,0,6.6c-0.4,1.2-1.3,2.2-2.2,3.1c-1.6,1.7-3.3,3.3-5.4,4.4c-2,1.1-4.3,1.5-6.5,2
							c-2.9,0.6-5.9,1.2-8.9,1.1c-3,0-6.1-0.7-8.5-2.5c-2.1-1.5-3.6-3.7-5.1-5.9"/>
					</g>
					<g>
						<path class="st58" d="M442.8,111.1c4.9,2.2,9.9,4.5,13.4,8.5c2.4,2.8,4,6.2,6,9.3s4.6,6.1,8.2,7.1c2.3,0.6,4.7,0.4,7,0
							c0.9-0.1,1.9-0.3,2.5-1c0.6-0.7,0.6-1.6,0.7-2.4c0.3-3,1.1-6.1,3.2-8.2c0.7-0.7,1.7-1.2,2.7-1.5c-0.7,1.4-1.4,2.8-1.6,4.4
							c-0.2,2.2,0.8,4.5,0,6.6c-0.4,1.2-1.3,2.2-2.2,3.1c-1.6,1.7-3.3,3.3-5.4,4.4c-2,1.1-4.3,1.5-6.5,2c-2.9,0.6-5.9,1.2-8.9,1.1
							c-3,0-6.1-0.7-8.5-2.5c-2.1-1.5-3.6-3.7-5.1-5.9l-20.6-23C432.3,106.8,440,109.8,442.8,111.1z"/>
					</g>
					<path class="st59" d="M435.7,178.3l6.5,15.6c0.7,1.8,0.7,3.7,0,5.5c-1.6,3.6-5,9.4-10.6,9.4c-9,0-10.1-10.8-10.1-10.8
						l-0.9-14.4"/>
					<path class="st50" d="M421.1,191.6l-0.5-8.1l15.2-5.3l0.5,1.2C432.6,184.8,427,189.3,421.1,191.6z"/>
					<path class="st59" d="M403.5,131c-1.9,1.7-3.4,3.8-4.6,6.2c-3.3,6.9-1.3,14.5,0.1,21.6c1.4,7.2,2.4,17.3,7.3,23.2
						c12.7,15.3,35.1-0.1,39.2-15.4c2.8-10.5,4.6-24.8-3.1-33.8C433.3,122.1,413.7,121.5,403.5,131z"/>
					<g>
						<path class="st57" d="M448.9,155.6c-7.2,0.9-21.4-10.3-28.2-23.9c-1.5,0.2-2.2,2.2-3.6,2.8c-0.5,0.2-1.1,0.3-1.7,0.1
							c-0.5-0.2-0.9-0.8-0.8-1.3c-0.4,0.7-0.8,1.3-1.4,1.7c-0.6,0.4-1.4,0.6-2.1,0.3c-0.7-0.3-1.2-1.1-1-1.8
							c-4.4,0.9-8.7,7.9-9.7,12.3c-1.3,5.9-1.8,12.4,0.4,22.3c-4.9-0.4-10.3-8.1-12.6-12.4c-4.8-8.8-1.5-20.3,4.8-27.5
							c1.6-1.8,3.6-3.6,5.8-4.7c2.7-1.2,5.7-0.9,8.5-1.5c4.5-5.1,13.4-9.6,21.3-10.5c8.7-1,19.8,4,25.1,10.7
							c5.3,6.6,8.7,15.3,8.1,24.2c-0.5,7.9-5.8,14.6-11.6,20"/>
					</g>
					<g>
						<g>
							<path class="st58" d="M433.9,178.9c1.1-0.1,2.2-0.2,3.3-0.4c2.5-0.5,6-1.8,8.4-5.1c0.9-1.2,1.4-2.3,1.4-3.4
								c0-0.3-0.2-0.5-0.5-0.5c-0.3,0-0.5,0.2-0.5,0.5c-0.1,0.9-0.5,1.8-1.2,2.8c-2.3,3-5.5,4.2-7.8,4.7c-3.1,0.7-6.4,0.5-9.2,0.2
								c-0.3,0-0.5,0.2-0.5,0.5c0,0.3,0.2,0.5,0.5,0.5C429.6,178.9,431.7,179.1,433.9,178.9z"/>
						</g>
						<g>
							<path class="st58" d="M425.4,177c0.8-0.4,1.9-0.4,2.8-0.1c3.2,1.1-0.4,5-3.2,2.9c-0.2-0.2-0.4-0.4-0.6-0.6
								C424.1,178.4,424.6,177.4,425.4,177z"/>
						</g>
					</g>
					
						<linearGradient id="SVGID_42_" gradientUnits="userSpaceOnUse" x1="179.27" y1="160.3766" x2="190.4046" y2="170.9415" gradientTransform="matrix(-0.9604 0.2786 0.2786 0.9604 544.8015 -46.3686)">
						<stop  offset="0.1327" style="stop-color:#F9C6B9"/>
						<stop  offset="0.3383" style="stop-color:#F9C2B5"/>
						<stop  offset="0.547" style="stop-color:#F9B6A9"/>
						<stop  offset="0.7572" style="stop-color:#F9A195"/>
						<stop  offset="0.9672" style="stop-color:#F98579"/>
						<stop  offset="1" style="stop-color:#F98074"/>
					</linearGradient>
					<path class="st60" d="M411.7,158.9c-0.7,0.2,0,7.1-0.5,8c-0.4,0.9-2,2.5-0.8,3.3c1.1,0.7,3,1.1,4.1,0.2
						c0.7-0.5,0.9-1.5,0.9-2.3c0-1.3-0.3-2.6-0.6-3.9C414.6,162.8,414,158.4,411.7,158.9z"/>
					<path class="st58" d="M403,157.2c0.3,1.2,1.3,1.9,2.2,1.6s1.3-1.4,0.9-2.6c-0.3-1.2-1.3-1.9-2.2-1.6S402.7,156,403,157.2z"/>
					<path class="st58" d="M422.9,154.6c0.3,1.2,1.3,1.9,2.2,1.7c0.9-0.2,1.3-1.4,1-2.5c-0.3-1.2-1.3-1.9-2.2-1.7
						C423,152.4,422.6,153.5,422.9,154.6z"/>
					<path class="st58" d="M406.1,149.3c0,0-0.1-0.1-0.2-0.3c-0.1-0.2-0.3-0.4-0.6-0.6c-0.3-0.2-0.6-0.4-1-0.6
						c-0.2,0-0.4-0.1-0.6-0.1c-0.2,0-0.4,0-0.6,0c-0.2,0.1-0.4,0.1-0.5,0.2c-0.2,0.1-0.3,0.2-0.5,0.3c-0.3,0.3-0.5,0.6-0.6,0.9
						c-0.1,0.3-0.2,0.6-0.2,0.8c0,0.2,0,0.3,0,0.3s0.1-0.1,0.2-0.2c0.1-0.1,0.3-0.3,0.4-0.5c0.2-0.2,0.4-0.4,0.7-0.6
						c0.3-0.2,0.6-0.3,0.9-0.4c0.3-0.1,0.6-0.1,0.9-0.1c0.2,0,0.3,0,0.5,0.1c0.1,0,0.3,0.1,0.4,0.1c0.3,0.1,0.5,0.2,0.6,0.3
						C406,149.3,406.1,149.3,406.1,149.3z"/>
					<path class="st58" d="M427.5,147c0,0-0.1-0.1-0.2-0.3c-0.1-0.2-0.3-0.5-0.6-0.8c-0.3-0.3-0.7-0.5-1.1-0.8
						c-0.2-0.1-0.5-0.2-0.7-0.2c-0.3-0.1-0.5-0.1-0.8-0.1c-0.3,0-0.5,0-0.8,0.1c-0.3,0-0.5,0.1-0.7,0.2c-0.5,0.2-0.9,0.4-1.1,0.7
						c-0.3,0.3-0.5,0.5-0.6,0.7c-0.1,0.2-0.2,0.3-0.2,0.3s0.1-0.1,0.3-0.2c0.2-0.1,0.4-0.3,0.8-0.4c0.2-0.1,0.3-0.1,0.5-0.2
						c0.2-0.1,0.4-0.1,0.6-0.2c0.4-0.1,0.8-0.1,1.3-0.1c0.4,0,0.9,0.1,1.3,0.2c0.2,0.1,0.4,0.1,0.6,0.2c0.2,0.1,0.4,0.1,0.5,0.2
						c0.3,0.2,0.6,0.3,0.8,0.4C427.4,147,427.5,147,427.5,147z"/>
					<g>
						<path class="st33" d="M411.2,174.2c1.5,0.8,4.5,0.8,6.4-0.4c0.2-0.1,0.5,0,0.5,0.2c0.7,5.2-2,6.6-3.2,6.7
							c-3.7,0.2-4.1-4.2-4-6.2C410.8,174.2,411,174.1,411.2,174.2z"/>
					</g>
					<g>
						<path class="st61" d="M423.2,168c-1.6-1.6-2.1-5.1,0.5-6.7c1.1-0.7,3.3-1,4.5-0.6c1.8,0.6,2.8,2.4,2.7,4
							c0,2.2-0.9,3.8-2.9,4.5C426.4,169.7,424.4,169.3,423.2,168z"/>
					</g>
					<g>
						<path class="st61" d="M401.8,169.4c-1.2-1.5-1.6-4.7,0.3-6.2c0.8-0.6,2.4-0.9,3.3-0.5c1.4,0.6,2.1,2.2,2.1,3.7
							c0,2-0.6,3.5-2.1,4.1C404.3,170.9,402.8,170.5,401.8,169.4z"/>
					</g>
					<g>
						<g>
							<g>
								<path class="st56" d="M447.5,146c-1.9-6.7-5.6-12.9-10.7-17.6c-5.1-4.7-11.7-7.8-18.6-8.7c-5.2-0.7-4.2-1.4-8.9,0.3
									l-3.3,2.3c8.4-0.9,16.6,2.1,23.4,7.1c6.8,5,11.5,12.6,13.1,20.9"/>
							</g>
							<g>
								<path class="st55" d="M448.6,145.2c-1.9-6.7-5.6-12.9-10.7-17.6c-5.1-4.7-11.7-7.8-18.6-8.7c-5.2-0.7-6.5-0.4-9.8,0.6
									l-2.4,2.1c8.4-0.9,16.6,2.1,23.4,7.1c6.8,5,11.5,12.6,13.1,20.9"/>
							</g>
						</g>
						<path class="st55" d="M434.8,160.3c0.5,7.9,6.8,13.9,14.1,13.5c7.3-0.4,12.8-7.2,12.3-15.1c-0.5-7.9-6.8-13.9-14.1-13.5
							C439.9,145.6,434.3,152.4,434.8,160.3z"/>
						
							<ellipse transform="matrix(0.9982 -6.064401e-02 6.064401e-02 0.9982 -8.8612 27.5078)" class="st56" cx="448.7" cy="159.7" rx="12.5" ry="14"/>
						
							<ellipse transform="matrix(0.9982 -6.065792e-02 6.065792e-02 0.9982 -8.8732 27.5789)" class="st51" cx="449.8" cy="159.9" rx="12.1" ry="13.7"/>
						
							<ellipse transform="matrix(0.9982 -6.066918e-02 6.066918e-02 0.9982 -8.87 27.636)" class="st52" cx="450.7" cy="159.9" rx="7.1" ry="9"/>
					</g>
				</g>
			</g>
			<g class="st0">
				<g>
					<g>
						
							<linearGradient id="SVGID_43_" gradientUnits="userSpaceOnUse" x1="319.183" y1="296.4102" x2="349.0772" y2="266.516" gradientTransform="matrix(-1 0 0 1 596.258 0)">
							<stop  offset="0" style="stop-color:#BABEFF;stop-opacity:0.6"/>
							<stop  offset="1" style="stop-color:#F6F3FF;stop-opacity:0.4"/>
						</linearGradient>
						<path class="st62" d="M253.9,289.5c1-1.7,3.4-2.3,4-4.3c0.8-2.4-1.9-4.6-2.9-6.5c-1.2-2.2-1.6-4.7,0.1-6.8
							c3.9-4.8,13.1-1.3,17.5,1c4.2,2.1,9,7.4,5.4,12.2c-3,4,5,3.8,2.1,8.1c-1.5,2.2-4.6,2.6-6.4,4.5c-1.7,1.7-1.2,4.6-3.8,5.5
							c-6.6,2.3-9-3.9-13.2-7.5c-1.4-1.2-3.1-2.7-3.2-4.5C253.4,290.7,253.6,290.1,253.9,289.5z M258.8,266.6
							c3.8-2.3,0.9-8.3-3.2-7.6c-1.7,0.3-2.4,1.4-2.9,2.7C251.4,264.9,254.7,269,258.8,266.6z M253.6,285.4c1.8-1.1-0.4-4.6-2.3-4.3
							c-0.8,0.1-1.1,0.7-1.4,1.3C249.2,283.9,251.7,286.5,253.6,285.4z"/>
					</g>
				</g>
				<g>
					
						<linearGradient id="SVGID_44_" gradientUnits="userSpaceOnUse" x1="331.2377" y1="327.5087" x2="349.8381" y2="308.9083" gradientTransform="matrix(-1 0 0 1 596.258 0)">
						<stop  offset="0.3367" style="stop-color:#6D79FC"/>
						<stop  offset="0.5132" style="stop-color:#717BFA"/>
						<stop  offset="0.6711" style="stop-color:#7B81F6"/>
						<stop  offset="0.8218" style="stop-color:#8E8BEE"/>
						<stop  offset="0.9673" style="stop-color:#A798E3"/>
						<stop  offset="1" style="stop-color:#AE9CE0"/>
					</linearGradient>
					<path class="st63" d="M253.4,330.8h8.4v-4h-8.4c-2.7,0-4.9-2.2-4.9-4.9v-7.3c0-2.7,2.2-4.9,4.9-4.9h8.4v-4h-8.4
						c-4.9,0-8.9,4-8.9,8.9v7.3C244.5,326.8,248.5,330.8,253.4,330.8z"/>
				</g>
				
					<linearGradient id="SVGID_45_" gradientUnits="userSpaceOnUse" x1="328.4492" y1="337.5749" x2="328.4492" y2="300.0022" gradientTransform="matrix(-1 0 0 1 596.258 0)">
					<stop  offset="0" style="stop-color:#6D79FC"/>
					<stop  offset="1" style="stop-color:#AE9CE0"/>
				</linearGradient>
				<path class="st64" d="M262.1,337.6h11.5c4.4,0,8-3.6,8-8V300h-27.5v29.6C254.1,334,257.6,337.6,262.1,337.6z"/>
			</g>
			<g class="st0">
				<path class="st65" d="M369.8,337.6h92.3v-1.7c0-2.3-1.8-4.1-4.1-4.1h-88.2V337.6z"/>
				<path class="st66" d="M390.7,265.5l13.8,72.1H285.6l-13.9-73c-0.2-1.5,0.9-2.8,2.4-2.8h112.1
					C388.4,261.7,390.3,263.3,390.7,265.5z"/>
				
					<linearGradient id="SVGID_46_" gradientUnits="userSpaceOnUse" x1="228.6776" y1="357.2135" x2="294.3012" y2="243.5501" gradientTransform="matrix(-1 0 0 1 596.258 0)">
					<stop  offset="0" style="stop-color:#B6BCFC"/>
					<stop  offset="1" style="stop-color:#FFCAE0"/>
				</linearGradient>
				<path class="st67" d="M387.8,265.5l13.8,72.1H282.7l-13.9-73c-0.2-1.5,0.9-2.8,2.4-2.8h112.1
					C385.6,261.7,387.5,263.3,387.8,265.5z"/>
				<path class="st68" d="M324,300.6c0.7,4.7,5,8.5,9.7,8.5s8-3.8,7.3-8.5c-0.7-4.7-5-8.5-9.7-8.5C326.6,292,323.3,295.9,324,300.6z
					"/>
				<g>
					<g>
						<rect x="438.3" y="333.7" class="st69" width="15.7" height="2"/>
					</g>
					<g>
						<rect x="432.5" y="333.3" class="st69" width="0.8" height="2.8"/>
					</g>
					<g>
						<rect x="431" y="333.3" class="st69" width="0.8" height="2.8"/>
					</g>
					<g>
						<rect x="429.4" y="333.3" class="st69" width="0.8" height="2.8"/>
					</g>
					<g>
						<rect x="427.8" y="333.3" class="st69" width="0.8" height="2.8"/>
					</g>
					<g>
						<rect x="426.2" y="333.3" class="st69" width="0.8" height="2.8"/>
					</g>
					<g>
						<rect x="424.6" y="333.3" class="st69" width="0.8" height="2.8"/>
					</g>
					<g>
						<rect x="423" y="333.3" class="st69" width="0.8" height="2.8"/>
					</g>
					<g>
						<rect x="418.4" y="333.3" class="st69" width="0.8" height="2.8"/>
					</g>
					<g>
						<rect x="416.8" y="333.3" class="st69" width="0.8" height="2.8"/>
					</g>
					<g>
						<rect x="415.2" y="333.3" class="st69" width="0.8" height="2.8"/>
					</g>
					<g>
						<rect x="410.5" y="333.3" class="st69" width="0.8" height="2.8"/>
					</g>
					<g>
						<rect x="408.9" y="333.3" class="st69" width="0.8" height="2.8"/>
					</g>
				</g>
			</g>
			
				<linearGradient id="SVGID_47_" gradientUnits="userSpaceOnUse" x1="437.1292" y1="338.575" x2="-0.4269" y2="338.575" gradientTransform="matrix(-1 0 0 1 596.258 0)">
				<stop  offset="0" style="stop-color:#EF225F"/>
				<stop  offset="1" style="stop-color:#111890"/>
			</linearGradient>
			<path class="st70" d="M596.7,339.6H228.9v-2h367.8V339.6z M218.4,337.6h-59.2v2h59.2V337.6z"/>
		</g>
	</g>
</g>
<g id="DESIGNED_BY_FREEPIK">
</g>
</svg>
