<svg xmlns="http://www.w3.org/2000/svg" width="1391.745" height="825.62" viewBox="0 0 1391.745 825.62"><defs><clipPath id="a"><path d="M0 681h985.305l4.708-681h-985.305z"/></clipPath><clipPath id="b"><path d="M0 681h1362.236l6.509-681h-1362.236z"/></clipPath><clipPath id="c"><path d="M0 825.62h1194.549l5.711-825.62h-1194.552z"/></clipPath><clipPath id="d"><path d="M261.559 226.95a85.494 85.494 0 0 1 6.676 10.921c18.5 36.164 9.211 82.28-11.4 116.362 1.525-19.988-.144-41.315-7.109-60-4.224-11.333-6.923-22.811-10.55-34.33-6.429-20.4-2.473-44.035 10.282-61.509-2.447 10.567 5.857 19.922 12.101 28.556z" transform="translate(-236.147 -198.39)"/></clipPath><clipPath id="e"><path d="M248.579 243.675a112.658 112.658 0 0 0-10.279 13.085c-29.4 43.767-24.335 103.813-2.844 149.909 1.051-25.675 6.429-52.689 18.257-75.645 7.171-13.93 12.384-28.21 18.813-42.448a88.929 88.929 0 0 0-4.026-79.766c1.592 13.765-10.566 24.645-19.921 34.865z" transform="translate(-217.779 -208.81)"/></clipPath><clipPath id="f"><path d="M264.552 269.827a90.673 90.673 0 0 0-12.1 6.429c-36.72 23.161-52.916 70.081-52.092 111.952 9.355-19 22.4-37.544 38.966-50.876 10.035-8.1 18.731-17.124 28.313-25.7a73.153 73.153 0 0 0 23.561-61.422c-3.425 10.88-16.18 15.022-26.648 19.617z" transform="translate(-200.335 -250.21)"/></clipPath><clipPath id="g"><path d="M272.083 259.285a110.693 110.693 0 0 1 12.717 10.715c37.668 36.885 44.9 96.7 33.2 146.2-6.243-24.933-16.979-50.279-33.217-70.349-9.85-12.178-17.845-25.119-27.035-37.75a88.871 88.871 0 0 1-12.268-78.921c1.257 13.806 15.352 22.007 26.603 30.105z" transform="translate(-241.172 -229.18)"/></clipPath><clipPath id="h"><path d="M136.779 248.365a71.756 71.756 0 0 0-5.6 9.17c-15.537 30.353-7.727 69.051 9.561 97.652-1.278-16.773.124-34.68 5.976-50.361 3.544-9.52 5.811-19.143 8.84-28.807a59.075 59.075 0 0 0-8.634-51.618c2.056 8.86-4.909 16.71-10.143 23.964z" transform="translate(-122.813 -224.4)"/></clipPath><clipPath id="i"><path d="M156.446 262.4a92.266 92.266 0 0 1 8.613 10.983c24.665 36.74 20.421 87.122 2.39 125.8-.886-21.554-5.4-44.22-15.331-63.466-6.017-11.684-10.385-23.676-15.784-35.628a74.535 74.535 0 0 1 3.379-66.949c-1.313 11.539 8.862 20.668 16.733 29.26z" transform="translate(-129.976 -233.14)"/></clipPath><clipPath id="j"><path d="M155.484 284.344a76.1 76.1 0 0 1 10.159 5.4c30.827 19.452 44.406 58.81 43.726 93.963-7.851-15.949-18.793-31.507-32.7-42.7-8.428-6.8-15.722-14.362-23.759-21.574a61.409 61.409 0 0 1-19.761-51.556c2.842 9.131 13.557 12.614 22.335 16.467z" transform="translate(-132.808 -267.88)"/></clipPath><clipPath id="k"><path d="M145.174 275.493a92.444 92.444 0 0 0-10.674 9c-31.61 30.971-37.668 81.146-27.859 122.688 5.234-20.915 14.259-42.2 27.88-59.036 8.263-10.22 14.981-21.08 22.687-31.671a74.62 74.62 0 0 0 10.282-66.244c-1.03 11.581-12.879 18.463-22.316 25.263z" transform="translate(-102.345 -250.23)"/></clipPath><clipPath id="l"><path d="M130.868 181.415h-130.868l6.1-153.412c.618-15.619 14.651-28 31.733-28h55.183c17.082 0 31.115 12.384 31.733 28z"/></clipPath><clipPath id="m"><path d="M182.85 261.31a20.675 20.675 0 0 0 20.689 20.69 20.688 20.688 0 0 0 20.688-20.688" transform="translate(-182.85 -261.31)"/></clipPath><clipPath id="n"><path d="M0 825.62h1194.549l5.711-825.62h-1194.552z" stroke="#0e429c" opacity=".4"/></clipPath></defs><path d="M696.504 91.336c-27.263 9.416-52.536 30.509-58.009 58.842-4.674 24.288 4.623 53.08-11.524 71.81-6.646 7.716-16.4 11.864-25.614 16.232-25.41 12.068-52.451 26.549-71.181 48.525-10.725 12.577-17.676 27.5-18.509 44.123-.544 10.98.731 21.959.986 32.939.595 25.767 3.518 50.82-14.957 71.98-20.8 23.829-49.358 36.7-67.374 63.992-35.965 54.507-33.025 133.967 17.812 178.889" stroke="#bde7ff" stroke-miterlimit="10" clip-path="url(#a)" fill="none"/><path d="M1438.104 633.835c-2.294 37.664-20.192 71.827-21.042 109.73q-.739 32.378-2.753 64.723c-.918 14.77-2.634 30.866-13.07 41.369-7.394 7.445-17.982 10.708-28.333 12.492-35.642 6.136-453.611 17.706-488.811 9.378-4.589-1.088-9.161-2.159-13.75-3.246q-137.493-32.4-275.463-62.8c-42.865-9.435-85.051-13.991-121.916-39.043-16.232-11.031-21.569-17.591-28.537-36.628-6.714-18.356-11.49-37.358-15.994-56.36-7.087-29.931-13.559-60.372-12.679-91.102.884-30.747 9.773-62.19 30.169-85.221 12.084-13.665 27.772-23.931 38.922-38.378 31.546-40.86 18.985-102.965 47.947-145.694 23.625-34.843 70.961-50.6 87.889-89.147 6.459-14.7 7.614-31.121 12.017-46.57 12.628-44.361 51.5-77.436 94.3-94.62 48.623-19.511 104.032-24.78 155.701-21.16 63.006 4.419 506.81.123 564.309 26.246 19.071 8.651 38.226 18.917 51.245 35.353 12.764 16.113 18.492 36.916 19.614 57.431 1.1 20.532-2.074 41.03-5.456 61.306q-9.739 58.383-21.875 116.342c-5.677 27.109-11.779 54.27-22.18 79.952-5.677 14.005-9.552 28.622-12.714 43.392-2.583 12.1-8.7 28.571-7.258 40.231.952 7.648-3.756 18.169-5.473 25.614-2.482 10.81-4.878 21.688-5.541 32.786-1.07 17.71 1.82 35.744.732 53.624z" fill="#f4f6fd" clip-path="url(#b)"/><g opacity=".5" clip-path="url(#c)"><path d="M261.559 226.95a85.494 85.494 0 0 1 6.676 10.921c18.5 36.164 9.211 82.28-11.4 116.362 1.525-19.988-.144-41.315-7.109-60-4.224-11.333-6.923-22.811-10.55-34.33-6.429-20.4-2.473-44.035 10.282-61.509-2.447 10.567 5.857 19.922 12.101 28.556z" transform="translate(585.141 160.834)" fill="#54c5ed"/><path d="M841.075 516.716c7.377-27.818 6.429-56.831 2.452-84.9-3.688-26-14.96-54.853-7.707-81.311" stroke="#09a8e9" stroke-miterlimit="10" clip-path="url(#d)" fill="none"/><path d="M248.579 243.675a112.658 112.658 0 0 0-10.279 13.085c-29.4 43.767-24.335 103.813-2.844 149.909 1.051-25.675 6.429-52.689 18.257-75.645 7.171-13.93 12.384-28.21 18.813-42.448a88.929 88.929 0 0 0-4.026-79.766c1.592 13.765-10.566 24.645-19.921 34.865z" transform="translate(621.096 171.886)" fill="#09a8e9"/><path d="M857.456 580.763c-5.358-36.431.247-73.337 9.644-108.614 8.7-32.7 27.632-68.082 22.254-102.762" stroke="#54c5ed" stroke-miterlimit="10" clip-path="url(#e)" fill="none"/><path d="M264.552 269.827a90.673 90.673 0 0 0-12.1 6.429c-36.72 23.161-52.916 70.081-52.092 111.952 9.355-19 22.4-37.544 38.966-50.876 10.035-8.1 18.731-17.124 28.313-25.7a73.153 73.153 0 0 0 23.561-61.422c-3.425 10.88-16.18 15.022-26.648 19.617z" transform="translate(645.531 215.794)" fill="#54c5ed"/><path d="M845.834 605.961c8.119-29.219 24.624-55.142 43.458-78.591 17.453-21.739 43.5-42.057 51-69.978" stroke="#09a8e9" stroke-miterlimit="10" clip-path="url(#f)" fill="none"/><path d="M272.083 259.285a110.693 110.693 0 0 1 12.717 10.715c37.668 36.885 44.9 96.7 33.2 146.2-6.243-24.933-16.979-50.279-33.217-70.349-9.85-12.178-17.845-25.119-27.035-37.75a88.871 88.871 0 0 1-12.268-78.921c1.257 13.806 15.352 22.007 26.603 30.105z" transform="translate(529.861 193.49)" fill="#54c5ed"/><path d="M847.421 612.039c-2.164-36.761-15.125-71.75-31.486-104.411-15.166-30.27-40.862-61.056-42.634-96.106" stroke="#09a8e9" stroke-miterlimit="10" clip-path="url(#g)" fill="none"/><path d="M807.96 601.88h80.178c0 45.292-14.074 90.563-14.074 90.563h-52.05c.02 0-14.054-45.086-14.054-90.563zM801.881 589.681h92.356v12.199h-92.356z" fill="#ef4f59"/></g><g clip-path="url(#c)"><path d="M414.9 287.038h-123.1a24.8 24.8 0 0 1-24.727-24.727v-54.874a24.8 24.8 0 0 1 24.727-24.727h123.1a24.8 24.8 0 0 1 24.727 24.727v54.874a24.8 24.8 0 0 1-24.727 24.727z" transform="translate(359.99 144.204)" fill="#ef4f59"/><path d="M780.08 431.242h50.155l-30.62-34.536z" fill="#ef4f59"/><g fill="#fff"><path d="M282.082 204h122.358a5.514 5.514 0 0 0 5.5-5.5 5.514 5.514 0 0 0-5.5-5.5h-122.358a5.514 5.514 0 0 0-5.5 5.5 5.514 5.514 0 0 0 5.5 5.5z" transform="translate(370.076 155.118)"/><path d="M282.082 216.364h122.358a5.514 5.514 0 0 0 5.5-5.5 5.514 5.514 0 0 0-5.5-5.5h-122.358a5.514 5.514 0 0 0-5.5 5.5 5.514 5.514 0 0 0 5.5 5.5z" transform="translate(370.076 168.227)"/><path d="M282.082 228.714h55.677a5.514 5.514 0 0 0 5.5-5.5 5.514 5.514 0 0 0-5.5-5.5h-55.677a5.514 5.514 0 0 0-5.5 5.5 5.527 5.527 0 0 0 5.5 5.5z" transform="translate(436.757 181.325)"/></g><path d="M191.809 212.152h-43.252a24.8 24.8 0 0 1-24.727-24.727v-11.148a24.8 24.8 0 0 1 24.727-24.727h43.252a24.8 24.8 0 0 1 24.727 24.727v11.148a24.8 24.8 0 0 1-24.727 24.727z" transform="translate(878.239 111.155)" fill="#ef4f59"/><path d="M138.4 191.334h41.4a4.133 4.133 0 0 0 4.121-4.121v-24.872a4.133 4.133 0 0 0-4.121-4.121h-41.4a4.133 4.133 0 0 0-4.121 4.121v24.871a4.107 4.107 0 0 0 4.121 4.122z" transform="translate(889.322 118.229)" fill="#fff"/><path d="M182.723 158.73l-21.739 21.08a3.325 3.325 0 0 1-4.574 0l-21.74-21.08" transform="translate(889.715 118.77)" stroke="#ef4f59" stroke-miterlimit="10" fill="none"/><path d="M1027.456 337.731v-19.926h20.956z" fill="#ef4f59"/><path d="M150.477 151.05h-44.756a4.133 4.133 0 0 1-4.121-4.121v-27.118a4.133 4.133 0 0 1 4.121-4.121h44.756a4.133 4.133 0 0 1 4.121 4.121v27.118a4.12 4.12 0 0 1-4.121 4.121z" transform="translate(985.984 73.122)" fill="#54c5ed"/><path d="M102.01 116.24l23.2 22.5a3.549 3.549 0 0 0 4.884 0l23.2-22.5" transform="translate(986.439 73.705)" stroke="#fff" stroke-miterlimit="10" fill="none"/><path d="M260.143 216.984h-31.672a4.133 4.133 0 0 1-4.121-4.121v-18.4a4.133 4.133 0 0 1 4.121-4.121h31.671a4.133 4.133 0 0 1 4.121 4.121v18.4a4.107 4.107 0 0 1-4.12 4.121z" transform="translate(623.38 152.296)" fill="#54c5ed"/><path d="M224.67 190.76l17.474 16.94a2.679 2.679 0 0 0 3.668 0l17.474-16.938" transform="translate(623.699 152.741)" stroke="#fff" stroke-miterlimit="10" fill="none"/><path d="M294.893 139.9h-31.672a4.133 4.133 0 0 1-4.121-4.121v-18.4a4.133 4.133 0 0 1 4.121-4.121h31.671a4.133 4.133 0 0 1 4.121 4.121v18.4a4.12 4.12 0 0 1-4.12 4.121z" transform="translate(517.024 70.545)" fill="#54c5ed"/><path d="M259.42 113.68l17.474 16.938a2.678 2.678 0 0 0 3.668 0l17.474-16.938" transform="translate(517.343 70.99)" stroke="#fff" stroke-miterlimit="10" fill="none"/><g fill="#54c5ed"><path d="M155.139 217.261l-1.154-1.278a5.239 5.239 0 0 1-1.36-3.833 5.146 5.146 0 0 1 1.751-3.668l1.958-1.772a5.331 5.331 0 0 1 3.565-1.381 5.275 5.275 0 0 1 3.936 1.751l1.154 1.278c.144.165.288.35.433.536l.062.062c1.092.927 2.019 3.194 1.484 5.976a29.8 29.8 0 0 1-26.5 23.965 7.532 7.532 0 0 1-4.575-.948 5.383 5.383 0 0 1-1.3-1.051l-1.154-1.278a5.33 5.33 0 0 1 .371-7.5l1.958-1.772a5.33 5.33 0 0 1 3.565-1.381 5.275 5.275 0 0 1 3.936 1.752l1.155 1.281a5.05 5.05 0 0 1 1.092 1.875l.1.309.309-.124a22.407 22.407 0 0 0 11.831-10.86l.165-.33-.35-.1a4.922 4.922 0 0 1-2.432-1.509z" transform="translate(910.664 168.194)"/><path d="M160.492 204.316a1.24 1.24 0 0 1-1.236 1.236 15.768 15.768 0 0 0-15.743 15.748 1.236 1.236 0 1 1-2.473 0 18.235 18.235 0 0 1 18.216-18.216 1.24 1.24 0 0 1 1.236 1.232z" transform="translate(898.82 165.808)"/><path d="M154.55 207.256a1.24 1.24 0 0 1-1.236 1.236 9.893 9.893 0 0 0-9.891 9.891 1.236 1.236 0 0 1-2.473 0 12.373 12.373 0 0 1 12.364-12.364 1.227 1.227 0 0 1 1.236 1.237z" transform="translate(904.948 168.926)"/></g><g fill="#54c5ed"><path d="M316.8 266.822l-1.422-1.566a6.55 6.55 0 0 1 .453-9.252l2.411-2.184a6.546 6.546 0 0 1 9.252.474l1.422 1.587a8.04 8.04 0 0 1 .515.659l.062.062c1.339 1.154 2.493 3.956 1.834 7.377a36.764 36.764 0 0 1-32.681 29.549 9.263 9.263 0 0 1-5.625-1.175 6.954 6.954 0 0 1-1.607-1.3l-1.414-1.585a6.55 6.55 0 0 1 .474-9.252l2.411-2.184a6.546 6.546 0 0 1 9.252.474l1.422 1.566a6.4 6.4 0 0 1 1.36 2.308l.124.391.371-.144a27.6 27.6 0 0 0 14.586-13.394l.206-.412-.433-.124a6.473 6.473 0 0 1-2.973-1.875z" transform="translate(424.331 217.83)"/><path d="M323.315 250.875a1.521 1.521 0 0 1-1.525 1.525 19.435 19.435 0 0 0-19.411 19.431 1.525 1.525 0 1 1-3.049 0 22.509 22.509 0 0 1 22.481-22.481 1.517 1.517 0 0 1 1.504 1.525z" transform="translate(409.825 214.881)"/><path d="M315.983 254.495a1.521 1.521 0 0 1-1.525 1.525 12.211 12.211 0 0 0-12.2 12.2 1.525 1.525 0 0 1-3.05 0 15.267 15.267 0 0 1 15.248-15.248 1.535 1.535 0 0 1 1.527 1.523z" transform="translate(417.404 218.721)"/></g><path d="M233.777 202.362h43.252a24.8 24.8 0 0 0 24.727-24.727v-11.148a24.8 24.8 0 0 0-24.727-24.727h-43.252a24.8 24.8 0 0 0-24.727 24.727v11.148a24.8 24.8 0 0 0 24.727 24.727z" transform="translate(617.415 100.772)" fill="#ef4f59"/><path d="M893.784 317.558v-19.905h-20.956z" fill="#ef4f59"/><g fill="#fff"><path d="M247.1 161.748l-1.236-1.381a5.752 5.752 0 0 1 .412-8.1l2.1-1.9a5.722 5.722 0 0 1 3.833-1.484 5.639 5.639 0 0 1 4.245 1.9l1.257 1.381a6.214 6.214 0 0 1 .453.577l.062.062c1.175 1.01 2.184 3.462 1.607 6.45a32.125 32.125 0 0 1-28.581 25.84 8.014 8.014 0 0 1-4.925-1.03 5.74 5.74 0 0 1-1.4-1.133l-1.257-1.381a5.735 5.735 0 0 1 .412-8.1l2.1-1.9a5.736 5.736 0 0 1 3.853-1.484 5.639 5.639 0 0 1 4.245 1.9l1.257 1.381a5.536 5.536 0 0 1 1.174 2.019l.1.33.33-.124a24.1 24.1 0 0 0 12.755-11.7l.185-.35-.371-.124a5.638 5.638 0 0 1-2.61-1.649z" transform="translate(632.099 108.334)"/><path d="M252.848 147.8a1.337 1.337 0 0 1-1.339 1.339 17.008 17.008 0 0 0-16.979 16.979 1.339 1.339 0 0 1-2.679 0 19.681 19.681 0 0 1 19.658-19.658 1.337 1.337 0 0 1 1.339 1.34z" transform="translate(619.342 105.757)"/><path d="M246.422 150.969a1.337 1.337 0 0 1-1.339 1.339 10.667 10.667 0 0 0-10.653 10.653 1.339 1.339 0 1 1-2.679 0 13.341 13.341 0 0 1 13.332-13.332 1.337 1.337 0 0 1 1.339 1.34z" transform="translate(625.974 109.119)"/></g></g><g opacity=".5" clip-path="url(#c)"><path d="M136.779 248.365a71.756 71.756 0 0 0-5.6 9.17c-15.537 30.353-7.727 69.051 9.561 97.652-1.278-16.773.124-34.68 5.976-50.361 3.544-9.52 5.811-19.143 8.84-28.807a59.075 59.075 0 0 0-8.634-51.618c2.056 8.86-4.909 16.71-10.143 23.964z" transform="translate(938.77 188.42)" fill="#54c5ed"/><path d="M1080.268 544.966c-6.2-23.346-5.4-47.7-2.061-71.255 3.111-21.822 12.549-46.034 6.47-68.247" stroke="#09a8e9" stroke-miterlimit="10" clip-path="url(#h)" fill="none"/><path d="M156.446 262.4a92.266 92.266 0 0 1 8.613 10.983c24.665 36.74 20.421 87.122 2.39 125.8-.886-21.554-5.4-44.22-15.331-63.466-6.017-11.684-10.385-23.676-15.784-35.628a74.535 74.535 0 0 1 3.379-66.949c-1.313 11.539 8.862 20.668 16.733 29.26z" transform="translate(899.837 197.69)" fill="#09a8e9"/><path d="M1066.524 598.707c4.492-30.579-.206-61.529-8.1-91.161-7.315-27.447-23.182-57.12-18.669-86.236" stroke="#54c5ed" stroke-miterlimit="10" clip-path="url(#i)" fill="none"/><path d="M155.484 284.344a76.1 76.1 0 0 1 10.159 5.4c30.827 19.452 44.406 58.81 43.726 93.963-7.851-15.949-18.793-31.507-32.7-42.7-8.428-6.8-15.722-14.362-23.759-21.574a61.409 61.409 0 0 1-19.761-51.556c2.842 9.131 13.557 12.614 22.335 16.467z" transform="translate(866.881 234.535)" fill="#54c5ed"/><path d="M1076.27 619.869c-6.8-24.521-20.668-46.281-36.473-65.96-14.651-18.236-36.493-35.3-42.8-58.727" stroke="#09a8e9" stroke-miterlimit="10" clip-path="url(#j)" fill="none"/><path d="M145.174 275.493a92.444 92.444 0 0 0-10.674 9c-31.61 30.971-37.668 81.146-27.859 122.688 5.234-20.915 14.259-42.2 27.88-59.036 8.263-10.22 14.981-21.08 22.687-31.671a74.62 74.62 0 0 0 10.282-66.244c-1.03 11.581-12.879 18.463-22.316 25.263z" transform="translate(967.94 215.816)" fill="#54c5ed"/><path d="M1074.952 624.98c1.813-30.847 12.693-60.211 26.437-87.617 12.735-25.387 34.288-51.226 35.793-80.652" stroke="#09a8e9" stroke-miterlimit="10" clip-path="url(#k)" fill="none"/><path d="M1108.066 616.449h-67.279c0 38 11.807 75.995 11.807 75.995h43.685c-.021 0 11.787-37.833 11.787-75.995zM1035.66 606.227h77.52v10.221h-77.52z" fill="#ef4f59"/></g><g clip-path="url(#c)"><g transform="translate(763.739 371.732)"><path d="M271.208 431.579c-16.835.639-33.67.185-50.485-.618-9.582-.453-19.184-.783-28.787-1.071-8.737-.247-17.185 2.8-25.943.783-6.862-1.587-13.353-6.2-15.537-12.9-2.411-7.4.783-15.516-.33-23.2-1.752-12.24-13.971-21.636-13.682-34 .1-4.286 1.751-8.366 3.359-12.322l6.12-15c1.5-3.688 3.05-7.562 2.7-11.56-.289-3.318-1.855-6.367-3.05-9.479-5.358-13.93-3.112-29.157.783-43.149 3.668-13.229 7.047-26.458 15.516-37.565a68.61 68.61 0 0 1 104.019-6c13.126 13.641 25.737 31.527 24.439 51.288-.556 8.531-3.3 17.474.041 25.345 3.544 8.366 13.435 13.971 13.765 23.058.206 5.77-3.668 10.88-4.7 16.547-1.751 9.664 4.822 18.587 10.221 26.788 8.16 12.364 14.424 28.21 8.345 41.727-3.73 8.242-11.581 14.074-20.091 17.185-8.488 3.113-17.657 3.793-26.703 4.143z" transform="translate(-15.384 -204.46)" fill="#0a408a"/><path d="M.309 310.512l59.551-.845c22.131-.309 49.681-.7 67.4-21.389 10.962-12.776 16.176-28.148 20.173-42.84 4.307-15.825 8.242-31.96 11.684-47.971l-20.153-4.327c-3.359 15.64-7.212 31.424-11.416 46.879-3.379 12.364-7.624 25.139-15.949 34.824-11.684 13.621-32.207 13.909-52.051 14.2l-59.551.845zM191.309 135.674h30.806v30.806h-30.806z" fill="#e99d86"/><path d="M173.234 164.31c-44.344-.721-48.2 101.876-81.847 118.381 6.47 10.942 10.653 17.515 13.6 23.7 49.928-1.732 68.247-142.081 68.247-142.081z" fill="#09a8e9"/><path d="M272.143 345.027h-130.868l6.1-153.412c.618-15.619 14.651-28 31.733-28h55.183c17.082 0 31.115 12.384 31.733 28z" fill="#54c5ed"/><g transform="translate(0 135.674) translate(141.275 27.938)" clip-path="url(#l)"><ellipse cx="29.982" cy="33.423" rx="29.982" ry="33.423" transform="translate(35.463 -25.407)" fill="#e99d86"/></g><path d="M145.451 412.581l58.768-.845c12.137-.165 25.9-.371 39.007-4.307a76.165 76.165 0 0 0 41.374-30.619 73.729 73.729 0 0 0 12.631-38.574 68.24 68.24 0 0 0-2.452-20.544l-.515-1.834c-1.339-4.842-2.72-9.85-4.574-14.857l-19.328 7.13c1.545 4.2 2.761 8.593 4.039 13.229l.515 1.875a47.41 47.41 0 0 1 1.71 14.362 53.177 53.177 0 0 1-9.17 27.8 56.446 56.446 0 0 1-30.188 22.337c-10.365 3.111-22.069 3.276-33.382 3.441l-58.748.845z" transform="translate(-10.152 -102.07)" fill="#e99d86"/><path d="M240.41 164.312c22.852.289 48.795 25.984 51.371 48.651 6.676 87.575-55.636 94.623-71.091 97.363-.021-2.947-2.225-21.472-3.256-29.879 15.29-4.987 38.492-20.194 40.2-44.3 2.372-33.673-17.224-71.835-17.224-71.835z" fill="#09a8e9"/><path d="M258.07 101.178c-2.761 6.038-8.325 9.417-12.4 7.542s-5.131-8.284-2.37-14.321 8.325-9.417 12.4-7.542c4.06 1.873 5.131 8.281 2.37 14.321zM151.241 94.412c-2.771-6.041-8.322-9.423-12.398-7.553s-5.133 8.283-2.362 14.325 8.322 9.423 12.398 7.553 5.133-8.283 2.362-14.325z" fill="#dc7b59"/><path d="M229.847 267.03c-.268 3.482-1.319 7.233-4.7 8.634-8.634 3.565-12.281-6.141-13.394-12.879a42.431 42.431 0 0 1-.453-11.642c.6-5.193 5.914-9.788 11-6.532 6.244 4 7.562 13.353 7.6 20.111.009.721-.012 1.504-.053 2.308z" transform="translate(-78.661 -163.031)" fill="#ef4f59"/><ellipse cx="53.102" cy="64.95" rx="53.102" ry="64.95" transform="translate(143.871 18.298)" fill="#f7c6b5"/><ellipse cx="6.017" cy="8.902" rx="6.017" ry="8.902" transform="translate(204.082 77.087)" fill="#0a408a"/><path d="M177.185 236.138c6.8-2.308 14.342-2.164 20.4 2.019a2.124 2.124 0 0 1 .742 2.823 2.08 2.08 0 0 1-2.823.742 16.27 16.27 0 0 0-8.284-2.967 23.724 23.724 0 0 0-8.964 1.36 2.093 2.093 0 0 1-2.535-1.442 2.131 2.131 0 0 1 1.463-2.535z" transform="translate(201.296 62.2) translate(-175.656 -234.646)" fill="#0a408a"/><path d="M195.118 105.44c0 1.5-2.864 2.7-6.408 2.7s-6.409-1.216-6.409-2.7c0-1.5 2.864-2.7 6.409-2.7s6.408 1.196 6.408 2.7z" fill="#e99d86"/><path d="M179.961 241.63h7.459a2.061 2.061 0 0 1 0 4.121h-7.459a2.061 2.061 0 0 1 0-4.121z" transform="translate(208.037 76.592) translate(-177.899 -241.63)" fill="#0a408a"/><path d="M161.448 85.989c0 4.925 2.7 8.9 6.017 8.9s6.017-3.977 6.017-8.9-2.7-8.9-6.017-8.9-6.017 3.975-6.017 8.9z" fill="#0a408a"/><path d="M219.3 240.105a23.326 23.326 0 0 0-8.964-1.36 16.271 16.271 0 0 0-8.284 2.967 2.064 2.064 0 0 1-2.081-3.565c6.058-4.183 13.6-4.327 20.4-2.019a2.111 2.111 0 0 1 1.442 2.535 2.03 2.03 0 0 1-2.514 1.442z" transform="translate(153.297 62.18) translate(-198.954 -234.635)" fill="#0a408a"/><path d="M211.731 245.751h-7.459a2.061 2.061 0 1 1 0-4.121h7.459a2.061 2.061 0 1 1 0 4.121z" transform="translate(157.944 76.592) translate(-202.209 -241.63)" fill="#0a408a"/><path d="M182.85 261.31a20.675 20.675 0 0 0 20.689 20.69 20.688 20.688 0 0 0 20.688-20.688" transform="translate(168.042 117.145) translate(-182.85 -261.31)" fill="#333"/><g clip-path="url(#m)"><path d="M171.38 133.815c0 4.1 7.768 7.418 17.35 7.418s17.35-3.318 17.35-7.418-7.77-7.418-17.35-7.418-17.35 3.318-17.35 7.418z" fill="#c94958"/><path fill="#fff" d="M168.021 116.053h41.377v6.882h-41.377z"/></g><path d="M170.535 19.308c13.353-17.474 41.686-18.3 63.363-1.793s28.045 44.571 15.1 61.55c-12.936 17-91.98-42.017-78.463-59.757z" fill="#0a408a"/><path d="M157.634 267.03c.268 3.482 1.319 7.233 4.7 8.634 8.634 3.565 12.281-6.141 13.394-12.879a42.43 42.43 0 0 0 .453-11.642c-.6-5.193-5.914-9.788-11-6.532-6.244 4-7.562 13.353-7.6 20.111-.008.721.012 1.504.053 2.308z" transform="translate(85.104 -163.031)" fill="#ef4f59"/><path d="M181.895 267.53c-4.368 1.175-8.428 5.378-5.213 9.541 3.132 4.059 11.993 1.978 14.094-2.431 1.442-3.009-2.019-6.388-4.739-7.192a7.672 7.672 0 0 0-4.142.082z" transform="translate(33.396 -137.918)" fill="#ef4f59"/><path d="M250.12 104.926c-3.771 15.764-18.339 23.676-31.8 30.456M196.252 5.564c22.069.762 33.485 8.552 43.561 22.048 6.182 8.284 9.767 18.3 11.581 28.477s1.978 20.585 1.875 30.909M197.673 5.564c-22.069.762-33.485 8.552-43.561 22.048-6.182 8.284-9.767 18.3-11.581 28.477s-1.978 20.585-1.875 30.909" stroke="#ef4f59" stroke-miterlimit="10" stroke-width="2" fill="none"/></g><path d="M210.31 363.674a23.923 23.923 0 1 1 47.847 0" transform="translate(658.417 310.76)" fill="#e99d86"/><path fill="#005caf" d="M686.598 674.432h229.942v16.918h-229.942zM793.763 685.169h-180.117c-4.945 0-9.664-4.43-10.468-9.87l-16.856-112.406c-.8-5.419 2.617-9.87 7.645-9.87h182.693c5.007 0 9.685 4.43 10.385 9.87l14.444 112.406c.7 5.44-2.781 9.87-7.726 9.87z"/><path d="M788.219 691.351h-180.117c-4.945 0-9.664-4.43-10.468-9.87l-16.855-112.406c-.8-5.419 2.617-9.87 7.645-9.87h182.692c5.007 0 9.685 4.43 10.386 9.87l14.445 112.406c.7 5.44-2.783 9.87-7.728 9.87z" fill="#006ec7"/><path d="M315.36 334.115a11.745 11.745 0 1 0 11.745-11.745 11.74 11.74 0 0 0-11.745 11.745z" transform="translate(361.257 292.327)" fill="#09a8e9"/><path d="M112.279 389h614.985a12.883 12.883 0 0 0 12.879-12.879v-3.441a12.883 12.883 0 0 0-12.879-12.88h-614.985a12.883 12.883 0 0 0-12.879 12.879v3.441a12.87 12.87 0 0 0 12.879 12.88z" transform="translate(404.972 332.025)" fill="#4089ce"/></g><g transform="translate(-49.64 77.321) translate(49.64 -77.321)" clip-path="url(#n)" stroke="#0e429c" stroke-miterlimit="10" stroke-width="2" fill="none"><ellipse cx="8.593" cy="8.593" rx="8.593" ry="8.593" transform="translate(956.55 206.41)" opacity=".4"/><path d="M284.61 160.783a8.593 8.593 0 1 0 8.593-8.593 8.6 8.6 0 0 0-8.593 8.593z" transform="translate(461.676 111.834)" opacity=".4"/><ellipse cx="8.593" cy="8.593" rx="8.593" ry="8.593" transform="translate(1123.458 371.629)" opacity=".4"/><path d="M939.694 320.526l19.761 12.961-21.1 10.629zM1152.533 273.998v23.635l-20.482-11.807zM891.476 166.188l-21.08 10.653 1.319-23.594z" opacity=".4"/></g></svg>