<svg xmlns="http://www.w3.org/2000/svg" width="89" height="89" viewBox="0 0 89 89"><g transform="translate(-1.435 -1.436)"><path d="M24.861,40.781A21.145,21.145,0,0,0,35.887,22.207V12.86l-1.226-.181A22.394,22.394,0,0,1,23.952,8.024a3.978,3.978,0,0,0-4.843,0A22.38,22.38,0,0,1,8.4,12.68l-1.226.181v9.346A21.144,21.144,0,0,0,18.2,40.779a6.953,6.953,0,0,0,6.659,0ZM20.1,38.461a3.926,3.926,0,0,1-.52-.2,18.275,18.275,0,0,1-9.529-16.053v-6.9A25.282,25.282,0,0,0,20.1,10.875V15.79h2.871V10.875a25.267,25.267,0,0,0,10.048,4.434v6.9a18.276,18.276,0,0,1-9.53,16.053,3.908,3.908,0,0,1-.518.2V24.4H20.1Z"/><path d="M20.1,18.661h2.871v2.871H20.1Z"/><path d="M41.629,50.242H44.5v2.871H41.629Z"/><path d="M35.887,50.242h2.871v2.871H35.887Z"/><path d="M47.371,50.242h2.871v2.871H47.371Z"/><path d="M53.113,38.758h2.871v2.871H53.113Z"/><path d="M41.629,38.758H44.5v2.871H41.629Z"/><path d="M47.371,38.758h2.871v2.871H47.371Z"/><path d="M82.087,47.371a4.306,4.306,0,1,0,0-2.871H76.007a30.029,30.029,0,0,0-.827-5.742h5.206a4.312,4.312,0,0,0,4.306-4.306V29.881a4.306,4.306,0,1,0-2.871,0v4.571a1.438,1.438,0,0,1-1.435,1.435H74.322A30.155,30.155,0,0,0,47.371,15.864V9.784a4.306,4.306,0,1,0-2.871,0v6.078q-1.443.069-2.871.273V7.177H37.9a16.649,16.649,0,0,1-10.36-3.633,9.616,9.616,0,0,0-12.018,0A16.656,16.656,0,0,1,5.163,7.177H1.435v15.03A26.874,26.874,0,0,0,13.307,44.5H9.784a4.306,4.306,0,1,0,0,2.871h6.079a30.029,30.029,0,0,0,.827,5.742H11.484a4.312,4.312,0,0,0-4.306,4.306V61.99a4.306,4.306,0,1,0,2.871,0V57.419a1.438,1.438,0,0,1,1.435-1.435h6.065A30.243,30.243,0,0,0,35.887,74.322v8.936a1.438,1.438,0,0,1-1.435,1.435H29.881a4.306,4.306,0,1,0,0,2.871h4.571a4.312,4.312,0,0,0,4.306-4.306V75.181a30.029,30.029,0,0,0,5.742.827v6.079a4.306,4.306,0,1,0,2.871,0V76.007a30.029,30.029,0,0,0,5.742-.827v8.077a4.312,4.312,0,0,0,4.306,4.306H61.99a4.306,4.306,0,1,0,0-2.871H57.419a1.438,1.438,0,0,1-1.435-1.435V74.322A30.243,30.243,0,0,0,74.322,55.984h6.065a1.438,1.438,0,0,1,1.435,1.435V61.99a4.306,4.306,0,1,0,2.871,0V57.419a4.312,4.312,0,0,0-4.306-4.306H75.181a30.029,30.029,0,0,0,.827-5.742ZM86.129,44.5a1.435,1.435,0,1,1-1.435,1.435A1.438,1.438,0,0,1,86.129,44.5ZM83.258,24.4a1.435,1.435,0,1,1-1.435,1.435A1.438,1.438,0,0,1,83.258,24.4ZM5.742,47.371a1.435,1.435,0,1,1,1.435-1.435A1.438,1.438,0,0,1,5.742,47.371Zm2.871,20.1a1.435,1.435,0,1,1,1.435-1.435A1.438,1.438,0,0,1,8.613,67.468Zm17.226,20.1a1.435,1.435,0,1,1,1.435-1.435A1.438,1.438,0,0,1,25.839,87.565Zm40.194-2.871A1.435,1.435,0,1,1,64.6,86.129,1.438,1.438,0,0,1,66.032,84.694ZM64.911,26.384a35.772,35.772,0,0,1-6.02,2.139,26.384,26.384,0,0,0-4.944-8.656A27.269,27.269,0,0,1,64.911,26.384ZM45.935,4.306A1.435,1.435,0,1,1,44.5,5.742,1.438,1.438,0,0,1,45.935,4.306Zm-4.306,17.9V19.035a27.411,27.411,0,0,1,4.306-.373c4.038,0,7.706,4.164,10.1,10.513a52.905,52.905,0,0,1-10.1.97c-1.833,0-3.643-.118-5.426-.294a26.846,26.846,0,0,0,1.12-7.644Zm4.306,10.809a55.56,55.56,0,0,0,11-1.1A49.915,49.915,0,0,1,58.819,44.5H29.758a26.874,26.874,0,0,0,9.766-11.863,57.918,57.918,0,0,0,6.412.379ZM58.819,47.371a50.045,50.045,0,0,1-1.882,12.582,55.657,55.657,0,0,0-22,0,49.915,49.915,0,0,1-1.882-12.582ZM16.828,43.3A24.015,24.015,0,0,1,4.306,22.207V10.048h.857A19.534,19.534,0,0,0,17.318,5.785a6.927,6.927,0,0,1,8.432,0A19.523,19.523,0,0,0,37.9,10.048h.857V22.207A24.011,24.011,0,0,1,26.236,43.3a9.995,9.995,0,0,1-9.408,0Zm1.889,3.735a12.64,12.64,0,0,0,2.815.334h8.65a53,53,0,0,0,1.906,13.25,37.364,37.364,0,0,0-7.167,2.68,27.138,27.138,0,0,1-6.2-16.264Zm8.243,18.45a35.772,35.772,0,0,1,6.02-2.139A26.384,26.384,0,0,0,37.924,72,27.269,27.269,0,0,1,26.96,65.487ZM45.935,87.565a1.435,1.435,0,1,1,1.435-1.435,1.438,1.438,0,0,1-1.435,1.435Zm0-14.355c-4.038,0-7.706-4.164-10.1-10.513a53,53,0,0,1,20.192,0c-2.39,6.349-6.058,10.513-10.1,10.513ZM53.947,72a26.409,26.409,0,0,0,4.944-8.656,35.691,35.691,0,0,1,6.02,2.139A27.268,27.268,0,0,1,53.947,72Zm13-8.7a37.365,37.365,0,0,0-7.167-2.68A53.061,53.061,0,0,0,61.69,47.37H73.138A27.138,27.138,0,0,1,66.951,63.3ZM61.688,44.5a53,53,0,0,0-1.906-13.25,37.364,37.364,0,0,0,7.167-2.68A27.134,27.134,0,0,1,73.135,44.5H61.688Zm21.57,20.1a1.435,1.435,0,1,1-1.435,1.435A1.438,1.438,0,0,1,83.258,64.6Z"/></g></svg>