<svg xmlns="http://www.w3.org/2000/svg" width="13" height="10.214" viewBox="0 0 13 10.214"><path d="M-4246.112-1394.417a1.914 1.914 0 0 1-.355 1.095 3.453 3.453 0 0 1-.885.893l-3.4 2.357-.308.222-.392.275-.377.236a2.17 2.17 0 0 1-.418.2 1.136 1.136 0 0 1-.362.066h-.015a1.147 1.147 0 0 1-.363-.066 2.2 2.2 0 0 1-.417-.2l-.377-.236-.392-.275-.308-.222q-.66-.463-1.9-1.323t-1.487-1.034a3.586 3.586 0 0 1-.849-.838 1.691 1.691 0 0 1-.4-.99 1.464 1.464 0 0 1 .3-.944 1.037 1.037 0 0 1 .859-.376h10.679a1.122 1.122 0 0 1 .816.34 1.113 1.113 0 0 1 .351.82zm-.725 2.764a4.015 4.015 0 0 0 .725-.631v5.76a1.116 1.116 0 0 1-.341.82 1.117 1.117 0 0 1-.819.341h-10.679a1.121 1.121 0 0 1-.82-.341 1.119 1.119 0 0 1-.341-.82v-5.76a3.853 3.853 0 0 0 .733.631q2.626 1.785 3.606 2.5c.275.2.5.362.671.475a4.113 4.113 0 0 0 .685.349 2.1 2.1 0 0 0 .8.177h.015a2.1 2.1 0 0 0 .8-.177 4.113 4.113 0 0 0 .685-.349c.172-.113.4-.272.671-.475q1.233-.892 3.613-2.5z" transform="translate(4259.112 1395.577)" fill="#fff" opacity=".5"/></svg>