<svg xmlns="http://www.w3.org/2000/svg" width="984" height="740.83" viewBox="0 0 984 740.83">
  <g id="Group_60" data-name="Group 60" transform="translate(0 0.049)">
    <g id="Group_41" data-name="Group 41" transform="translate(6.099 0.2)">
      <g id="Group_32" data-name="Group 32" transform="translate(241.527 104.499)">
        <g id="Group_27" data-name="Group 27">
          <path id="Path_3" data-name="Path 3" d="M711.479,416.835H75.538A14.577,14.577,0,0,1,60.9,402.2V48.038A14.577,14.577,0,0,1,75.538,33.4H711.885a14.577,14.577,0,0,1,14.638,14.638V402.2A15.2,15.2,0,0,1,711.479,416.835Z" transform="translate(-60.9 -2.904)" fill="none" stroke="#d6b1b1" stroke-miterlimit="10" stroke-width="0.434"/>
          <path id="Path_4" data-name="Path 4" d="M720.485,409.335H84.138A14.577,14.577,0,0,1,69.5,394.7V40.538A14.577,14.577,0,0,1,84.138,25.9H720.485a14.577,14.577,0,0,1,14.638,14.638V394.7A14.577,14.577,0,0,1,720.485,409.335Z" transform="translate(-34.531 -25.9)" fill="#f6e5e0"/>
        </g>
        <g id="Group_31" data-name="Group 31" transform="translate(71.942 16.671)">
          <g id="Group_28" data-name="Group 28" transform="translate(5.314)">
            <circle id="Ellipse_1" data-name="Ellipse 1" cx="8.132" cy="8.132" r="8.132" fill="#3767e3"/>
            <path id="Path_5" data-name="Path 5" d="M102.764,38.132A8.132,8.132,0,1,1,94.632,30,8.156,8.156,0,0,1,102.764,38.132Z" transform="translate(-59.664 -30)" fill="#e1723e"/>
            <circle id="Ellipse_2" data-name="Ellipse 2" cx="8.132" cy="8.132" r="8.132" transform="translate(53.673)" fill="none" stroke="#d6b1b1" stroke-miterlimit="10" stroke-width="0.297"/>
          </g>
          <g id="Group_29" data-name="Group 29" transform="translate(2.468 59.772)">
            <path id="Path_6" data-name="Path 6" d="M270.308,93.493H103.6A24.468,24.468,0,0,1,79.2,69.1h0a24.468,24.468,0,0,1,24.4-24.4H270.308a24.468,24.468,0,0,1,24.4,24.4h0A24.468,24.468,0,0,1,270.308,93.493Z" transform="translate(-79.2 -44.7)" fill="none" stroke="#d6b1b1" stroke-miterlimit="10" stroke-width="0.454"/>
            <path id="Path_7" data-name="Path 7" d="M106.651,56.526A7.726,7.726,0,1,1,98.926,48.8,7.72,7.72,0,0,1,106.651,56.526Z" transform="translate(-42.407 -32.129)" fill="none" stroke="#fff" stroke-miterlimit="10" stroke-width="0.459"/>
            <path id="Path_8" data-name="Path 8" d="M119.551,56.526a7.726,7.726,0,1,1-7.726-7.726A7.72,7.72,0,0,1,119.551,56.526Z" transform="translate(-2.854 -32.129)" fill="none" stroke="#fff" stroke-miterlimit="10" stroke-width="0.459"/>
            <path id="Path_9" data-name="Path 9" d="M131.451,56.526a7.726,7.726,0,1,1-7.726-7.726A7.72,7.72,0,0,1,131.451,56.526Z" transform="translate(33.633 -32.129)" fill="none" stroke="#fff" stroke-miterlimit="10" stroke-width="0.459"/>
          </g>
          <g id="Group_30" data-name="Group 30" transform="translate(275.304 33.749)">
            <path id="Path_10" data-name="Path 10" d="M443.127,317.642H153.619a7.289,7.289,0,0,1-7.319-7.319V45.619a7.289,7.289,0,0,1,7.319-7.319H443.127a7.289,7.289,0,0,1,7.319,7.319V310.73A7.214,7.214,0,0,1,443.127,317.642Z" transform="translate(-146.3 -38.3)" fill="none" stroke="#d6b1b1" stroke-miterlimit="10" stroke-width="0.454"/>
            <path id="Path_11" data-name="Path 11" d="M387.5,195.7H161.419a7.289,7.289,0,0,1-7.319-7.319V73.719a7.289,7.289,0,0,1,7.319-7.319H387.5a7.289,7.289,0,0,1,7.319,7.319V188.384C395.221,192.45,391.561,195.7,387.5,195.7Z" transform="translate(-122.384 47.858)" fill="none" stroke="#fff" stroke-miterlimit="10" stroke-width="0.459"/>
          </g>
          <circle id="Ellipse_3" data-name="Ellipse 3" cx="52.453" cy="52.453" r="52.453" transform="matrix(0.228, -0.974, 0.974, 0.228, 0, 257.846)" fill="none" stroke="#fff" stroke-miterlimit="10" stroke-width="0.459"/>
        </g>
      </g>
      <g id="Group_39" data-name="Group 39" transform="translate(31.141 43.507)">
        <g id="Group_33" data-name="Group 33" transform="translate(762 479.843)">
          <circle id="Ellipse_4" data-name="Ellipse 4" cx="37.327" cy="37.327" r="37.327" transform="matrix(0.22, -0.976, 0.976, 0.22, 0, 72.832)" fill="#ebc22f"/>
          <text id="_" data-name="$" transform="translate(30.556 57.526)" fill="#fff" font-size="43" font-family="OpenSans-Extrabold, Open Sans" font-weight="800"><tspan x="0" y="0">$</tspan></text>
        </g>
        <g id="Group_35" data-name="Group 35" transform="translate(651.967 311.871)">
          <g id="Group_34" data-name="Group 34">
            <rect id="Rectangle_64" data-name="Rectangle 64" width="90.674" height="91.488" fill="#3767e3"/>
            <path id="Path_12" data-name="Path 12" d="M169.5,106.5v31.716L196.336,106.5Z" transform="translate(-169.5 -29.65)" fill="#3767e3"/>
          </g>
          <text id="_2" data-name="!" transform="translate(36.819 56.164)" fill="#fff" font-size="49" font-family="OpenSans-Extrabold, Open Sans" font-weight="800"><tspan x="0" y="0">!</tspan></text>
        </g>
        <g id="Group_38" data-name="Group 38" transform="translate(642.208)">
          <g id="Group_36" data-name="Group 36">
            <path id="Path_13" data-name="Path 13" d="M455.794,177.2H179.705A12.668,12.668,0,0,1,167.1,164.6V23.5a12.668,12.668,0,0,1,12.605-12.6H455.794a12.668,12.668,0,0,1,12.6,12.6V164.6A12.668,12.668,0,0,1,455.794,177.2Z" transform="translate(-167.1 -10.9)" fill="#e1e1e1"/>
          </g>
          <g id="Group_37" data-name="Group 37" transform="translate(47.574 37.815)">
            <path id="Path_14" data-name="Path 14" d="M178.8,115.327l81.322-65.058L289.8,83.2l81.322-61.8" transform="translate(-178.8 -16.521)" fill="none" stroke="#0b347b" stroke-miterlimit="10" stroke-width="0.863"/>
            <path id="Path_15" data-name="Path 15" d="M222.3,20.2l17.891,4.066-2.44,17.484" transform="translate(-45.424 -20.2)" fill="none" stroke="#0b347b" stroke-miterlimit="10" stroke-width="0.863"/>
          </g>
        </g>
      </g>
      <g id="Group_40" data-name="Group 40">
        <path id="Path_16" data-name="Path 16" d="M27.523,127.718a13.192,13.192,0,0,1-13.012,13.418,13.425,13.425,0,0,1,0-26.836C21.831,114.3,27.523,119.993,27.523,127.718Z" transform="translate(-1.5 349.644)" fill="none" stroke="#d6b1b1" stroke-miterlimit="10" stroke-width="0.498"/>
        <path id="Path_17" data-name="Path 17" d="M241.9,156.259a9.361,9.361,0,1,1-9.352-9.759A9.549,9.549,0,0,1,241.9,156.259Z" transform="translate(678.258 448.373)" fill="none" stroke="#d6b1b1" stroke-miterlimit="10" stroke-width="0.498"/>
        <rect id="Rectangle_65" data-name="Rectangle 65" width="19.924" height="19.924" transform="translate(527.782)" fill="none" stroke="#d6b1b1" stroke-miterlimit="10" stroke-width="0.498"/>
        <path id="Path_18" data-name="Path 18" d="M91.639,16.9H38.779A4.7,4.7,0,0,0,33.9,21.779V51.462a4.7,4.7,0,0,0,4.879,4.879H60.33L78.221,76.672V57.155l13.418-.407a4.944,4.944,0,0,0,4.879-4.879V21.779C96.925,19.34,94.485,16.9,91.639,16.9Z" transform="translate(97.842 51.004)" fill="none" stroke="#d6b1b1" stroke-miterlimit="10" stroke-width="0.498"/>
      </g>
    </g>
    <g id="Group_58" data-name="Group 58" transform="translate(133.369 257.948)">
      <g id="Group_52" data-name="Group 52" transform="translate(231.769)">
        <g id="Group_47" data-name="Group 47" transform="translate(0 196.437)">
          <g id="Group_42" data-name="Group 42" transform="translate(0 9.67)">
            <path id="Path_19" data-name="Path 19" d="M89.8,341.663,113.79,146.9v-.813h0c3.253-13.825,13.418-26.023,28.463-30.089a40.418,40.418,0,0,1,50.42,27.65,39.744,39.744,0,0,1,.813,19.517h0v1.22L169.5,313.607a38.218,38.218,0,0,1-43.914,28.463h0Z" transform="translate(-89.8 -114.278)" fill="#d6642e"/>
          </g>
          <g id="Group_43" data-name="Group 43" transform="translate(48.387)">
            <path id="Path_20" data-name="Path 20" d="M208.232,112.1l-98.4,8.945L101.7,353.627l203.713.407,9.352-231.362Z" transform="translate(-101.7 -111.287)" fill="#e1723e"/>
            <path id="Path_21" data-name="Path 21" d="M159.374,157.034h-2.44C125.626,154.594,117.9,130.6,117.9,118c0-3.66,3.253-6.1,6.912-6.1a6.776,6.776,0,0,1,6.912,6.506c0,2.44.407,24.4,26.023,26.023,2.846,0,27.65.813,30.5-26.43.407-3.66,3.659-6.1,7.726-5.693,3.659.407,6.506,3.253,6.1,6.912C198.816,149.308,174.012,157.034,159.374,157.034Z" transform="translate(-52.029 -111.9)" fill="#ce5f31"/>
            <path id="Path_22" data-name="Path 22" d="M246.236,203.794l1.626-42.694L123.846,173.7,121,203.388Z" transform="translate(-42.524 38.953)" fill="#d6642e"/>
            <path id="Path_23" data-name="Path 23" d="M181.521,198.578,150.212,132.3,143.3,216.062l37.815-6.1Z" transform="translate(25.851 -49.351)" fill="#d6642e"/>
          </g>
          <g id="Group_46" data-name="Group 46" transform="translate(58.543 10.979)">
            <path id="Path_24" data-name="Path 24" d="M278.922,274.805,219.15,136.557c0-.407-.407-.407-.407-.813h0a40.75,40.75,0,0,0-71.97,38.222h0v.407c0,.407.407.407.407.813l64.651,136.622a38.183,38.183,0,0,0,50.013,15.045h0C281.768,317.093,289.087,293.916,278.922,274.805Z" transform="translate(12.628 -114.6)" fill="#e1723e"/>
            <g id="Group_45" data-name="Group 45" transform="translate(0 141.056)">
              <g id="Group_44" data-name="Group 44" transform="translate(0 36.633)">
                <path id="Path_25" data-name="Path 25" d="M123.486,172.125,219.04,158.3l-24.4,38.628L118.2,204.247Z" transform="translate(-61.265 -158.3)" fill="#e3a4a6"/>
                <path id="Path_26" data-name="Path 26" d="M160.319,165.205c14.231,9.352,18.7,22.77,5.286,33.749s-36.188,12.6-50.42,3.253-14.638-22.77-1.22-33.749S146.088,155.853,160.319,165.205Z" transform="translate(-104.198 -155.853)" fill="#e3a4a6"/>
              </g>
              <path id="Path_27" data-name="Path 27" d="M123.8,176.165l169.557-26.43c18.7-3.253,41.474,11.792,45.947,30.5h0c4.879,21.144-9.759,42.288-31.309,44.727L134.779,236.344Z" transform="translate(-44.095 -149.291)" fill="#e1723e"/>
            </g>
          </g>
        </g>
        <g id="Group_51" data-name="Group 51" transform="translate(96.794)">
          <g id="Group_48" data-name="Group 48" transform="translate(30.737 119.181)">
            <path id="Path_28" data-name="Path 28" d="M191.247,92.9l-12.2,85.8a29.034,29.034,0,0,1-30.9,24.8h0a29.367,29.367,0,0,1-26.836-32.122L129.035,99Z" transform="translate(-121.164 -92.9)" fill="#e3a4a6"/>
            <path id="Path_29" data-name="Path 29" d="M184.118,96.9s-11.385,63.838-62.618,45.541l2.846-26.023Z" transform="translate(-120.135 -80.636)" fill="#262127"/>
          </g>
          <g id="Group_50" data-name="Group 50">
            <path id="Path_30" data-name="Path 30" d="M130.256,73.8s-30.5,17.078-8.945,47.574S148.147,76.24,148.147,76.24Z" transform="translate(-113.605 -32.282)" fill="#262127"/>
            <path id="Path_31" data-name="Path 31" d="M148.579,144.531S193.306,94.924,142.073,75L137.6,146.157Z" transform="translate(-40.034 -28.602)" fill="#262127"/>
            <path id="Path_32" data-name="Path 32" d="M156.352,192.941l1.627.407a47.914,47.914,0,0,0,53.266-41.474L217.75,98.2a12.389,12.389,0,0,0-10.572-13.825L144.56,76.65a22.041,22.041,0,0,0-24.8,19.111l-4.879,43.914A47.686,47.686,0,0,0,156.352,192.941Z" transform="translate(-110.831 -24.153)" fill="#e3a4a6"/>
            <g id="Group_49" data-name="Group 49" transform="translate(11.693 78.442)">
              <path id="Path_33" data-name="Path 33" d="M126.7,92.459a3.868,3.868,0,1,0,4.066-3.66A4.324,4.324,0,0,0,126.7,92.459Z" transform="translate(-85.148 -64.732)" fill="#262127"/>
              <path id="Path_34" data-name="Path 34" d="M117.8,91.36a3.868,3.868,0,1,0,4.066-3.66A3.754,3.754,0,0,0,117.8,91.36Z" transform="translate(-112.436 -68.105)" fill="#262127"/>
              <path id="Path_35" data-name="Path 35" d="M123.14,90.7l-2.44,8.945s0,6.1,8.539,4.879" transform="translate(-103.544 -58.906)" fill="none" stroke="#b07078" stroke-linecap="round" stroke-linejoin="round" stroke-miterlimit="10" stroke-width="0.844"/>
              <path id="Path_36" data-name="Path 36" d="M146.7,93.917h-.813l-17.484-2.846a3.51,3.51,0,1,1,1.22-6.912l17.484,2.846a3.351,3.351,0,0,1,2.846,4.066A4.648,4.648,0,0,1,146.7,93.917Z" transform="translate(-88.886 -79.201)" fill="#262127"/>
              <path id="Path_37" data-name="Path 37" d="M130.79,91.5h-.813l-10.572-1.626a3.51,3.51,0,0,1,1.22-6.912L131.2,84.585a3.351,3.351,0,0,1,2.846,4.066C134.043,90.278,132.823,91.5,130.79,91.5Z" transform="translate(-116.481 -82.881)" fill="#262127"/>
              <path id="Path_38" data-name="Path 38" d="M118.7,95.3l31.309,4.879s-4.879,11.385-21.957,7.319C118.7,105.059,118.7,95.3,118.7,95.3Z" transform="translate(-109.677 -44.802)" fill="#fff"/>
            </g>
            <path id="Path_39" data-name="Path 39" d="M206.913,111.207l.813-1.22s-10.572-3.253-14.638-16.671c-.407-2.846-1.626-5.693-2.846-9.352-8.945-21.55-45.54-26.43-61.8-12.6s-16.264,37.815-.407,54.079c12.6,13.418,39.035,8.132,48.387,5.693a19.7,19.7,0,0,1,6.912,0l5.286,1.626c-2.846,13.825,5.693,24.8,5.693,24.8l-2.44,21.55,5.286.813,12.2-4.879,14.231-39.035C223.584,136.417,219.111,109.987,206.913,111.207Z" transform="translate(-105.687 -63.589)" fill="#262127"/>
            <path id="Path_40" data-name="Path 40" d="M136.117,102.373a15.357,15.357,0,1,0,17.078-13.418A16.028,16.028,0,0,0,136.117,102.373Z" transform="translate(-45.057 13.962)" fill="#e3a4a6"/>
          </g>
        </g>
      </g>
      <g id="Group_57" data-name="Group 57" transform="translate(0 189.118)">
        <g id="Group_53" data-name="Group 53" transform="translate(178.096 239.088)">
          <path id="Path_41" data-name="Path 41" d="M214.035,168.9H81.886a5.382,5.382,0,0,0-5.286,5.286h0a5.382,5.382,0,0,0,5.286,5.286H214.035a5.382,5.382,0,0,0,5.286-5.286h0A5.382,5.382,0,0,0,214.035,168.9Z" transform="translate(-76.6 -168.9)" fill="#3767e3"/>
          <path id="Path_42" data-name="Path 42" d="M188.7,168.9H107.786a5.382,5.382,0,0,0-5.286,5.286h0a5.382,5.382,0,0,0,5.286,5.286H188.7a5.382,5.382,0,0,0,5.286-5.286h0A5.382,5.382,0,0,0,188.7,168.9Z" transform="translate(2.812 -168.9)" fill="#6090e3"/>
        </g>
        <g id="Group_54" data-name="Group 54">
          <path id="Path_43" data-name="Path 43" d="M325.941,308.933H47a12.668,12.668,0,0,1-12.6-12.6V122.7A12.668,12.668,0,0,1,47,110.1H325.941a12.668,12.668,0,0,1,12.6,12.6v174.03A12.873,12.873,0,0,1,325.941,308.933Z" transform="translate(-27.894 -110.1)" fill="#6090e3"/>
          <path id="Path_44" data-name="Path 44" d="M323.934,308.933H45.4a12.668,12.668,0,0,1-12.6-12.6V122.7a12.668,12.668,0,0,1,12.6-12.6H324.341a12.668,12.668,0,0,1,12.6,12.6v174.03A13.254,13.254,0,0,1,323.934,308.933Z" transform="translate(-32.8 -110.1)" fill="#3767e3"/>
        </g>
        <g id="Group_56" data-name="Group 56" transform="translate(79.977 87.422)">
          <path id="Path_45" data-name="Path 45" d="M99.222,132.3l72.784,108.565H67.1Z" transform="translate(-7.609 -129.454)" fill="#2f579e"/>
          <g id="Group_55" data-name="Group 55">
            <path id="Path_46" data-name="Path 46" d="M91.629,131.6h46.76a6.709,6.709,0,0,1,6.506,8.132l-30.089,148.82a6.526,6.526,0,0,1-6.506,5.286H59.1a6.884,6.884,0,0,1-6.506-8.132l32.529-148.82A6.858,6.858,0,0,1,91.629,131.6Z" transform="translate(-52.469 -131.6)" fill="#71ca93"/>
            <path id="Path_47" data-name="Path 47" d="M143.9,168.9H57.7v10.572h86.2a5.382,5.382,0,0,0,5.286-5.286h0C149.594,171.34,147.155,168.9,143.9,168.9Z" transform="translate(-36.431 -17.234)" fill="#71ca93"/>
          </g>
        </g>
      </g>
    </g>
    <g id="Group_59" data-name="Group 59" transform="translate(0 697.133)">
      <line id="Line_1" data-name="Line 1" x2="299.673" transform="translate(454.999 43.507)" fill="none" stroke="#262127" stroke-miterlimit="10" stroke-width="0.282"/>
      <line id="Line_2" data-name="Line 2" x2="984" fill="none" stroke="#262127" stroke-miterlimit="10" stroke-width="0.282"/>
    </g>
  </g>
</svg>
