<svg xmlns="http://www.w3.org/2000/svg" width="984" height="740.83" viewBox="0 0 984 740.83"><path d="M711.479 416.835h-635.941a14.577 14.577 0 0 1-14.638-14.635v-354.162a14.577 14.577 0 0 1 14.638-14.638h636.347a14.577 14.577 0 0 1 14.638 14.638v354.162a15.2 15.2 0 0 1-15.044 14.635z" transform="translate(186.726 101.844)" stroke="#d6b1b1" stroke-miterlimit="10" stroke-width=".434" fill="none"/><path d="M720.485 409.335h-636.347a14.577 14.577 0 0 1-14.638-14.635v-354.162a14.577 14.577 0 0 1 14.638-14.638h636.347a14.577 14.577 0 0 1 14.638 14.638v354.162a14.577 14.577 0 0 1-14.638 14.635z" transform="translate(213.095 78.848)" fill="#f6e5e0"/><g transform="translate(319.568 121.419)"><g transform="translate(5.314)"><circle cx="8.132" cy="8.132" r="8.132" fill="#3767e3"/><path d="M102.764 38.132a8.132 8.132 0 1 1-8.132-8.132 8.156 8.156 0 0 1 8.132 8.132z" transform="translate(-59.664 -30)" fill="#e1723e"/><circle cx="8.132" cy="8.132" r="8.132" transform="translate(53.673)" stroke="#d6b1b1" stroke-miterlimit="10" stroke-width=".297" fill="none"/></g><g fill="none"><path d="M270.308 93.493h-166.708a24.468 24.468 0 0 1-24.4-24.393 24.468 24.468 0 0 1 24.4-24.4h166.708a24.468 24.468 0 0 1 24.4 24.4 24.468 24.468 0 0 1-24.4 24.393z" transform="translate(2.468 59.772) translate(-79.2 -44.7)" stroke="#d6b1b1" stroke-width=".454"/><path d="M106.651 56.526a7.726 7.726 0 1 1-7.725-7.726 7.72 7.72 0 0 1 7.725 7.726z" transform="translate(2.468 59.772) translate(-42.407 -32.129)" stroke="#fff" stroke-width=".459"/><path d="M119.551 56.526a7.726 7.726 0 1 1-7.726-7.726 7.72 7.72 0 0 1 7.726 7.726z" transform="translate(2.468 59.772) translate(-2.854 -32.129)" stroke="#fff" stroke-width=".459"/><path d="M131.451 56.526a7.726 7.726 0 1 1-7.726-7.726 7.72 7.72 0 0 1 7.726 7.726z" transform="translate(2.468 59.772) translate(33.633 -32.129)" stroke="#fff" stroke-width=".459"/></g><g fill="none"><path d="M443.127 317.642h-289.508a7.289 7.289 0 0 1-7.319-7.319v-264.704a7.289 7.289 0 0 1 7.319-7.319h289.508a7.289 7.289 0 0 1 7.319 7.319v265.111a7.214 7.214 0 0 1-7.319 6.912z" transform="translate(275.304 33.749) translate(-146.3 -38.3)" stroke="#d6b1b1" stroke-width=".454"/><path d="M387.5 195.7h-226.081a7.289 7.289 0 0 1-7.319-7.319v-114.662a7.289 7.289 0 0 1 7.319-7.319h226.081a7.289 7.289 0 0 1 7.319 7.319v114.665c.402 4.066-3.258 7.316-7.319 7.316z" transform="translate(275.304 33.749) translate(-122.384 47.858)" stroke="#fff" stroke-width=".459"/></g><circle cx="52.453" cy="52.453" r="52.453" transform="matrix(.228 -.974 .974 .228 0 257.846)" stroke="#fff" stroke-miterlimit="10" stroke-width=".459" fill="none"/></g><g transform="translate(799.24 523.599)"><circle cx="37.327" cy="37.327" r="37.327" transform="matrix(.22 -.976 .976 .22 0 72.832)" fill="#ebc22f"/><text transform="translate(30.556 57.526)" fill="#fff" font-size="43" font-family="OpenSans-Extrabold, Open Sans" font-weight="800"><tspan x="0" y="0">$</tspan></text></g><path d="M689.207 355.627h90.674v91.488h-90.674zm0 76.85v31.716l26.836-31.716z" fill="#3767e3"/><text transform="translate(726.026 411.791)" fill="#fff" font-size="49" font-family="OpenSans-Extrabold, Open Sans" font-weight="800"><tspan x="0" y="0">!</tspan></text><path d="M455.794 177.2h-276.089a12.668 12.668 0 0 1-12.605-12.6v-141.1a12.668 12.668 0 0 1 12.605-12.6h276.089a12.668 12.668 0 0 1 12.6 12.6v141.1a12.668 12.668 0 0 1-12.6 12.6z" transform="translate(512.348 32.856)" fill="#e1e1e1"/><path d="M727.022 180.377l81.322-65.058 29.678 32.931 81.322-61.8m-15.446-4.879l17.891 4.066-2.44 17.484" stroke="#0b347b" stroke-miterlimit="10" stroke-width=".863" fill="none"/><g stroke="#d6b1b1" stroke-miterlimit="10" stroke-width=".498" fill="none"><path d="M27.523 127.718a13.192 13.192 0 0 1-13.012 13.418 13.425 13.425 0 0 1 0-26.836c7.32 0 13.012 5.693 13.012 13.418z" transform="translate(4.599 349.893)"/><path d="M241.9 156.259a9.361 9.361 0 1 1-9.352-9.759 9.549 9.549 0 0 1 9.352 9.759z" transform="translate(684.357 448.622)"/><path d="M533.881.249h19.924v19.924h-19.924z"/><path d="M91.639 16.9h-52.86a4.7 4.7 0 0 0-4.879 4.879v29.683a4.7 4.7 0 0 0 4.879 4.879h21.551l17.891 20.331v-19.517l13.418-.407a4.944 4.944 0 0 0 4.879-4.879v-30.09c.407-2.439-2.033-4.879-4.879-4.879z" transform="translate(103.941 51.253)"/></g><path d="M89.8 341.663l23.99-194.763v-.813c3.253-13.825 13.418-26.023 28.463-30.089a40.418 40.418 0 0 1 50.42 27.65 39.744 39.744 0 0 1 .813 19.517v1.22l-23.986 149.222a38.218 38.218 0 0 1-43.914 28.463z" transform="translate(275.338 349.826)" fill="#d6642e"/><path d="M520.057 455.247l-98.4 8.945-8.132 232.582 203.713.407 9.352-231.362z" fill="#e1723e"/><path d="M159.374 157.034h-2.44c-31.308-2.44-39.034-26.434-39.034-39.034 0-3.66 3.253-6.1 6.912-6.1a6.776 6.776 0 0 1 6.912 6.506c0 2.44.407 24.4 26.023 26.023 2.846 0 27.65.813 30.5-26.43.407-3.66 3.659-6.1 7.726-5.693 3.659.407 6.506 3.253 6.1 6.912-3.257 30.09-28.061 37.816-42.699 37.816z" transform="translate(361.496 342.534)" fill="#ce5f31"/><path d="M617.237 697.181l1.626-42.694-124.016 12.6-2.846 29.688zm3.66-93.52l-31.309-66.278-6.912 83.762 37.815-6.1z" fill="#d6642e"/><path d="M278.922 274.805l-59.772-138.248-.407-.813a40.75 40.75 0 0 0-71.97 38.222v.407l.407.813 64.651 136.622a38.183 38.183 0 0 0 50.013 15.045c19.924-9.76 27.243-32.937 17.078-52.048z" transform="translate(436.309 350.813)" fill="#e1723e"/><path d="M485.902 656.927l95.554-13.825-24.4 38.628-76.44 7.319zm-6.1-4.473c14.231 9.352 18.7 22.77 5.286 33.749s-36.188 12.6-50.42 3.253-14.638-22.77-1.22-33.749 32.123-12.605 46.354-3.253z" fill="#e3a4a6"/><path d="M503.386 633.343l169.557-26.43c18.7-3.253 41.474 11.792 45.947 30.5 4.879 21.144-9.759 42.288-31.309 44.727l-173.216 11.382z" fill="#e1723e"/><path d="M191.247 92.9l-12.2 85.8a29.034 29.034 0 0 1-30.9 24.8 29.367 29.367 0 0 1-26.836-32.122l7.724-72.378z" transform="translate(371.505 284.278)" fill="#e3a4a6"/><path d="M556.652 393.442s-11.385 63.838-62.618 45.541l2.846-26.023zm-78.069-93.927s-30.5 17.078-8.945 47.574l26.836-45.134zm91.894 74.411s44.727-49.607-6.506-69.531l-4.473 71.157z" fill="#262127"/><path d="M156.352 192.941l1.627.407a47.914 47.914 0 0 0 53.266-41.474l6.505-53.674a12.389 12.389 0 0 0-10.572-13.825l-62.618-7.725a22.041 22.041 0 0 0-24.8 19.111l-4.879 43.914a47.686 47.686 0 0 0 41.471 53.266z" transform="translate(351.101 233.844)" fill="#e3a4a6"/><path d="M126.7 92.459a3.868 3.868 0 1 0 4.066-3.66 4.324 4.324 0 0 0-4.066 3.66z" transform="translate(388.477 271.707)" fill="#262127"/><path d="M117.8 91.36a3.868 3.868 0 1 0 4.066-3.66 3.754 3.754 0 0 0-4.066 3.66z" transform="translate(361.189 268.334)" fill="#262127"/><path d="M493.221 368.233l-2.44 8.945s0 6.1 8.539 4.879" stroke="#b07078" stroke-linecap="round" stroke-linejoin="round" stroke-miterlimit="10" stroke-width=".844" fill="none"/><path d="M146.7 93.917h-.813l-17.484-2.846a3.51 3.51 0 1 1 1.22-6.912l17.484 2.846a3.351 3.351 0 0 1 2.846 4.066 4.648 4.648 0 0 1-3.253 2.846z" transform="translate(384.739 257.238)" fill="#262127"/><path d="M130.79 91.5h-.813l-10.572-1.626a3.51 3.51 0 0 1 1.22-6.912l10.575 1.623a3.351 3.351 0 0 1 2.846 4.066c-.003 1.627-1.223 2.849-3.256 2.849z" transform="translate(357.144 253.558)" fill="#262127"/><path d="M482.648 386.937l31.309 4.879s-4.879 11.385-21.957 7.319c-9.352-2.439-9.352-12.198-9.352-12.198z" fill="#fff"/><path d="M206.913 111.207l.813-1.22s-10.572-3.253-14.638-16.671c-.407-2.846-1.626-5.693-2.846-9.352-8.945-21.55-45.54-26.43-61.8-12.6s-16.264 37.815-.407 54.079c12.6 13.418 39.035 8.132 48.387 5.693a19.7 19.7 0 0 1 6.912 0l5.286 1.626c-2.846 13.825 5.693 24.8 5.693 24.8l-2.44 21.55 5.286.813 12.2-4.879 14.231-39.035c-.006.406-4.479-26.024-16.677-24.804z" transform="translate(356.245 194.408)" fill="#262127"/><path d="M136.117 102.373a15.357 15.357 0 1 0 17.078-13.418 16.028 16.028 0 0 0-17.078 13.418z" transform="translate(416.875 271.959)" fill="#e3a4a6"/><path d="M214.035 168.9h-132.149a5.382 5.382 0 0 0-5.286 5.286 5.382 5.382 0 0 0 5.286 5.286h132.149a5.382 5.382 0 0 0 5.286-5.286 5.382 5.382 0 0 0-5.286-5.286z" transform="translate(234.865 517.303)" fill="#3767e3"/><path d="M188.7 168.9h-80.914a5.382 5.382 0 0 0-5.286 5.286 5.382 5.382 0 0 0 5.286 5.286h80.914a5.382 5.382 0 0 0 5.286-5.286 5.382 5.382 0 0 0-5.286-5.286z" transform="translate(314.277 517.303)" fill="#6090e3"/><path d="M325.941 308.933h-278.941a12.668 12.668 0 0 1-12.6-12.6v-173.633a12.668 12.668 0 0 1 12.6-12.6h278.941a12.668 12.668 0 0 1 12.6 12.6v174.03a12.873 12.873 0 0 1-12.6 12.203z" transform="translate(105.475 337.015)" fill="#6090e3"/><path d="M323.934 308.933h-278.534a12.668 12.668 0 0 1-12.6-12.6v-173.633a12.668 12.668 0 0 1 12.6-12.6h278.941a12.668 12.668 0 0 1 12.6 12.6v174.03a13.254 13.254 0 0 1-13.007 12.203z" transform="translate(100.569 337.015)" fill="#3767e3"/><path d="M304.959 537.383l72.784 108.565h-104.906z" fill="#2f579e"/><g fill="#71ca93"><path d="M91.629 131.6h46.76a6.709 6.709 0 0 1 6.506 8.132l-30.089 148.82a6.526 6.526 0 0 1-6.506 5.286h-49.2a6.884 6.884 0 0 1-6.506-8.132l32.529-148.82a6.858 6.858 0 0 1 6.506-5.286z" transform="translate(160.877 402.937)"/><path d="M143.9 168.9h-86.2v10.572h86.2a5.382 5.382 0 0 0 5.286-5.286c.408-2.846-2.031-5.286-5.286-5.286z" transform="translate(176.915 517.303)"/></g><path d="M454.999 740.689h299.673m-754.672-43.507h984" stroke="#262127" stroke-miterlimit="10" stroke-width=".282" fill="none"/></svg>