<svg xmlns="http://www.w3.org/2000/svg" width="89.047" height="89" viewBox="0 0 89.047 89"><path d="M-428.311 338.8a1.4 1.4 0 0 0-1.056-.208 1.4 1.4 0 0 0-.893.6 1.407 1.407 0 0 0-.236.785v14.993a1.4 1.4 0 0 0 1.406 1.4 1.4 1.4 0 0 0 .785-.236l11.242-7.494a1.406 1.406 0 0 0 .393-1.949 1.4 1.4 0 0 0-.393-.393zm.626 13.532v-9.742l7.308 4.871zm-42.155 40.815v10.719a1.406 1.406 0 0 0 1.406 1.406h86.184a1.405 1.405 0 0 0 1-.414 1.406 1.406 0 0 0 .41-1v-10.711a10.565 10.565 0 0 0-9.806-11.274q-.483-.033-.967-.022h-.785a9.423 9.423 0 0 0 2.187-6.09 9.615 9.615 0 0 0-.993-4.215h3.336a5.154 5.154 0 0 0 5.151-5.153v-39.818h.469a1.4 1.4 0 0 0 1-.409 1.4 1.4 0 0 0 .413-.995v-7.5a1.4 1.4 0 0 0-1.406-1.4h-86.184a1.4 1.4 0 0 0-1.406 1.4v7.5a1.4 1.4 0 0 0 1.406 1.4h.469v39.813a5.154 5.154 0 0 0 5.151 5.153h5.209a9.615 9.615 0 0 0-.993 4.215 9.432 9.432 0 0 0 2.187 6.09h-2.654a10.566 10.566 0 0 0-10.8 10.329q-.018.488.016.976zm14.052-17.385a6.687 6.687 0 0 1 1.447-4.215 5.281 5.281 0 0 1 1.73-1.406 4.4 4.4 0 0 1 3.95 0 5.276 5.276 0 0 1 1.729 1.406 6.7 6.7 0 0 1 1.449 4.216 5.226 5.226 0 0 1-4.294 6.012 5.224 5.224 0 0 1-6.011-4.293 5.2 5.2 0 0 1 0-1.72zm-9.368-9.368v-39.819h4.684v7.962a1.406 1.406 0 0 0 1.406 1.406 1.4 1.4 0 0 0 1.4-1.406v-7.962h64.639v7.962a1.4 1.4 0 0 0 1.4 1.406 1.406 1.406 0 0 0 1.406-1.406v-7.962h4.684v39.813a2.344 2.344 0 0 1-2.341 2.343h-5.476a7.161 7.161 0 0 0-9.66 0h-13.718a10.067 10.067 0 0 0-2.611-4.871h7.12a8.91 8.91 0 0 0 8.9-8.9v-14.988a8.911 8.911 0 0 0-8.9-8.9h-26.231a8.911 8.911 0 0 0-8.9 8.9v14.989a8.91 8.91 0 0 0 8.9 8.9h7.12a10.069 10.069 0 0 0-2.611 4.871h-11.847a7.161 7.161 0 0 0-9.66 0h-7.37a2.341 2.341 0 0 1-2.341-2.343zm-1.874-42.623v-4.684h83.375v4.684zm74.007 51.991a5.226 5.226 0 0 1-4.293 6.012 5.225 5.225 0 0 1-6.012-4.293 5.194 5.194 0 0 1 0-1.72 6.688 6.688 0 0 1 1.449-4.215 5.262 5.262 0 0 1 1.729-1.406 4.4 4.4 0 0 1 3.95 0 5.277 5.277 0 0 1 1.729 1.406 6.689 6.689 0 0 1 1.455 4.21zm9.368 26.7h-4.684v-6.094a1.406 1.406 0 0 0-1.406-1.406 1.406 1.406 0 0 0-1.406 1.406v6.088h-14.049v-12.59a12.751 12.751 0 0 0-1.03-5.21h14.613a7.809 7.809 0 0 1 7.991 7.62 7.955 7.955 0 0 1-.027.866zm-30.447-9.368a1.365 1.365 0 0 0-.467.1 1.391 1.391 0 0 0-.937 1.309v7.964h-19.673v-7.967a1.391 1.391 0 0 0-.937-1.309 1.337 1.337 0 0 0-.469-.1 1.406 1.406 0 0 0-1.4 1.406v7.962h-4.684v-12.695a8.811 8.811 0 0 1 1.309-4.6 8.615 8.615 0 0 1 .878-1.178 9.08 9.08 0 0 1 1.081-1.047 8.7 8.7 0 0 1 5.528-2.015h16.849a9.927 9.927 0 0 1 5.889 1.933 7.632 7.632 0 0 1 1.124 1.06 7.555 7.555 0 0 1 .832 1.2 9.411 9.411 0 0 1 1.158 4.766v12.589h-4.684v-7.961a1.406 1.406 0 0 0-1.395-1.411zm-46.839 1.874a1.406 1.406 0 0 0-1.406 1.406v6.088h-4.684v-9.313a7.808 7.808 0 0 1 7.1-8.458 7.985 7.985 0 0 1 .866-.027h14.765a11.621 11.621 0 0 0-1.188 5.1v12.696h-14.051v-6.094a1.406 1.406 0 0 0-1.406-1.406zm17.275-23.427h9.467a10.274 10.274 0 0 0 2.648 6.558h-2.314a11.557 11.557 0 0 0-8.619 3.859 10.171 10.171 0 0 0-1.426-.112h-.957a9.437 9.437 0 0 0 2.193-6.09 9.615 9.615 0 0 0-.993-4.214zm12.234-.469a10.08 10.08 0 0 1 .376-2.341 5.825 5.825 0 0 1 2.477-3.711 5.825 5.825 0 0 1 4.376-.87 5.825 5.825 0 0 1 4.581 4.581 7.784 7.784 0 0 1 .293 1.4 8.071 8.071 0 0 1 .082.937l-.042.469a6.069 6.069 0 0 1-5.548 6.544 6.069 6.069 0 0 1-6.544-5.548 6.077 6.077 0 0 1 0-1 3.552 3.552 0 0 1-.052-.463zm26.286.469a9.615 9.615 0 0 0-.992 4.215 9.423 9.423 0 0 0 2.186 6.09h-2.831a10.2 10.2 0 0 0-1.216.08 12.077 12.077 0 0 0-9.017-3.827h-2.118a10.284 10.284 0 0 0 2.648-6.558zm-33.312-10.492a6.1 6.1 0 0 1-6.09-6.088v-14.989a6.1 6.1 0 0 1 6.09-6.09h26.23a6.1 6.1 0 0 1 6.09 6.09v14.989a6.1 6.1 0 0 1-6.09 6.088zm46.839-8.244a1.4 1.4 0 0 0 1.406-1.4v-1.874a1.406 1.406 0 0 0-1.406-1.4 1.4 1.4 0 0 0-1.4 1.406v1.863a1.4 1.4 0 0 0 .41 1 1.4 1.4 0 0 0 .99.405zm0-7.494a1.406 1.406 0 0 0 1.406-1.406v-3.747a1.4 1.4 0 0 0-1.406-1.4 1.4 1.4 0 0 0-.993.411 1.4 1.4 0 0 0-.411.993v3.747a1.4 1.4 0 0 0 1.4 1.406zm-67.447 0a1.4 1.4 0 0 0 1.4-1.406v-3.747a1.4 1.4 0 0 0-.411-.993 1.4 1.4 0 0 0-.993-.411 1.4 1.4 0 0 0-1.406 1.4v3.747a1.406 1.406 0 0 0 1.406 1.406zm0 7.494a1.4 1.4 0 0 0 1.4-1.407v-1.871a1.4 1.4 0 0 0-1.4-1.4 1.406 1.406 0 0 0-1.406 1.406v1.867a1.4 1.4 0 0 0 .411 1 1.4 1.4 0 0 0 .995.412z" transform="translate(469.866 -316.271)" fill="#292a35"/></svg>