<svg xmlns="http://www.w3.org/2000/svg" width="13" height="11.145" viewBox="0 0 13 11.145"><path d="M-4541.982-1233.267a3.619 3.619 0 0 1 .87 2.332 3.621 3.621 0 0 1-.87 2.333 5.888 5.888 0 0 1-2.365 1.69 8.424 8.424 0 0 1-3.265.62 9.841 9.841 0 0 1-1.051-.058 7.934 7.934 0 0 1-3.338 1.756 5.451 5.451 0 0 1-.827.159.284.284 0 0 1-.221-.065.369.369 0 0 1-.127-.21v-.008a.1.1 0 0 1 0-.087.178.178 0 0 0 .014-.072l.033-.069.043-.066.051-.061.058-.065.225-.25.25-.276.225-.287a3 3 0 0 0 .236-.37l.2-.428a4.59 4.59 0 0 0 .188-.551 5.342 5.342 0 0 1-1.795-1.6 3.519 3.519 0 0 1-.657-2.039 3.466 3.466 0 0 1 .515-1.8 4.976 4.976 0 0 1 1.386-1.483 7.05 7.05 0 0 1 2.075-.99 8.638 8.638 0 0 1 2.524-.366 8.424 8.424 0 0 1 3.265.62 5.878 5.878 0 0 1 2.358 1.691z" transform="translate(4554.112 1235.577)" fill="#fff" opacity=".5"/></svg>