<svg xmlns="http://www.w3.org/2000/svg" width="10.215" height="10.214" viewBox="0 0 10.215 10.214"><path d="M-4542.526-1388.592a.431.431 0 0 1 .022.153 2.394 2.394 0 0 1-.073.511 2.827 2.827 0 0 1-.152.5 1.944 1.944 0 0 1-.885.769 2.814 2.814 0 0 1-1.35.37 2.874 2.874 0 0 1-.384-.025 3.063 3.063 0 0 1-.417-.091l-.341-.1-.4-.149-.355-.13a6.626 6.626 0 0 1-1.27-.6 10.994 10.994 0 0 1-1.915-1.567 10.951 10.951 0 0 1-1.567-1.916 6.548 6.548 0 0 1-.6-1.269l-.131-.356-.148-.4-.106-.341a3.086 3.086 0 0 1-.09-.417 2.857 2.857 0 0 1-.026-.385 2.816 2.816 0 0 1 .37-1.349 1.94 1.94 0 0 1 .769-.885 2.89 2.89 0 0 1 .5-.152 2.359 2.359 0 0 1 .512-.073.4.4 0 0 1 .152.022q.13.044.384.551l.218.392.254.461.225.387.127.182a2.077 2.077 0 0 1 .156.257.473.473 0 0 1 .051.207.6.6 0 0 1-.207.363 3.568 3.568 0 0 1-.45.4 4.414 4.414 0 0 0-.45.384.551.551 0 0 0-.206.334.478.478 0 0 0 .036.163l.061.149.1.174.083.138a7.646 7.646 0 0 0 1.263 1.7 7.621 7.621 0 0 0 1.705 1.262l.137.084.175.1a1.415 1.415 0 0 0 .148.062.5.5 0 0 0 .163.036.55.55 0 0 0 .334-.207 4.375 4.375 0 0 0 .385-.449 3.427 3.427 0 0 1 .4-.45.6.6 0 0 1 .362-.207.472.472 0 0 1 .207.051 2.1 2.1 0 0 1 .258.156l.181.127.388.224.461.254.392.218c.338.17.522.3.551.384z" transform="translate(4552.719 1396.506)" fill="#fff" opacity=".5"/></svg>