<svg xmlns="http://www.w3.org/2000/svg" width="83.584" height="83.6" viewBox="0 0 83.584 83.6"><g transform="translate(-146.358 -2425)"><g transform="translate(146.272 2425)"><path d="M32.117,29.259a2.8,2.8,0,0,0-2.787,2.787v2.787h2.787V32.046H41.87v2.787H53.017V48.766a1.393,1.393,0,0,1-2.787,0v-8.36a2.8,2.8,0,0,0-2.787-2.787H30.723a2.8,2.8,0,0,0-2.787,2.787v9.753a2.8,2.8,0,0,0,2.787,2.787h20.9a4.105,4.105,0,0,0,4.18-4.18V34.833a2.8,2.8,0,0,0-2.787-2.787h-8.36a2.8,2.8,0,0,0-2.787-2.787Zm-1.393,20.9V40.406h16.72v8.36a4.942,4.942,0,0,0,.279,1.393Zm0,0"/><path d="M54.829,14.072,62.91,5.99a1.505,1.505,0,0,1,.976-.418h11.7a4.078,4.078,0,0,0,5.294,2.508,4.193,4.193,0,0,0,2.508-5.3A4.138,4.138,0,0,0,78.1.278,4.07,4.07,0,0,0,75.59,2.785h-11.7A3.794,3.794,0,0,0,60.959,4.04l-8.081,8.081a4.01,4.01,0,0,0-1.255,2.926v6.688a21.94,21.94,0,0,0-8.36-2.23V8.081a4.079,4.079,0,0,0,2.508-5.3,4.138,4.138,0,0,0-5.3-2.508,4.03,4.03,0,0,0-2.508,5.294,4.071,4.071,0,0,0,2.508,2.508V19.506a21.946,21.946,0,0,0-8.36,2.23V15.047a3.794,3.794,0,0,0-1.254-2.926L22.782,4.04a4.011,4.011,0,0,0-2.926-1.255H8.151A4.03,4.03,0,0,0,2.856.278,4.138,4.138,0,0,0,.348,5.572,4.029,4.029,0,0,0,5.643,8.081,4.072,4.072,0,0,0,8.151,5.572h11.7a1.266,1.266,0,0,1,.976.418l8.081,8.081a1.264,1.264,0,0,1,.418.976v8.36a21.768,21.768,0,0,0-4.877,4.6L17.208,20.76a1.266,1.266,0,0,1-.418-.976V17.834A4.143,4.143,0,1,0,14,10.031,4.192,4.192,0,0,0,11.5,15.326,4.071,4.071,0,0,0,14,17.834v1.951a3.8,3.8,0,0,0,1.255,2.926l7.524,7.524a23.1,23.1,0,0,0-2.09,4.6H13.725a1.264,1.264,0,0,1-.976-.418L9.405,31.071a4.285,4.285,0,0,0,.418-1.812,4.106,4.106,0,0,0-4.18-4.18,4.18,4.18,0,1,0,0,8.36,4.285,4.285,0,0,0,1.812-.418L10.8,36.365a4.009,4.009,0,0,0,2.926,1.254h6.27a28.711,28.711,0,0,0-.418,3.623l-8.5,8.5a1.5,1.5,0,0,1-.976.418H8.151a4.079,4.079,0,0,0-5.3-2.508A4.138,4.138,0,0,0,.348,52.946a4.078,4.078,0,0,0,5.294,2.508,4.072,4.072,0,0,0,2.508-2.508H10.1a3.8,3.8,0,0,0,2.926-1.254l6.827-6.827a21.985,21.985,0,0,0,3.623,9.475H17.9a3.794,3.794,0,0,0-2.926,1.255L8.291,62.282a4.01,4.01,0,0,0-1.255,2.926v1.951a4.143,4.143,0,0,0,2.787,7.8,4.143,4.143,0,0,0,0-7.8V65.208a1.265,1.265,0,0,1,.418-.976l6.688-6.688a1.265,1.265,0,0,1,.976-.418h7.8a19.167,19.167,0,0,0,3.622,3.066v6.967a1.265,1.265,0,0,1-.418.976l-7.524,7.524a4.287,4.287,0,0,0-1.812-.418,4.18,4.18,0,1,0,4.18,4.18,4.285,4.285,0,0,0-.418-1.811l7.524-7.524a4.011,4.011,0,0,0,1.254-2.926V61.864a21.933,21.933,0,0,0,8.36,2.229V75.519a4.143,4.143,0,1,0,2.787,0V64.093a21.927,21.927,0,0,0,8.36-2.229v5.294a3.8,3.8,0,0,0,1.255,2.926L60.4,77.609a4.286,4.286,0,0,0-.418,1.811,4.18,4.18,0,1,0,4.18-4.18,4.286,4.286,0,0,0-1.811.418l-7.524-7.524a1.266,1.266,0,0,1-.418-.976V60.192a24.793,24.793,0,0,0,3.623-3.066h7.8a1.266,1.266,0,0,1,.976.418L73.5,64.232a1.264,1.264,0,0,1,.418.976v1.951a4.143,4.143,0,1,0,2.787,0V65.208a3.794,3.794,0,0,0-1.254-2.926l-6.688-6.688a4.011,4.011,0,0,0-2.926-1.255H60.263a20.73,20.73,0,0,0,3.623-9.475l6.827,6.827a4.009,4.009,0,0,0,2.926,1.254H75.59a4.142,4.142,0,1,0,0-2.787H73.639a1.264,1.264,0,0,1-.976-.418l-8.5-8.5a16.054,16.054,0,0,0-.418-3.623h6.27a3.8,3.8,0,0,0,2.926-1.254l3.344-3.344a3.852,3.852,0,0,0,1.811.418,4.18,4.18,0,1,0-4.18-4.18,4.286,4.286,0,0,0,.418,1.812l-3.344,3.344a1.265,1.265,0,0,1-.976.418H63.049a33.557,33.557,0,0,0-2.09-4.6l7.524-7.524a4.011,4.011,0,0,0,1.254-2.926V17.834a4.079,4.079,0,0,0,2.508-5.3,4.138,4.138,0,0,0-5.3-2.508,4.143,4.143,0,0,0,0,7.8v1.951a1.265,1.265,0,0,1-.418.976l-7.246,7.245a21.753,21.753,0,0,0-4.877-4.6v-8.36a1.505,1.505,0,0,1,.418-.976ZM79.491,2.785a1.317,1.317,0,0,1,1.393,1.393,1.393,1.393,0,0,1-2.787,0A1.317,1.317,0,0,1,79.491,2.785ZM4.25,5.572A1.317,1.317,0,0,1,2.856,4.179,1.317,1.317,0,0,1,4.25,2.785,1.317,1.317,0,0,1,5.643,4.179,1.316,1.316,0,0,1,4.25,5.572ZM15.4,12.539a1.317,1.317,0,0,1,1.393,1.393A1.316,1.316,0,0,1,15.4,15.326,1.317,1.317,0,0,1,14,13.932,1.317,1.317,0,0,1,15.4,12.539ZM4.25,29.259a1.317,1.317,0,0,1,1.393-1.393,1.393,1.393,0,0,1,0,2.787A1.317,1.317,0,0,1,4.25,29.259Zm0,23.687a1.393,1.393,0,0,1,0-2.787,1.393,1.393,0,1,1,0,2.787ZM8.43,72.453a1.393,1.393,0,0,1,0-2.787,1.393,1.393,0,0,1,0,2.787Zm11.147,8.36A1.393,1.393,0,1,1,20.97,79.42,1.317,1.317,0,0,1,19.576,80.813ZM65.557,79.42a1.393,1.393,0,1,1-1.393-1.393A1.316,1.316,0,0,1,65.557,79.42Zm9.753-6.967A1.393,1.393,0,1,1,76.7,71.06,1.317,1.317,0,0,1,75.311,72.453Zm4.18-22.294A1.393,1.393,0,1,1,78.1,51.553,1.317,1.317,0,0,1,79.491,50.159ZM78.1,27.866A1.393,1.393,0,1,1,76.7,29.259,1.317,1.317,0,0,1,78.1,27.866ZM68.344,12.539a1.317,1.317,0,0,1,1.393,1.393,1.393,1.393,0,0,1-2.787,0A1.317,1.317,0,0,1,68.344,12.539ZM41.87,2.785a1.317,1.317,0,0,1,1.393,1.393,1.393,1.393,0,0,1-2.787,0A1.317,1.317,0,0,1,41.87,2.785Zm0,78.028a1.393,1.393,0,1,1,1.393-1.393A1.317,1.317,0,0,1,41.87,80.813ZM61.377,41.8A19.507,19.507,0,1,1,41.87,22.292,19.564,19.564,0,0,1,61.377,41.8Zm0,0"/></g></g></svg>