<svg xmlns="http://www.w3.org/2000/svg" width="83.584" height="83.6" viewBox="0 0 83.584 83.6"><path d="M32.117 29.259a2.8 2.8 0 0 0-2.787 2.787v2.787h2.787v-2.787h9.753v2.787h11.147v13.933a1.393 1.393 0 0 1-2.787 0v-8.36a2.8 2.8 0 0 0-2.787-2.787h-16.72a2.8 2.8 0 0 0-2.787 2.787v9.753a2.8 2.8 0 0 0 2.787 2.787h20.9a4.105 4.105 0 0 0 4.18-4.18v-13.933a2.8 2.8 0 0 0-2.787-2.787h-8.36a2.8 2.8 0 0 0-2.787-2.787zm-1.393 20.9v-9.753h16.72v8.36a4.942 4.942 0 0 0 .279 1.393zm0 0M54.829 14.072l8.081-8.082a1.505 1.505 0 0 1 .976-.418h11.7a4.078 4.078 0 0 0 5.294 2.508 4.193 4.193 0 0 0 2.508-5.3 4.138 4.138 0 0 0-5.288-2.502 4.07 4.07 0 0 0-2.51 2.507h-11.7a3.794 3.794 0 0 0-2.931 1.255l-8.081 8.081a4.01 4.01 0 0 0-1.255 2.926v6.688a21.94 21.94 0 0 0-8.36-2.23v-11.424a4.079 4.079 0 0 0 2.508-5.3 4.138 4.138 0 0 0-5.3-2.508 4.03 4.03 0 0 0-2.508 5.294 4.071 4.071 0 0 0 2.508 2.508v11.431a21.946 21.946 0 0 0-8.36 2.23v-6.689a3.794 3.794 0 0 0-1.254-2.926l-8.075-8.081a4.011 4.011 0 0 0-2.926-1.255h-11.705a4.03 4.03 0 0 0-5.295-2.507 4.138 4.138 0 0 0-2.508 5.294 4.029 4.029 0 0 0 5.295 2.509 4.072 4.072 0 0 0 2.508-2.509h11.7a1.266 1.266 0 0 1 .976.418l8.081 8.081a1.264 1.264 0 0 1 .418.976v8.36a21.768 21.768 0 0 0-4.877 4.6l-7.241-7.247a1.266 1.266 0 0 1-.418-.976v-1.95a4.143 4.143 0 1 0-2.79-7.803 4.192 4.192 0 0 0-2.5 5.295 4.071 4.071 0 0 0 2.5 2.508v1.951a3.8 3.8 0 0 0 1.255 2.926l7.524 7.524a23.1 23.1 0 0 0-2.09 4.6h-6.964a1.264 1.264 0 0 1-.976-.418l-3.344-3.346a4.285 4.285 0 0 0 .418-1.812 4.106 4.106 0 0 0-4.18-4.18 4.18 4.18 0 1 0 0 8.36 4.285 4.285 0 0 0 1.812-.418l3.345 3.344a4.009 4.009 0 0 0 2.926 1.254h6.27a28.711 28.711 0 0 0-.418 3.623l-8.5 8.5a1.5 1.5 0 0 1-.976.418h-1.951a4.079 4.079 0 0 0-5.3-2.508 4.138 4.138 0 0 0-2.503 5.294 4.078 4.078 0 0 0 5.294 2.508 4.072 4.072 0 0 0 2.508-2.508h1.95a3.8 3.8 0 0 0 2.926-1.254l6.827-6.827a21.985 21.985 0 0 0 3.623 9.475h-5.576a3.794 3.794 0 0 0-2.926 1.255l-6.683 6.687a4.01 4.01 0 0 0-1.255 2.926v1.951a4.143 4.143 0 0 0 2.787 7.8 4.143 4.143 0 0 0 0-7.8v-1.951a1.265 1.265 0 0 1 .418-.976l6.688-6.688a1.265 1.265 0 0 1 .976-.418h7.8a19.167 19.167 0 0 0 3.622 3.066v6.967a1.265 1.265 0 0 1-.418.976l-7.524 7.524a4.287 4.287 0 0 0-1.812-.418 4.18 4.18 0 1 0 4.18 4.18 4.285 4.285 0 0 0-.418-1.811l7.524-7.524a4.011 4.011 0 0 0 1.254-2.926v-5.296a21.933 21.933 0 0 0 8.36 2.229v11.426a4.143 4.143 0 1 0 2.787 0v-11.426a21.927 21.927 0 0 0 8.36-2.229v5.294a3.8 3.8 0 0 0 1.255 2.926l7.525 7.525a4.286 4.286 0 0 0-.418 1.811 4.18 4.18 0 1 0 4.18-4.18 4.286 4.286 0 0 0-1.811.418l-7.524-7.524a1.266 1.266 0 0 1-.418-.976v-6.966a24.793 24.793 0 0 0 3.623-3.066h7.8a1.266 1.266 0 0 1 .976.418l6.692 6.688a1.264 1.264 0 0 1 .418.976v1.951a4.143 4.143 0 1 0 2.787 0v-1.951a3.794 3.794 0 0 0-1.254-2.926l-6.688-6.688a4.011 4.011 0 0 0-2.926-1.255h-5.574a20.73 20.73 0 0 0 3.623-9.475l6.827 6.827a4.009 4.009 0 0 0 2.926 1.254h1.951a4.142 4.142 0 1 0 0-2.787h-1.951a1.264 1.264 0 0 1-.976-.418l-8.5-8.5a16.054 16.054 0 0 0-.418-3.623h6.27a3.8 3.8 0 0 0 2.926-1.254l3.344-3.344a3.852 3.852 0 0 0 1.811.418 4.18 4.18 0 1 0-4.18-4.18 4.286 4.286 0 0 0 .418 1.812l-3.344 3.344a1.265 1.265 0 0 1-.976.418h-6.965a33.557 33.557 0 0 0-2.09-4.6l7.524-7.524a4.011 4.011 0 0 0 1.254-2.926v-1.947a4.079 4.079 0 0 0 2.508-5.3 4.138 4.138 0 0 0-5.3-2.508 4.143 4.143 0 0 0 0 7.8v1.951a1.265 1.265 0 0 1-.418.976l-7.246 7.245a21.753 21.753 0 0 0-4.877-4.6v-8.36a1.505 1.505 0 0 1 .418-.976zm24.662-11.287a1.317 1.317 0 0 1 1.393 1.393 1.393 1.393 0 0 1-2.787 0 1.317 1.317 0 0 1 1.394-1.393zm-75.241 2.787a1.317 1.317 0 0 1-1.394-1.393 1.317 1.317 0 0 1 1.394-1.394 1.317 1.317 0 0 1 1.393 1.394 1.316 1.316 0 0 1-1.393 1.393zm11.15 6.967a1.317 1.317 0 0 1 1.393 1.393 1.316 1.316 0 0 1-1.393 1.394 1.317 1.317 0 0 1-1.4-1.394 1.317 1.317 0 0 1 1.4-1.393zm-11.15 16.72a1.317 1.317 0 0 1 1.393-1.393 1.393 1.393 0 0 1 0 2.787 1.317 1.317 0 0 1-1.393-1.394zm0 23.687a1.393 1.393 0 0 1 0-2.787 1.393 1.393 0 1 1 0 2.787zm4.18 19.507a1.393 1.393 0 0 1 0-2.787 1.393 1.393 0 0 1 0 2.787zm11.147 8.36a1.393 1.393 0 1 1 1.393-1.393 1.317 1.317 0 0 1-1.394 1.393zm45.98-1.393a1.393 1.393 0 1 1-1.393-1.393 1.316 1.316 0 0 1 1.393 1.393zm9.753-6.967a1.393 1.393 0 1 1 1.39-1.393 1.317 1.317 0 0 1-1.389 1.393zm4.18-22.294a1.393 1.393 0 1 1-1.39 1.394 1.317 1.317 0 0 1 1.391-1.394zm-1.39-22.293a1.393 1.393 0 1 1-1.4 1.393 1.317 1.317 0 0 1 1.4-1.393zm-9.756-15.327a1.317 1.317 0 0 1 1.393 1.393 1.393 1.393 0 0 1-2.787 0 1.317 1.317 0 0 1 1.394-1.393zm-26.474-9.754a1.317 1.317 0 0 1 1.393 1.393 1.393 1.393 0 0 1-2.787 0 1.317 1.317 0 0 1 1.394-1.393zm0 78.028a1.393 1.393 0 1 1 1.393-1.393 1.317 1.317 0 0 1-1.393 1.393zm19.507-39.013a19.507 19.507 0 1 1-19.507-19.508 19.564 19.564 0 0 1 19.507 19.508zm0 0" transform="translate(-146.358 -2425) translate(146.272 2425)"/></svg>