<svg xmlns="http://www.w3.org/2000/svg" width="1844.082" height="276.871" viewBox="0 0 1844.082 276.871"><g transform="translate(174.002 -3.346)" opacity=".1" fill="#0b347b"><path d="M60.283 7.526l16.406 16.406a25.7 25.7 0 0 1 0 36.35l-16.406 16.407a25.7 25.7 0 0 1-36.35 0l-16.407-16.406a25.7 25.7 0 0 1 0-36.35l16.406-16.407a25.7 25.7 0 0 1 36.351 0zm-9.563 9.555a12.18 12.18 0 0 0-17.226 0l-16.413 16.413a12.18 12.18 0 0 0 0 17.226l16.413 16.413a12.18 12.18 0 0 0 17.226 0l16.413-16.413a12.18 12.18 0 0 0 0-17.226z" transform="translate(-97 196)"/><circle cx="11.373" cy="11.373" r="11.373" transform="translate(1491.567 226.654)"/><circle cx="11.373" cy="11.373" r="11.373" transform="translate(221.567 47.654)"/><circle cx="15.143" cy="15.143" r="15.143" transform="translate(1560.712 47.433)"/><path d="M2098.615 751.568l-22.978-22.978a4.939 4.939 0 0 1 0-6.985l22.978-22.978a4.939 4.939 0 0 1 6.985 0l22.978 22.978a4.94 4.94 0 0 1 0 6.985l-22.978 22.978a4.939 4.939 0 0 1-6.985 0z" transform="translate(-1965.589 -577.563)"/><path d="M2098.615 751.568l-22.978-22.978a4.939 4.939 0 0 1 0-6.985l22.978-22.978a4.939 4.939 0 0 1 6.985 0l22.978 22.978a4.94 4.94 0 0 1 0 6.985l-22.978 22.978a4.939 4.939 0 0 1-6.985 0z" transform="translate(-725.589 -626.563)"/><path d="M59.541 0a59.541 59.541 0 1 0 59.541 59.541 59.541 59.541 0 0 0-59.541-59.541zm.044 18.835a40.662 40.662 0 1 1-40.662 40.665 40.662 40.662 0 0 1 40.662-40.665z" transform="translate(-174.002 3.346)"/><path d="M59.541 0a59.541 59.541 0 1 0 59.541 59.541 59.541 59.541 0 0 0-59.541-59.541zm.044 18.835a40.662 40.662 0 1 1-40.662 40.665 40.662 40.662 0 0 1 40.662-40.665z" transform="translate(1550.998 119.346)"/></g></svg>