<svg xmlns="http://www.w3.org/2000/svg" width="1844.082" height="276.871" viewBox="0 0 1844.082 276.871"><g transform="translate(174.002 -3.346)" opacity="0.1"><path d="M60.283,7.526,76.689,23.932a25.7,25.7,0,0,1,0,36.35L60.283,76.689a25.7,25.7,0,0,1-36.35,0L7.526,60.283a25.7,25.7,0,0,1,0-36.35L23.932,7.526A25.7,25.7,0,0,1,60.283,7.526ZM50.72,17.081a12.18,12.18,0,0,0-17.226,0L17.081,33.494a12.18,12.18,0,0,0,0,17.226L33.494,67.133a12.18,12.18,0,0,0,17.226,0L67.133,50.72a12.18,12.18,0,0,0,0-17.226Z" transform="translate(-97 196)" fill="#0b347b"/><circle cx="11.373" cy="11.373" r="11.373" transform="translate(1491.567 226.654)" fill="#0b347b"/><circle cx="11.373" cy="11.373" r="11.373" transform="translate(221.567 47.654)" fill="#0b347b"/><circle cx="15.143" cy="15.143" r="15.143" transform="translate(1560.712 47.433)" fill="#0b347b"/><path d="M2098.615,751.568l-22.978-22.978a4.939,4.939,0,0,1,0-6.985l22.978-22.978a4.939,4.939,0,0,1,6.985,0l22.978,22.978a4.94,4.94,0,0,1,0,6.985L2105.6,751.568A4.939,4.939,0,0,1,2098.615,751.568Z" transform="translate(-1965.589 -577.563)" fill="#0b347b"/><path d="M2098.615,751.568l-22.978-22.978a4.939,4.939,0,0,1,0-6.985l22.978-22.978a4.939,4.939,0,0,1,6.985,0l22.978,22.978a4.94,4.94,0,0,1,0,6.985L2105.6,751.568A4.939,4.939,0,0,1,2098.615,751.568Z" transform="translate(-725.589 -626.563)" fill="#0b347b"/><path d="M59.541,0a59.541,59.541,0,1,0,59.541,59.541A59.541,59.541,0,0,0,59.541,0Zm.044,18.835A40.662,40.662,0,1,1,18.923,59.5,40.662,40.662,0,0,1,59.585,18.835Z" transform="translate(-174.002 3.346)" fill="#0b347b"/><path d="M59.541,0a59.541,59.541,0,1,0,59.541,59.541A59.541,59.541,0,0,0,59.541,0Zm.044,18.835A40.662,40.662,0,1,1,18.923,59.5,40.662,40.662,0,0,1,59.585,18.835Z" transform="translate(1550.998 119.346)" fill="#0b347b"/></g></svg>