<svg xmlns="http://www.w3.org/2000/svg" width="24.978" height="24.4" viewBox="0 0 24.978 24.4">
  <g id="link_1_" transform="translate(0.001 -0.35)">
    <path id="Path_144_1_" d="M23.9,4.6,20.7,1.4a3.621,3.621,0,0,0-5.1,0L12.1,4.9a3.594,3.594,0,0,0-.1,5l.1.1,2-1.9a1.681,1.681,0,0,1,.5-1.8l2.3-2.2a1.872,1.872,0,0,1,2.6,0L21.4,6a1.751,1.751,0,0,1,0,2.5h0l-2.3,2.2a2.211,2.211,0,0,1-1.9.6l-2,1.9a3.621,3.621,0,0,0,5.1,0l3.5-3.5a3.454,3.454,0,0,0,.1-5.1Z" fill="#3071ff"/>
    <path id="Path_145_1_" d="M11,17.2a2.211,2.211,0,0,1-.6,1.9L8.3,21.2a1.872,1.872,0,0,1-2.6,0l-2-1.9a1.751,1.751,0,0,1,0-2.5h0l2.1-2.1a1.9,1.9,0,0,1,1.9-.5l2-2a3.744,3.744,0,0,0-5.2,0L1.1,15.5A3.383,3.383,0,0,0,1,20.4l.1.1,3.3,3.2a3.744,3.744,0,0,0,5.2,0L13,20.4a3.623,3.623,0,0,0,.1-5.1l-.1-.1Z" fill="#3071ff"/>
    <path id="Path_146_1_" d="M8.7,16.3a1.268,1.268,0,0,0,1.8,0l5.8-5.8a1.2,1.2,0,0,0-1.7-1.7h0L8.8,14.6A1.244,1.244,0,0,0,8.7,16.3Z" fill="#3071ff"/>
  </g>
</svg>
