<svg xmlns="http://www.w3.org/2000/svg" width="24.978" height="24.4" viewBox="0 0 24.978 24.4"><path d="M23.9 4.6l-3.2-3.2a3.621 3.621 0 0 0-5.1 0l-3.5 3.5a3.594 3.594 0 0 0-.1 5l.1.1 2-1.9a1.681 1.681 0 0 1 .5-1.8l2.3-2.2a1.872 1.872 0 0 1 2.6 0l1.9 1.9a1.751 1.751 0 0 1 0 2.5l-2.3 2.2a2.211 2.211 0 0 1-1.9.6l-2 1.9a3.621 3.621 0 0 0 5.1 0l3.5-3.5a3.454 3.454 0 0 0 .1-5.1zm-12.9 12.6a2.211 2.211 0 0 1-.6 1.9l-2.1 2.1a1.872 1.872 0 0 1-2.6 0l-2-1.9a1.751 1.751 0 0 1 0-2.5l2.1-2.1a1.9 1.9 0 0 1 1.9-.5l2-2a3.744 3.744 0 0 0-5.2 0l-3.4 3.3a3.383 3.383 0 0 0-.1 4.9l.1.1 3.3 3.2a3.744 3.744 0 0 0 5.2 0l3.4-3.3a3.623 3.623 0 0 0 .1-5.1l-.1-.1zm-2.3-.9a1.268 1.268 0 0 0 1.8 0l5.8-5.8a1.2 1.2 0 0 0-1.7-1.7l-5.8 5.8a1.244 1.244 0 0 0-.1 1.7z" transform="translate(.001 -.35)" fill="#3071ff"/></svg>