<svg xmlns="http://www.w3.org/2000/svg" width="88.971" height="89" viewBox="0 0 88.971 89"><path d="M-362.147-285.314l-6.522-6.522-21.7-21.7 21.043-21.045a1.726 1.726 0 0 0 .24-.3l.01-.017a1.547 1.547 0 0 0 .082-.152l.009-.02a1.671 1.671 0 0 0 .082-.208l6.562-19.477a1.737 1.737 0 0 0-.09-1.327 1.737 1.737 0 0 0-1-.874 1.727 1.727 0 0 0-1.108 0l-19.5 6.569a1.77 1.77 0 0 0-.181.072l-.018.009-.147.079-.042.027a1.33 1.33 0 0 0-.111.08l-.046.037-.1.086-.029.025-21.049 21.047-28.221-28.222a1.738 1.738 0 0 0-2.459 0l-13.675 13.678a1.738 1.738 0 0 0 0 2.458l28.218 28.225-25.411 25.411c-3.026 3.032-3.576 6.7-1.335 8.944l7.781 7.781a4.663 4.663 0 0 0 3.369 1.375 8.181 8.181 0 0 0 5.569-2.71l6.113-6.113 6.464-6.464 12.826-12.826 28.223 28.218a1.738 1.738 0 0 0 2.459 0l13.678-13.678a1.738 1.738 0 0 0 0-2.458zm-4.605-67.233l-4.057 12.041a8.826 8.826 0 0 0-1.886-1.3 9.664 9.664 0 0 0-3.743-1.06 9.658 9.658 0 0 0-1.061-3.744 8.748 8.748 0 0 0-1.3-1.886zm-79.681 10.3l11.215-11.219 3.485 3.479-4 4.009a1.738 1.738 0 0 0-.51 1.23 1.738 1.738 0 0 0 .51 1.23 1.741 1.741 0 0 0 2.46 0l4-4.007 3.479 3.479-2.436 2.437a1.741 1.741 0 0 0 0 2.46 1.738 1.738 0 0 0 1.23.51 1.738 1.738 0 0 0 1.23-.51l2.437-2.436 3.479 3.48-2.436 2.437a1.738 1.738 0 0 0-.51 1.23 1.738 1.738 0 0 0 .51 1.23 1.741 1.741 0 0 0 2.46 0l2.437-2.437 3.479 3.48-4.007 4.007a1.738 1.738 0 0 0-.51 1.23 1.738 1.738 0 0 0 .51 1.23 1.741 1.741 0 0 0 2.46 0l4.007-4.006 3.238 3.238-11.22 11.221zm12.057 67.793a5 5 0 0 1-3.11 1.694 1.213 1.213 0 0 1-.916-.357l-7.786-7.782c-.777-.777-.22-2.475 1.334-4.028l4.883-4.883 10.47 10.47zm7.341-7.341l-10.47-10.47 4.009-4.009 10.47 10.47zm6.467-6.467l-10.47-10.47 26.511-26.515 21.761-21.761a3.262 3.262 0 0 1 1.983 1.633 4.791 4.791 0 0 1 .777 3.627l-40.1 40.1a1.741 1.741 0 0 0 0 2.46 1.742 1.742 0 0 0 2.462 0l40.088-40.087a4.748 4.748 0 0 1 3.627.768 3.272 3.272 0 0 1 1.639 1.975zm43.508 15.391l-26.989-26.994 1.614-1.614 4.921 4.922a1.739 1.739 0 0 0 1.231.51 1.739 1.739 0 0 0 1.231-.51 1.741 1.741 0 0 0 0-2.46l-4.922-4.922 7.15-7.15 2.658 2.658-2.437 2.438a1.742 1.742 0 0 0 0 2.462 1.742 1.742 0 0 0 2.462 0l2.436-2.437 3.473 3.479-2.437 2.437a1.741 1.741 0 0 0 0 2.46 1.738 1.738 0 0 0 1.23.51 1.738 1.738 0 0 0 1.23-.51l2.434-2.436 3.479 3.479-4.007 4.006a1.742 1.742 0 0 0 0 2.462 1.742 1.742 0 0 0 2.462 0l4.007-4.007 3.479 3.479-2.436 2.437a1.738 1.738 0 0 0-.51 1.23 1.738 1.738 0 0 0 .51 1.23 1.741 1.741 0 0 0 2.46 0l2.437-2.437 4.057 4.057zm-44.161-25.202a1.738 1.738 0 0 0-2.458 0l-.1.1a1.738 1.738 0 0 0-.079 2.457 1.739 1.739 0 0 0 2.458.078l.075-.075.1-.1a1.738 1.738 0 0 0 .515-1.227 1.738 1.738 0 0 0-.5-1.232zm29.371 2.264l-.1-.094a1.741 1.741 0 0 0-2.46 0 1.739 1.739 0 0 0-.51 1.231 1.739 1.739 0 0 0 .51 1.231l.1.094a1.741 1.741 0 0 0 2.46 0 1.739 1.739 0 0 0 .51-1.231 1.739 1.739 0 0 0-.51-1.231z" transform="translate(450.624 357.661)" fill="#292a35"/></svg>