<svg xmlns="http://www.w3.org/2000/svg" width="88.266" height="89" viewBox="0 0 88.266 89"><g fill="#292a35"><path d="M-205.786-238.488v-12.812h.469a1.406 1.406 0 0 0 1.406-1.406 1.4 1.4 0 0 0-1.406-1.4h-14.991a1.4 1.4 0 0 0-.993.411 1.4 1.4 0 0 0-.411.993 1.4 1.4 0 0 0 1.4 1.406h.469v12.807l-4.7 7.522-.295.469a25.668 25.668 0 0 0-16.551-20.142v-13.772h.469a3.283 3.283 0 0 0 3.279-3.272v-1.874a5.156 5.156 0 0 0-5.153-5.153h-14.989a5.16 5.16 0 0 0-5.153 5.153v1.874a3.283 3.283 0 0 0 3.279 3.272h.469v13.772a25.751 25.751 0 0 0-15.312 33.04 25.751 25.751 0 0 0 33.037 15.314 25.814 25.814 0 0 0 4.495-2.162l.058.122a6.937 6.937 0 0 0 6.152 3.622h35.92a7.026 7.026 0 0 0 7.026-7.026 7.039 7.039 0 0 0-1.067-3.724l-12.191-19.511zm10.937 34.973h-19.022a5.1 5.1 0 0 0 .589-2.342 5.153 5.153 0 0 0-5.153-5.153 5.153 5.153 0 0 0-5.153 5.153 5.072 5.072 0 0 0 .59 2.342h-7.78a4.164 4.164 0 0 1-3.686-2.171 3.848 3.848 0 0 1-.149-.374 25.723 25.723 0 0 0 10.047-19.555l1.992-3.186h19.514l11.78 18.848a4.215 4.215 0 0 1-1.342 5.809 4.212 4.212 0 0 1-2.233.64zm-25.928-2.342a2.343 2.343 0 0 1 2.343-2.343 2.342 2.342 0 0 1 2.342 2.343 2.342 2.342 0 0 1-2.342 2.342 2.343 2.343 0 0 1-2.343-2.342zm-29.511 2.342a22.949 22.949 0 0 1-22.939-22.959 22.95 22.95 0 0 1 15.878-21.82 1.394 1.394 0 0 0 .936-1.124h4.25a1.4 1.4 0 0 0 1.406-1.4 1.406 1.406 0 0 0-1.406-1.406h-4.216v-4.684h4.216a1.406 1.406 0 0 0 1.406-1.406 1.4 1.4 0 0 0-1.406-1.4h-4.216v-4.684h12.173v14.772a1.412 1.412 0 0 0 .975 1.339 22.879 22.879 0 0 1 15.887 21.806v.026a22.844 22.844 0 0 1-9.031 18.212c-.461.352-.937.7-1.416 1.013a22.81 22.81 0 0 1-12.497 3.715zm-9.838-64.176v-1.874a2.344 2.344 0 0 1 2.343-2.342h14.983a2.342 2.342 0 0 1 2.343 2.342v1.874a.467.467 0 0 1-.137.331.467.467 0 0 1-.331.136h-18.735a.47.47 0 0 1-.465-.467zm42.883 30.354a1.393 1.393 0 0 0 .215-.75v-5.713h2.342a1.406 1.406 0 0 0 1.406-1.4 1.406 1.406 0 0 0-1.406-1.406h-2.342v-4.694h8.432v13.21a1.381 1.381 0 0 0 .215.75l3.573 5.721h-16.008zM-209.064-222.247a5.153 5.153 0 0 0-5.153 5.153 5.153 5.153 0 0 0 5.153 5.153 5.153 5.153 0 0 0 5.153-5.153 5.153 5.153 0 0 0-5.153-5.153zm0 7.5a2.343 2.343 0 0 1-2.343-2.343 2.342 2.342 0 0 1 2.343-2.342 2.342 2.342 0 0 1 2.342 2.342 2.343 2.343 0 0 1-2.342 2.338zM-238.814-240.676a1.393 1.393 0 0 0-.883-.313h-21.173a1.4 1.4 0 0 0-.885.313 18.268 18.268 0 0 0-2.749 25.689 18.269 18.269 0 0 0 25.691 2.749 18.269 18.269 0 0 0 2.749-25.691 18.315 18.315 0 0 0-2.749-2.749zm-11.474 29.667a15.453 15.453 0 0 1-15.458-15.445 15.454 15.454 0 0 1 5.377-11.722h20.157a15.453 15.453 0 0 1 1.641 21.792 15.445 15.445 0 0 1-11.717 5.375zM-245.793-219.891a7.919 7.919 0 0 1-4.5 1.387 1.406 1.406 0 0 0-1.406 1.406 1.406 1.406 0 0 0 1.406 1.406 10.742 10.742 0 0 0 6.082-1.874 1.4 1.4 0 0 0 .365-1.953 1.4 1.4 0 0 0-.9-.588 1.4 1.4 0 0 0-1.052.222zM-240.814-226.257a1.406 1.406 0 0 0-1.624 1.145 7.788 7.788 0 0 1-.425 1.533 1.407 1.407 0 0 0 .8 1.819 1.4 1.4 0 0 0 .508.1 1.408 1.408 0 0 0 1.309-.9 11.067 11.067 0 0 0 .573-2.073 1.406 1.406 0 0 0-1.145-1.624zM-207.85-289.131a1.415 1.415 0 0 0-1.736-.131l-21.835 14.645a1.4 1.4 0 0 0-.6.892 1.4 1.4 0 0 0 .207 1.055 1.4 1.4 0 0 0 .808.579l6.086 1.626-6.37 13.171a1.4 1.4 0 0 0-.062 1.074 1.4 1.4 0 0 0 .716.8 1.407 1.407 0 0 0 1.44-.131l21.361-15.691a1.406 1.406 0 0 0 .3-1.963 1.4 1.4 0 0 0-.771-.524l-6-1.6 6.725-12.078a1.408 1.408 0 0 0-.269-1.724zm-9.784 14a1.408 1.408 0 0 0 .547 1.914 1.468 1.468 0 0 0 .319.131l4.9 1.309-14.419 10.6 4.647-9.6a1.4 1.4 0 0 0 .062-1.074 1.4 1.4 0 0 0-.716-.8 1.569 1.569 0 0 0-.251-.093l-4.736-1.264 14.409-9.663zM-248.882-282.681v-5.619a1.4 1.4 0 0 0-1.406-1.4 1.4 1.4 0 0 0-1.406 1.4v5.622a1.406 1.406 0 0 0 1.406 1.406 1.406 1.406 0 0 0 1.406-1.406zM-258.785-280.4a1.4 1.4 0 0 0 1.4-1.406 1.415 1.415 0 0 0-.411-.992l-3.976-3.976a1.4 1.4 0 0 0-.979-.447 1.4 1.4 0 0 0-1.008.377 1.406 1.406 0 0 0-.069 1.986l.069.071 3.976 3.986a1.4 1.4 0 0 0 .993.412zM-241.79-280.4a1.39 1.39 0 0 0 .995-.412l3.976-3.975a1.406 1.406 0 0 0 .034-1.988 1.406 1.406 0 0 0-1.987-.033l-.035.034-3.974 3.976a1.4 1.4 0 0 0 0 1.987 1.4 1.4 0 0 0 .992.411z" transform="translate(276.081 289.707)"/></g></svg>